<?xml version="1.0" encoding="UTF-8"?> <svg xmlns="http://www.w3.org/2000/svg" viewBox="0 0 548.32 425.58"><defs><style>.cls-1{isolation:isolate;}.cls-2{fill:#f3f3f3;mix-blend-mode:screen;}</style></defs><title>Grey_Blob</title><g class="cls-1"><g id="Layer_2" data-name="Layer 2"><g id="Isolation_Mode" data-name="Isolation Mode"><path class="cls-2" d="M493.92,327.05c14-10.93,27.53-24,37.55-39s16.58-31.94,16.75-50.65c2.34-71.89-36.7-130.75-91.26-169a270.33,270.33,0,0,0-43.42-24.74C322.49,8.76,224.24-15.87,126.46,12.15,32.48,40-22,137.48,8.47,228.27c8.15,29.09,22.3,57.28,40.55,82.32s40.59,47,65.14,63.46a278.41,278.41,0,0,0,83.1,40C286,440,386.78,422.87,457.53,356,470,347.07,482.12,337.35,493.92,327.05Z"></path></g></g></g></svg> 