<?xml version="1.0" encoding="UTF-8"?> <svg xmlns="http://www.w3.org/2000/svg" viewBox="0 0 649 502.81"><defs><style>.cls-1{fill:#30b7bd;opacity:0.75;}</style></defs><title>Blue_Blob</title><g id="Layer_2" data-name="Layer 2"><g id="Isolation_Mode" data-name="Isolation Mode"><path class="cls-1" d="M1.66,362.23c17,67.76,61.51,152.16,147,139.26,89.23-12.07,178.39-36,267.55-37.79,19.15-.32,38.47,0,58.15.95s39.71,2.51,60.27,4.68c32.74,5.14,65.32-13.34,86.54-40.19,27.46-33.36,31.63-71.29,25.27-109.33s-23.25-76.19-37.9-110A365.78,365.78,0,0,0,569,149.68,413.15,413.15,0,0,0,478.5,67C412.28,20,329.07-9.89,243.61,3,110.42,25.2,73.59,170.57,17.2,266.86,4.14,295.93-3.59,326.47,1.66,362.23Z"></path></g></g></svg> 