<?xml version="1.0" encoding="UTF-8"?> <svg xmlns="http://www.w3.org/2000/svg" viewBox="0 0 436.8 398.23"><defs><style>.cls-1{isolation:isolate;}.cls-2{opacity:0.5;mix-blend-mode:screen;}.cls-3{fill:none;stroke:#ff579a;stroke-miterlimit:10;stroke-width:4px;stroke-dasharray:12.02 12.02;}</style></defs><title>Pink_Dashed_Oval_1</title><g class="cls-1"><g id="Layer_2" data-name="Layer 2"><g id="Isolation_Mode" data-name="Isolation Mode"><g class="cls-2"><path class="cls-3" d="M324.17,59.14c42.27,34.15,76.05,75.56,94.68,121.38S440.55,276.62,424,323c-7.42,20.82-19.44,41.52-40.53,55-29.38,18.7-70.18,19.83-107.5,17.29-57.28-3.89-115.1-14.89-163.19-40.24C35.78,314.38-8.29,236.66,4.06,163.21c7.84-46.6,38.16-90,81.53-121.21C107.08,26.54,133.44,12,161,4.62c23.31-6.25,48.54-.09,71.15,5.71C267.54,19.41,298.23,38.19,324.17,59.14Z"></path></g></g></g></g></svg> 