<?xml version="1.0" encoding="UTF-8"?> <svg xmlns="http://www.w3.org/2000/svg" viewBox="0 0 442.28 408.66"><defs><style>.cls-1{isolation:isolate;}.cls-2{opacity:0.5;mix-blend-mode:screen;}.cls-3{fill:none;stroke:#ff579a;stroke-miterlimit:10;stroke-width:4px;stroke-dasharray:11.98 11.98;}</style></defs><title>Pink_Dashed_Oval_2</title><g class="cls-1"><g id="Layer_2" data-name="Layer 2"><g id="Isolation_Mode" data-name="Isolation Mode"><g class="cls-2"><path class="cls-3" d="M20.8,295.49a198.51,198.51,0,0,0,83.89,86.34c38.32,20.61,86.7,29.88,131.75,22.08,52.9-9.17,96.1-40.14,129.08-74.67,36.1-37.8,63.38-81.91,72-129.08s-2.61-97.52-36.93-136.39-92.94-65-152-61.46C143.09,8.57,77.28,66.12,59.2,80.27c-24,18.75-40.39,52.85-48.31,77.86a185.69,185.69,0,0,0-5.62,91.31A180.37,180.37,0,0,0,20.8,295.49Z"></path></g></g></g></g></svg> 