<?xml version="1.0" encoding="UTF-8"?> <svg xmlns="http://www.w3.org/2000/svg" viewBox="0 0 54.84 108.29"><defs><style>.cls-1{fill:#ff5c97;opacity:0.75;}.cls-2{fill:#fff;}</style></defs><title>Lightbulb</title><g id="Layer_2" data-name="Layer 2"><g id="Illustrations"><path class="cls-1" d="M44.27,88.64c4.91-2.67,9-9.27,9.16-14.76L54.84,6.22C55,.73,51.12-1.55,46.21,1.11L10.57,19.65c-4.91,2.66-9,9.27-9.15,14.76L0,102.07c-.14,5.49,3.73,7.77,8.64,5.1Z"></path><path class="cls-2" d="M29.48,33.57C22.65,36,17.06,44.65,17,52.75c0,4.66,1.8,8.22,4.93,9.62v1.21a6.82,6.82,0,0,0-1.27,3.77,3.06,3.06,0,0,0,1,2.49,6.87,6.87,0,0,0-1,3.37c0,1.93,1.08,3.05,2.57,2.89.47,3.18,3,4.55,6.09,3.07a12.2,12.2,0,0,0,6.13-8.75A7.09,7.09,0,0,0,38,65.3,2.79,2.79,0,0,0,37,63a6.36,6.36,0,0,0,1-3.24,2.72,2.72,0,0,0-1.25-2.54V56a22,22,0,0,0,5-13.15c0-7.58-5.53-11.75-12.35-9.29Zm4.89,26.25a.9.9,0,0,1,1.33.92,2.48,2.48,0,0,1-1.34,2.09l-10,4.45c-.73.33-1.33-.1-1.33-1a2.54,2.54,0,0,1,1.35-2.14ZM29.3,76.5c-1.72.81-3.17.2-3.66-1.35L33,71.74A7.58,7.58,0,0,1,29.3,76.5Zm5-8-10,4.61c-.73.34-1.33-.08-1.33-.94A2.6,2.6,0,0,1,24.32,70l10-4.52a.88.88,0,0,1,1.33.9,2.5,2.5,0,0,1-1.34,2.11ZM35,55a2.13,2.13,0,0,0-.52,1.31v.83l-.08,0L33,57.75l0-5.21L34.74,50c.46-.7.46-1.54,0-1.87s-1.19,0-1.65.67l-2,3.11A2.05,2.05,0,0,0,30.73,53l0,5.79L28,59.9l0-5.84a1,1,0,0,0-.34-.81l-2-1.5c-.46-.34-1.2,0-1.65.67a1.49,1.49,0,0,0,0,1.92l1.66,1.25,0,5.31-1.34.58-.08,0v-.84a.89.89,0,0,0-.51-.91c-2.8-1-4.45-4-4.43-7.95,0-6.54,4.58-13.52,10.13-15.57s10,1.35,10,7.54A18,18,0,0,1,35,55Z"></path><path class="cls-2" d="M14.34,53.82c0-.77-.51-1.19-1.15-.93l-2.5,1a2.15,2.15,0,0,0-1.18,1.87c0,.78.52,1.2,1.16.93l2.5-1a2.14,2.14,0,0,0,1.17-1.86Z"></path><path class="cls-2" d="M48.16,39.09l-2.5,1a2,2,0,0,0-1.17,1.74.8.8,0,0,0,1.16.82l2.5-1a2,2,0,0,0,1.17-1.73.79.79,0,0,0-1.16-.8Z"></path><path class="cls-2" d="M14.72,62.11l-2.18,2.42a2,2,0,0,0-.44,2.09.76.76,0,0,0,1,.26,1.75,1.75,0,0,0,.58-.44L15.87,64a1.93,1.93,0,0,0,.44-2.08c-.32-.52-1-.45-1.59.17Z"></path><path class="cls-2" d="M43.49,34.54a1.89,1.89,0,0,0,.59-.39L46.24,32a1.64,1.64,0,0,0,.43-1.89c-.33-.5-1-.45-1.59.11l-2.16,2.17a1.66,1.66,0,0,0-.43,1.91.79.79,0,0,0,1,.27Z"></path><path class="cls-2" d="M46.22,50.26l-2.17-.47a1.65,1.65,0,0,0-1.59,1.14c-.33.75-.14,1.46.42,1.58l2.17.45a.93.93,0,0,0,.58-.08,2,2,0,0,0,1-1.06c.33-.75.14-1.45-.42-1.56Z"></path><path class="cls-2" d="M16,42.34l-2.15-.69c-.56-.18-1.27.32-1.6,1.1s-.14,1.58.42,1.75l2.15.68a.9.9,0,0,0,.58,0,1.94,1.94,0,0,0,1-1.07c.33-.79.14-1.56-.41-1.73Z"></path></g></g></svg> 