<?xml version="1.0" encoding="UTF-8"?> <svg xmlns="http://www.w3.org/2000/svg" xmlns:xlink="http://www.w3.org/1999/xlink" viewBox="0 0 5.46 6.41"><defs><style>.cls-1,.cls-304{opacity:0.85;}.cls-2{fill:url(#linear-gradient);}.cls-3{fill:url(#linear-gradient-2);}.cls-4{fill:url(#linear-gradient-3);}.cls-5{fill:url(#linear-gradient-4);}.cls-6{fill:url(#linear-gradient-5);}.cls-7{fill:url(#linear-gradient-6);}.cls-8{fill:url(#linear-gradient-7);}.cls-9{fill:url(#linear-gradient-8);}.cls-10{fill:url(#linear-gradient-9);}.cls-11{fill:url(#linear-gradient-10);}.cls-12{fill:url(#linear-gradient-11);}.cls-13{fill:url(#linear-gradient-12);}.cls-14{fill:url(#linear-gradient-13);}.cls-15{fill:url(#linear-gradient-14);}.cls-16{fill:url(#linear-gradient-15);}.cls-17{fill:url(#linear-gradient-16);}.cls-18{fill:url(#linear-gradient-17);}.cls-19{fill:url(#linear-gradient-18);}.cls-20{fill:url(#linear-gradient-19);}.cls-21{fill:url(#linear-gradient-20);}.cls-22{fill:url(#linear-gradient-21);}.cls-23{fill:url(#linear-gradient-22);}.cls-24{fill:url(#linear-gradient-23);}.cls-25{fill:url(#linear-gradient-24);}.cls-26{fill:url(#linear-gradient-25);}.cls-27{fill:url(#linear-gradient-26);}.cls-28{fill:url(#linear-gradient-27);}.cls-29{fill:url(#linear-gradient-28);}.cls-30{fill:url(#linear-gradient-29);}.cls-31{fill:url(#linear-gradient-30);}.cls-32{fill:url(#linear-gradient-31);}.cls-33{fill:url(#linear-gradient-32);}.cls-34{fill:url(#linear-gradient-33);}.cls-35{fill:url(#linear-gradient-34);}.cls-36{fill:url(#linear-gradient-35);}.cls-37{fill:url(#linear-gradient-36);}.cls-38{fill:url(#linear-gradient-37);}.cls-39{fill:url(#linear-gradient-38);}.cls-40{fill:url(#linear-gradient-39);}.cls-41{fill:url(#linear-gradient-40);}.cls-42{fill:url(#linear-gradient-41);}.cls-43{fill:url(#linear-gradient-42);}.cls-44{fill:url(#linear-gradient-43);}.cls-45{fill:url(#linear-gradient-44);}.cls-46{fill:url(#linear-gradient-45);}.cls-47{fill:url(#linear-gradient-46);}.cls-48{fill:url(#linear-gradient-47);}.cls-49{fill:url(#linear-gradient-48);}.cls-50{fill:url(#linear-gradient-49);}.cls-51{fill:url(#linear-gradient-50);}.cls-52{fill:url(#linear-gradient-51);}.cls-53{fill:url(#linear-gradient-52);}.cls-54{fill:url(#linear-gradient-53);}.cls-55{fill:url(#linear-gradient-54);}.cls-56{fill:url(#linear-gradient-55);}.cls-57{fill:url(#linear-gradient-56);}.cls-58{fill:url(#linear-gradient-57);}.cls-59{fill:url(#linear-gradient-58);}.cls-60{fill:url(#linear-gradient-59);}.cls-61{fill:url(#linear-gradient-60);}.cls-62{fill:url(#linear-gradient-61);}.cls-63{fill:url(#linear-gradient-62);}.cls-64{fill:url(#linear-gradient-63);}.cls-65{fill:url(#linear-gradient-64);}.cls-66{fill:url(#linear-gradient-65);}.cls-67{fill:url(#linear-gradient-66);}.cls-68{fill:url(#linear-gradient-67);}.cls-69{fill:url(#linear-gradient-68);}.cls-70{fill:url(#linear-gradient-69);}.cls-71{fill:url(#linear-gradient-70);}.cls-72{fill:url(#linear-gradient-71);}.cls-73{fill:url(#linear-gradient-72);}.cls-74{fill:url(#linear-gradient-73);}.cls-75{fill:url(#linear-gradient-74);}.cls-76{fill:url(#linear-gradient-75);}.cls-77{fill:url(#linear-gradient-76);}.cls-78{fill:url(#linear-gradient-77);}.cls-79{fill:url(#linear-gradient-78);}.cls-80{fill:url(#linear-gradient-79);}.cls-81{fill:url(#linear-gradient-80);}.cls-82{fill:url(#linear-gradient-81);}.cls-83{fill:url(#linear-gradient-82);}.cls-84{fill:url(#linear-gradient-83);}.cls-85{fill:url(#linear-gradient-84);}.cls-86{fill:url(#linear-gradient-85);}.cls-87{fill:url(#linear-gradient-86);}.cls-88{fill:url(#linear-gradient-87);}.cls-89{fill:url(#linear-gradient-88);}.cls-90{fill:url(#linear-gradient-89);}.cls-91{fill:url(#linear-gradient-90);}.cls-92{fill:url(#linear-gradient-91);}.cls-93{fill:url(#linear-gradient-92);}.cls-94{fill:url(#linear-gradient-93);}.cls-95{fill:url(#linear-gradient-94);}.cls-96{fill:url(#linear-gradient-95);}.cls-97{fill:url(#linear-gradient-96);}.cls-98{fill:url(#linear-gradient-97);}.cls-99{fill:url(#linear-gradient-98);}.cls-100{fill:url(#linear-gradient-99);}.cls-101{fill:url(#linear-gradient-100);}.cls-102{fill:url(#linear-gradient-101);}.cls-103{fill:url(#linear-gradient-102);}.cls-104{fill:url(#linear-gradient-103);}.cls-105{fill:url(#linear-gradient-104);}.cls-106{fill:url(#linear-gradient-105);}.cls-107{fill:url(#linear-gradient-106);}.cls-108{fill:url(#linear-gradient-107);}.cls-109{fill:url(#linear-gradient-108);}.cls-110{fill:url(#linear-gradient-109);}.cls-111{fill:url(#linear-gradient-110);}.cls-112{fill:url(#linear-gradient-111);}.cls-113{fill:url(#linear-gradient-112);}.cls-114{fill:url(#linear-gradient-113);}.cls-115{fill:url(#linear-gradient-114);}.cls-116{fill:url(#linear-gradient-115);}.cls-117{fill:url(#linear-gradient-116);}.cls-118{fill:url(#linear-gradient-117);}.cls-119{fill:url(#linear-gradient-118);}.cls-120{fill:url(#linear-gradient-119);}.cls-121{fill:url(#linear-gradient-120);}.cls-122{fill:url(#linear-gradient-121);}.cls-123{fill:url(#linear-gradient-122);}.cls-124{fill:url(#linear-gradient-123);}.cls-125{fill:url(#linear-gradient-124);}.cls-126{fill:url(#linear-gradient-125);}.cls-127{fill:url(#linear-gradient-126);}.cls-128{fill:url(#linear-gradient-127);}.cls-129{fill:url(#linear-gradient-128);}.cls-130{fill:url(#linear-gradient-129);}.cls-131{fill:url(#linear-gradient-130);}.cls-132{fill:url(#linear-gradient-131);}.cls-133{fill:url(#linear-gradient-132);}.cls-134{fill:url(#linear-gradient-133);}.cls-135{fill:url(#linear-gradient-134);}.cls-136{fill:url(#linear-gradient-135);}.cls-137{fill:url(#linear-gradient-136);}.cls-138{fill:url(#linear-gradient-137);}.cls-139{fill:url(#linear-gradient-138);}.cls-140{fill:url(#linear-gradient-139);}.cls-141{fill:url(#linear-gradient-140);}.cls-142{fill:url(#linear-gradient-141);}.cls-143{fill:url(#linear-gradient-142);}.cls-144{fill:url(#linear-gradient-143);}.cls-145{fill:url(#linear-gradient-144);}.cls-146{fill:url(#linear-gradient-145);}.cls-147{fill:url(#linear-gradient-146);}.cls-148{fill:url(#linear-gradient-147);}.cls-149{fill:url(#linear-gradient-148);}.cls-150{fill:url(#linear-gradient-149);}.cls-151{fill:url(#linear-gradient-150);}.cls-152{fill:url(#linear-gradient-151);}.cls-153{fill:url(#linear-gradient-152);}.cls-154{fill:url(#linear-gradient-153);}.cls-155{fill:url(#linear-gradient-154);}.cls-156{fill:url(#linear-gradient-155);}.cls-157{fill:url(#linear-gradient-156);}.cls-158{fill:url(#linear-gradient-157);}.cls-159{fill:url(#linear-gradient-158);}.cls-160{fill:url(#linear-gradient-159);}.cls-161{fill:url(#linear-gradient-160);}.cls-162{fill:url(#linear-gradient-161);}.cls-163{fill:url(#linear-gradient-162);}.cls-164{fill:url(#linear-gradient-163);}.cls-165{fill:url(#linear-gradient-164);}.cls-166{fill:url(#linear-gradient-165);}.cls-167{fill:url(#linear-gradient-166);}.cls-168{fill:url(#linear-gradient-167);}.cls-169{fill:url(#linear-gradient-168);}.cls-170{fill:url(#linear-gradient-169);}.cls-171{fill:url(#linear-gradient-170);}.cls-172{fill:url(#linear-gradient-171);}.cls-173{fill:url(#linear-gradient-172);}.cls-174{fill:url(#linear-gradient-173);}.cls-175{fill:url(#linear-gradient-174);}.cls-176{fill:url(#linear-gradient-175);}.cls-177{fill:url(#linear-gradient-176);}.cls-178{fill:url(#linear-gradient-177);}.cls-179{fill:url(#linear-gradient-178);}.cls-180{fill:url(#linear-gradient-179);}.cls-181{fill:url(#linear-gradient-180);}.cls-182{fill:url(#linear-gradient-181);}.cls-183{fill:url(#linear-gradient-182);}.cls-184{fill:url(#linear-gradient-183);}.cls-185{fill:url(#linear-gradient-184);}.cls-186{fill:url(#linear-gradient-185);}.cls-187{fill:url(#linear-gradient-186);}.cls-188{fill:url(#linear-gradient-187);}.cls-189{fill:url(#linear-gradient-188);}.cls-190{fill:url(#linear-gradient-189);}.cls-191{fill:url(#linear-gradient-190);}.cls-192{fill:url(#linear-gradient-191);}.cls-193{fill:url(#linear-gradient-192);}.cls-194{fill:url(#linear-gradient-193);}.cls-195{fill:url(#linear-gradient-194);}.cls-196{fill:url(#linear-gradient-195);}.cls-197{fill:url(#linear-gradient-196);}.cls-198{fill:url(#linear-gradient-197);}.cls-199{fill:url(#linear-gradient-198);}.cls-200{fill:url(#linear-gradient-199);}.cls-201{fill:url(#linear-gradient-200);}.cls-202{fill:url(#linear-gradient-201);}.cls-203{fill:url(#linear-gradient-202);}.cls-204{fill:url(#linear-gradient-203);}.cls-205{fill:url(#linear-gradient-204);}.cls-206{fill:url(#linear-gradient-205);}.cls-207{fill:url(#linear-gradient-206);}.cls-208{fill:url(#linear-gradient-207);}.cls-209{fill:url(#linear-gradient-208);}.cls-210{fill:url(#linear-gradient-209);}.cls-211{fill:url(#linear-gradient-210);}.cls-212{fill:url(#linear-gradient-211);}.cls-213{fill:url(#linear-gradient-212);}.cls-214{fill:url(#linear-gradient-213);}.cls-215{fill:url(#linear-gradient-214);}.cls-216{fill:url(#linear-gradient-215);}.cls-217{fill:url(#linear-gradient-216);}.cls-218{fill:url(#linear-gradient-217);}.cls-219{fill:url(#linear-gradient-218);}.cls-220{fill:url(#linear-gradient-219);}.cls-221{fill:url(#linear-gradient-220);}.cls-222{fill:url(#linear-gradient-221);}.cls-223{fill:url(#linear-gradient-222);}.cls-224{fill:url(#linear-gradient-223);}.cls-225{fill:url(#linear-gradient-224);}.cls-226{fill:url(#linear-gradient-225);}.cls-227{fill:url(#linear-gradient-226);}.cls-228{fill:url(#linear-gradient-227);}.cls-229{fill:url(#linear-gradient-228);}.cls-230{fill:url(#linear-gradient-229);}.cls-231{fill:url(#linear-gradient-230);}.cls-232{fill:url(#linear-gradient-231);}.cls-233{fill:url(#linear-gradient-232);}.cls-234{fill:url(#linear-gradient-233);}.cls-235{fill:url(#linear-gradient-234);}.cls-236{fill:url(#linear-gradient-235);}.cls-237{fill:url(#linear-gradient-236);}.cls-238{fill:url(#linear-gradient-237);}.cls-239{fill:url(#linear-gradient-238);}.cls-240{fill:url(#linear-gradient-239);}.cls-241{fill:url(#linear-gradient-240);}.cls-242{fill:url(#linear-gradient-241);}.cls-243{fill:url(#linear-gradient-242);}.cls-244{fill:url(#linear-gradient-243);}.cls-245{fill:url(#linear-gradient-244);}.cls-246{fill:url(#linear-gradient-245);}.cls-247{fill:url(#linear-gradient-246);}.cls-248{fill:url(#linear-gradient-247);}.cls-249{fill:url(#linear-gradient-248);}.cls-250{fill:url(#linear-gradient-249);}.cls-251{fill:url(#linear-gradient-250);}.cls-252{fill:url(#linear-gradient-251);}.cls-253{fill:url(#linear-gradient-252);}.cls-254{fill:url(#linear-gradient-253);}.cls-255{fill:url(#linear-gradient-254);}.cls-256{fill:url(#linear-gradient-255);}.cls-257{fill:url(#linear-gradient-256);}.cls-258{fill:url(#linear-gradient-257);}.cls-259{fill:url(#linear-gradient-258);}.cls-260{fill:url(#linear-gradient-259);}.cls-261{fill:url(#linear-gradient-260);}.cls-262{fill:url(#linear-gradient-261);}.cls-263{fill:url(#linear-gradient-262);}.cls-264{fill:url(#linear-gradient-263);}.cls-265{fill:url(#linear-gradient-264);}.cls-266{fill:url(#linear-gradient-265);}.cls-267{fill:url(#linear-gradient-266);}.cls-268{fill:url(#linear-gradient-267);}.cls-269{fill:url(#linear-gradient-268);}.cls-270{fill:url(#linear-gradient-269);}.cls-271{fill:url(#linear-gradient-270);}.cls-272{fill:url(#linear-gradient-271);}.cls-273{fill:url(#linear-gradient-272);}.cls-274{fill:url(#linear-gradient-273);}.cls-275{fill:url(#linear-gradient-274);}.cls-276{fill:url(#linear-gradient-275);}.cls-277{fill:url(#linear-gradient-276);}.cls-278{fill:url(#linear-gradient-277);}.cls-279{fill:url(#linear-gradient-278);}.cls-280{fill:url(#linear-gradient-279);}.cls-281{fill:url(#linear-gradient-280);}.cls-282{fill:url(#linear-gradient-281);}.cls-283{fill:url(#linear-gradient-282);}.cls-284{fill:url(#linear-gradient-283);}.cls-285{fill:url(#linear-gradient-284);}.cls-286{fill:url(#linear-gradient-285);}.cls-287{fill:url(#linear-gradient-286);}.cls-288{fill:url(#linear-gradient-287);}.cls-289{fill:url(#linear-gradient-288);}.cls-290{fill:url(#linear-gradient-289);}.cls-291{fill:url(#linear-gradient-290);}.cls-292{fill:url(#linear-gradient-291);}.cls-293{fill:url(#linear-gradient-292);}.cls-294{fill:url(#linear-gradient-293);}.cls-295{fill:url(#linear-gradient-294);}.cls-296{fill:url(#linear-gradient-295);}.cls-297{fill:url(#linear-gradient-296);}.cls-298{fill:url(#linear-gradient-297);}.cls-299{fill:url(#linear-gradient-298);}.cls-300{fill:url(#linear-gradient-299);}.cls-301{fill:url(#linear-gradient-300);}.cls-302{fill:url(#linear-gradient-301);}.cls-303{fill:url(#linear-gradient-302);}.cls-304{fill:#28d1d1;}</style><linearGradient id="linear-gradient" x1="-56.95" y1="2.92" x2="-52.5" y2="2.92" gradientTransform="matrix(-1, 0, 0, 1, -52.5, 0)" gradientUnits="userSpaceOnUse"><stop offset="0" stop-color="#731f4e"></stop><stop offset="1" stop-color="#178ba2"></stop></linearGradient><linearGradient id="linear-gradient-2" x1="-56.96" y1="2.92" x2="-52.5" y2="2.92" xlink:href="#linear-gradient"></linearGradient><linearGradient id="linear-gradient-3" x1="-56.96" y1="2.92" x2="-52.51" y2="2.92" xlink:href="#linear-gradient"></linearGradient><linearGradient id="linear-gradient-4" x1="-56.96" y1="2.92" x2="-52.51" y2="2.92" xlink:href="#linear-gradient"></linearGradient><linearGradient id="linear-gradient-5" x1="-56.97" y1="2.93" x2="-52.51" y2="2.93" xlink:href="#linear-gradient"></linearGradient><linearGradient id="linear-gradient-6" x1="-56.97" y1="2.93" x2="-52.52" y2="2.93" xlink:href="#linear-gradient"></linearGradient><linearGradient id="linear-gradient-7" x1="-56.97" y1="2.93" x2="-52.52" y2="2.93" xlink:href="#linear-gradient"></linearGradient><linearGradient id="linear-gradient-8" x1="-56.98" y1="2.93" x2="-52.52" y2="2.93" xlink:href="#linear-gradient"></linearGradient><linearGradient id="linear-gradient-9" x1="-56.98" y1="2.93" x2="-52.53" y2="2.93" xlink:href="#linear-gradient"></linearGradient><linearGradient id="linear-gradient-10" x1="-56.98" y1="2.94" x2="-52.53" y2="2.94" xlink:href="#linear-gradient"></linearGradient><linearGradient id="linear-gradient-11" x1="-56.99" y1="2.94" x2="-52.53" y2="2.94" xlink:href="#linear-gradient"></linearGradient><linearGradient id="linear-gradient-12" x1="-56.99" y1="2.94" x2="-52.54" y2="2.94" xlink:href="#linear-gradient"></linearGradient><linearGradient id="linear-gradient-13" x1="-56.99" y1="2.94" x2="-52.54" y2="2.94" xlink:href="#linear-gradient"></linearGradient><linearGradient id="linear-gradient-14" x1="-57" y1="2.94" x2="-52.54" y2="2.94" xlink:href="#linear-gradient"></linearGradient><linearGradient id="linear-gradient-15" x1="-57" y1="2.94" x2="-52.55" y2="2.94" xlink:href="#linear-gradient"></linearGradient><linearGradient id="linear-gradient-16" x1="-57" y1="2.95" x2="-52.55" y2="2.95" xlink:href="#linear-gradient"></linearGradient><linearGradient id="linear-gradient-17" x1="-57.01" y1="2.95" x2="-52.55" y2="2.95" xlink:href="#linear-gradient"></linearGradient><linearGradient id="linear-gradient-18" x1="-57.01" y1="2.95" x2="-52.56" y2="2.95" xlink:href="#linear-gradient"></linearGradient><linearGradient id="linear-gradient-19" x1="-57.01" y1="2.95" x2="-52.56" y2="2.95" xlink:href="#linear-gradient"></linearGradient><linearGradient id="linear-gradient-20" x1="-57.02" y1="2.95" x2="-52.56" y2="2.95" xlink:href="#linear-gradient"></linearGradient><linearGradient id="linear-gradient-21" x1="-57.02" y1="2.96" x2="-52.57" y2="2.96" xlink:href="#linear-gradient"></linearGradient><linearGradient id="linear-gradient-22" x1="-57.02" y1="2.96" x2="-52.57" y2="2.96" xlink:href="#linear-gradient"></linearGradient><linearGradient id="linear-gradient-23" x1="-57.03" y1="2.96" x2="-52.57" y2="2.96" xlink:href="#linear-gradient"></linearGradient><linearGradient id="linear-gradient-24" x1="-57.03" y1="2.96" x2="-52.58" y2="2.96" xlink:href="#linear-gradient"></linearGradient><linearGradient id="linear-gradient-25" x1="-57.03" y1="2.96" x2="-52.58" y2="2.96" xlink:href="#linear-gradient"></linearGradient><linearGradient id="linear-gradient-26" x1="-57.04" y1="2.97" x2="-52.58" y2="2.97" xlink:href="#linear-gradient"></linearGradient><linearGradient id="linear-gradient-27" x1="-57.04" y1="2.97" x2="-52.59" y2="2.97" xlink:href="#linear-gradient"></linearGradient><linearGradient id="linear-gradient-28" x1="-57.04" y1="2.97" x2="-52.59" y2="2.97" xlink:href="#linear-gradient"></linearGradient><linearGradient id="linear-gradient-29" x1="-57.05" y1="2.97" x2="-52.59" y2="2.97" xlink:href="#linear-gradient"></linearGradient><linearGradient id="linear-gradient-30" x1="-57.05" y1="2.97" x2="-52.6" y2="2.97" xlink:href="#linear-gradient"></linearGradient><linearGradient id="linear-gradient-31" x1="-57.05" y1="2.98" x2="-52.6" y2="2.98" xlink:href="#linear-gradient"></linearGradient><linearGradient id="linear-gradient-32" x1="-57.06" y1="2.98" x2="-52.6" y2="2.98" xlink:href="#linear-gradient"></linearGradient><linearGradient id="linear-gradient-33" x1="-57.06" y1="2.98" x2="-52.61" y2="2.98" xlink:href="#linear-gradient"></linearGradient><linearGradient id="linear-gradient-34" x1="-57.06" y1="2.98" x2="-52.61" y2="2.98" xlink:href="#linear-gradient"></linearGradient><linearGradient id="linear-gradient-35" x1="-57.07" y1="2.98" x2="-52.61" y2="2.98" xlink:href="#linear-gradient"></linearGradient><linearGradient id="linear-gradient-36" x1="-57.07" y1="2.98" x2="-52.62" y2="2.98" xlink:href="#linear-gradient"></linearGradient><linearGradient id="linear-gradient-37" x1="-57.07" y1="2.99" x2="-52.62" y2="2.99" xlink:href="#linear-gradient"></linearGradient><linearGradient id="linear-gradient-38" x1="-57.08" y1="2.99" x2="-52.62" y2="2.99" xlink:href="#linear-gradient"></linearGradient><linearGradient id="linear-gradient-39" x1="-57.08" y1="2.99" x2="-52.63" y2="2.99" xlink:href="#linear-gradient"></linearGradient><linearGradient id="linear-gradient-40" x1="-57.08" y1="2.99" x2="-52.63" y2="2.99" xlink:href="#linear-gradient"></linearGradient><linearGradient id="linear-gradient-41" x1="-57.09" y1="2.99" x2="-52.63" y2="2.99" xlink:href="#linear-gradient"></linearGradient><linearGradient id="linear-gradient-42" x1="-57.09" y1="3" x2="-52.64" y2="3" xlink:href="#linear-gradient"></linearGradient><linearGradient id="linear-gradient-43" x1="-57.09" y1="3" x2="-52.64" y2="3" xlink:href="#linear-gradient"></linearGradient><linearGradient id="linear-gradient-44" x1="-57.1" y1="3" x2="-52.64" y2="3" xlink:href="#linear-gradient"></linearGradient><linearGradient id="linear-gradient-45" x1="-57.1" y1="3" x2="-52.65" y2="3" xlink:href="#linear-gradient"></linearGradient><linearGradient id="linear-gradient-46" x1="-57.1" y1="3" x2="-52.65" y2="3" xlink:href="#linear-gradient"></linearGradient><linearGradient id="linear-gradient-47" x1="-57.11" y1="3.01" x2="-52.65" y2="3.01" xlink:href="#linear-gradient"></linearGradient><linearGradient id="linear-gradient-48" x1="-57.11" y1="3.01" x2="-52.66" y2="3.01" xlink:href="#linear-gradient"></linearGradient><linearGradient id="linear-gradient-49" x1="-57.11" y1="3.01" x2="-52.66" y2="3.01" xlink:href="#linear-gradient"></linearGradient><linearGradient id="linear-gradient-50" x1="-57.12" y1="3.01" x2="-52.66" y2="3.01" xlink:href="#linear-gradient"></linearGradient><linearGradient id="linear-gradient-51" x1="-57.12" y1="3.01" x2="-52.67" y2="3.01" xlink:href="#linear-gradient"></linearGradient><linearGradient id="linear-gradient-52" x1="-57.12" y1="3.02" x2="-52.67" y2="3.02" xlink:href="#linear-gradient"></linearGradient><linearGradient id="linear-gradient-53" x1="-57.13" y1="3.02" x2="-52.67" y2="3.02" xlink:href="#linear-gradient"></linearGradient><linearGradient id="linear-gradient-54" x1="-57.13" y1="3.02" x2="-52.68" y2="3.02" xlink:href="#linear-gradient"></linearGradient><linearGradient id="linear-gradient-55" x1="-57.13" y1="3.02" x2="-52.68" y2="3.02" xlink:href="#linear-gradient"></linearGradient><linearGradient id="linear-gradient-56" x1="-57.14" y1="3.02" x2="-52.68" y2="3.02" xlink:href="#linear-gradient"></linearGradient><linearGradient id="linear-gradient-57" x1="-57.14" y1="3.02" x2="-52.69" y2="3.02" xlink:href="#linear-gradient"></linearGradient><linearGradient id="linear-gradient-58" x1="-57.14" y1="3.03" x2="-52.69" y2="3.03" xlink:href="#linear-gradient"></linearGradient><linearGradient id="linear-gradient-59" x1="-57.15" y1="3.03" x2="-52.69" y2="3.03" xlink:href="#linear-gradient"></linearGradient><linearGradient id="linear-gradient-60" x1="-57.15" y1="3.03" x2="-52.7" y2="3.03" xlink:href="#linear-gradient"></linearGradient><linearGradient id="linear-gradient-61" x1="-57.15" y1="3.03" x2="-52.7" y2="3.03" xlink:href="#linear-gradient"></linearGradient><linearGradient id="linear-gradient-62" x1="-57.16" y1="3.03" x2="-52.7" y2="3.03" xlink:href="#linear-gradient"></linearGradient><linearGradient id="linear-gradient-63" x1="-57.16" y1="3.04" x2="-52.71" y2="3.04" xlink:href="#linear-gradient"></linearGradient><linearGradient id="linear-gradient-64" x1="-57.16" y1="3.04" x2="-52.71" y2="3.04" xlink:href="#linear-gradient"></linearGradient><linearGradient id="linear-gradient-65" x1="-57.17" y1="3.04" x2="-52.71" y2="3.04" xlink:href="#linear-gradient"></linearGradient><linearGradient id="linear-gradient-66" x1="-57.17" y1="3.04" x2="-52.72" y2="3.04" xlink:href="#linear-gradient"></linearGradient><linearGradient id="linear-gradient-67" x1="-57.17" y1="3.04" x2="-52.72" y2="3.04" xlink:href="#linear-gradient"></linearGradient><linearGradient id="linear-gradient-68" x1="-57.18" y1="3.05" x2="-52.72" y2="3.05" xlink:href="#linear-gradient"></linearGradient><linearGradient id="linear-gradient-69" x1="-57.18" y1="3.05" x2="-52.73" y2="3.05" xlink:href="#linear-gradient"></linearGradient><linearGradient id="linear-gradient-70" x1="-57.18" y1="3.05" x2="-52.73" y2="3.05" xlink:href="#linear-gradient"></linearGradient><linearGradient id="linear-gradient-71" x1="-57.19" y1="3.05" x2="-52.73" y2="3.05" xlink:href="#linear-gradient"></linearGradient><linearGradient id="linear-gradient-72" x1="-57.19" y1="3.05" x2="-52.74" y2="3.05" xlink:href="#linear-gradient"></linearGradient><linearGradient id="linear-gradient-73" x1="-57.2" y1="3.06" x2="-52.74" y2="3.06" xlink:href="#linear-gradient"></linearGradient><linearGradient id="linear-gradient-74" x1="-57.2" y1="3.06" x2="-52.74" y2="3.06" xlink:href="#linear-gradient"></linearGradient><linearGradient id="linear-gradient-75" x1="-57.2" y1="3.06" x2="-52.75" y2="3.06" xlink:href="#linear-gradient"></linearGradient><linearGradient id="linear-gradient-76" x1="-57.21" y1="3.06" x2="-52.75" y2="3.06" xlink:href="#linear-gradient"></linearGradient><linearGradient id="linear-gradient-77" x1="-57.21" y1="3.06" x2="-52.75" y2="3.06" xlink:href="#linear-gradient"></linearGradient><linearGradient id="linear-gradient-78" x1="-57.21" y1="3.06" x2="-52.76" y2="3.06" xlink:href="#linear-gradient"></linearGradient><linearGradient id="linear-gradient-79" x1="-57.22" y1="3.07" x2="-52.76" y2="3.07" xlink:href="#linear-gradient"></linearGradient><linearGradient id="linear-gradient-80" x1="-57.22" y1="3.07" x2="-52.76" y2="3.07" xlink:href="#linear-gradient"></linearGradient><linearGradient id="linear-gradient-81" x1="-57.22" y1="3.07" x2="-52.77" y2="3.07" xlink:href="#linear-gradient"></linearGradient><linearGradient id="linear-gradient-82" x1="-57.23" y1="3.07" x2="-52.77" y2="3.07" xlink:href="#linear-gradient"></linearGradient><linearGradient id="linear-gradient-83" x1="-57.23" y1="3.07" x2="-52.77" y2="3.07" xlink:href="#linear-gradient"></linearGradient><linearGradient id="linear-gradient-84" x1="-57.23" y1="3.08" x2="-52.78" y2="3.08" xlink:href="#linear-gradient"></linearGradient><linearGradient id="linear-gradient-85" x1="-57.24" y1="3.08" x2="-52.78" y2="3.08" xlink:href="#linear-gradient"></linearGradient><linearGradient id="linear-gradient-86" x1="-57.24" y1="3.08" x2="-52.78" y2="3.08" xlink:href="#linear-gradient"></linearGradient><linearGradient id="linear-gradient-87" x1="-57.24" y1="3.08" x2="-52.79" y2="3.08" xlink:href="#linear-gradient"></linearGradient><linearGradient id="linear-gradient-88" x1="-57.25" y1="3.08" x2="-52.79" y2="3.08" xlink:href="#linear-gradient"></linearGradient><linearGradient id="linear-gradient-89" x1="-57.25" y1="3.09" x2="-52.79" y2="3.09" xlink:href="#linear-gradient"></linearGradient><linearGradient id="linear-gradient-90" x1="-57.25" y1="3.09" x2="-52.8" y2="3.09" xlink:href="#linear-gradient"></linearGradient><linearGradient id="linear-gradient-91" x1="-57.26" y1="3.09" x2="-52.8" y2="3.09" xlink:href="#linear-gradient"></linearGradient><linearGradient id="linear-gradient-92" x1="-57.26" y1="3.09" x2="-52.81" y2="3.09" xlink:href="#linear-gradient"></linearGradient><linearGradient id="linear-gradient-93" x1="-57.26" y1="3.09" x2="-52.81" y2="3.09" xlink:href="#linear-gradient"></linearGradient><linearGradient id="linear-gradient-94" x1="-57.27" y1="3.1" x2="-52.81" y2="3.1" xlink:href="#linear-gradient"></linearGradient><linearGradient id="linear-gradient-95" x1="-57.27" y1="3.1" x2="-52.82" y2="3.1" xlink:href="#linear-gradient"></linearGradient><linearGradient id="linear-gradient-96" x1="-57.27" y1="3.1" x2="-52.82" y2="3.1" xlink:href="#linear-gradient"></linearGradient><linearGradient id="linear-gradient-97" x1="-57.28" y1="3.1" x2="-52.82" y2="3.1" xlink:href="#linear-gradient"></linearGradient><linearGradient id="linear-gradient-98" x1="-57.28" y1="3.1" x2="-52.83" y2="3.1" xlink:href="#linear-gradient"></linearGradient><linearGradient id="linear-gradient-99" x1="-57.28" y1="3.1" x2="-52.83" y2="3.1" xlink:href="#linear-gradient"></linearGradient><linearGradient id="linear-gradient-100" x1="-57.29" y1="3.11" x2="-52.83" y2="3.11" xlink:href="#linear-gradient"></linearGradient><linearGradient id="linear-gradient-101" x1="-57.29" y1="3.11" x2="-52.84" y2="3.11" xlink:href="#linear-gradient"></linearGradient><linearGradient id="linear-gradient-102" x1="-57.29" y1="3.11" x2="-52.84" y2="3.11" xlink:href="#linear-gradient"></linearGradient><linearGradient id="linear-gradient-103" x1="-57.3" y1="3.11" x2="-52.84" y2="3.11" xlink:href="#linear-gradient"></linearGradient><linearGradient id="linear-gradient-104" x1="-57.3" y1="3.11" x2="-52.85" y2="3.11" xlink:href="#linear-gradient"></linearGradient><linearGradient id="linear-gradient-105" x1="-57.3" y1="3.12" x2="-52.85" y2="3.12" xlink:href="#linear-gradient"></linearGradient><linearGradient id="linear-gradient-106" x1="-57.31" y1="3.12" x2="-52.85" y2="3.12" xlink:href="#linear-gradient"></linearGradient><linearGradient id="linear-gradient-107" x1="-57.31" y1="3.12" x2="-52.86" y2="3.12" xlink:href="#linear-gradient"></linearGradient><linearGradient id="linear-gradient-108" x1="-57.31" y1="3.12" x2="-52.86" y2="3.12" xlink:href="#linear-gradient"></linearGradient><linearGradient id="linear-gradient-109" x1="-57.32" y1="3.12" x2="-52.86" y2="3.12" xlink:href="#linear-gradient"></linearGradient><linearGradient id="linear-gradient-110" x1="-57.32" y1="3.13" x2="-52.87" y2="3.13" xlink:href="#linear-gradient"></linearGradient><linearGradient id="linear-gradient-111" x1="-57.32" y1="3.13" x2="-52.87" y2="3.13" xlink:href="#linear-gradient"></linearGradient><linearGradient id="linear-gradient-112" x1="-57.33" y1="3.13" x2="-52.87" y2="3.13" xlink:href="#linear-gradient"></linearGradient><linearGradient id="linear-gradient-113" x1="-57.33" y1="3.13" x2="-52.88" y2="3.13" xlink:href="#linear-gradient"></linearGradient><linearGradient id="linear-gradient-114" x1="-57.33" y1="3.13" x2="-52.88" y2="3.13" xlink:href="#linear-gradient"></linearGradient><linearGradient id="linear-gradient-115" x1="-57.34" y1="3.14" x2="-52.88" y2="3.14" xlink:href="#linear-gradient"></linearGradient><linearGradient id="linear-gradient-116" x1="-57.34" y1="3.14" x2="-52.89" y2="3.14" xlink:href="#linear-gradient"></linearGradient><linearGradient id="linear-gradient-117" x1="-57.34" y1="3.14" x2="-52.89" y2="3.14" xlink:href="#linear-gradient"></linearGradient><linearGradient id="linear-gradient-118" x1="-57.35" y1="3.14" x2="-52.89" y2="3.14" xlink:href="#linear-gradient"></linearGradient><linearGradient id="linear-gradient-119" x1="-57.35" y1="3.14" x2="-52.9" y2="3.14" xlink:href="#linear-gradient"></linearGradient><linearGradient id="linear-gradient-120" x1="-57.35" y1="3.14" x2="-52.9" y2="3.14" xlink:href="#linear-gradient"></linearGradient><linearGradient id="linear-gradient-121" x1="-57.36" y1="3.15" x2="-52.9" y2="3.15" xlink:href="#linear-gradient"></linearGradient><linearGradient id="linear-gradient-122" x1="-57.36" y1="3.15" x2="-52.91" y2="3.15" xlink:href="#linear-gradient"></linearGradient><linearGradient id="linear-gradient-123" x1="-57.36" y1="3.15" x2="-52.91" y2="3.15" xlink:href="#linear-gradient"></linearGradient><linearGradient id="linear-gradient-124" x1="-57.37" y1="3.15" x2="-52.91" y2="3.15" xlink:href="#linear-gradient"></linearGradient><linearGradient id="linear-gradient-125" x1="-57.37" y1="3.15" x2="-52.92" y2="3.15" xlink:href="#linear-gradient"></linearGradient><linearGradient id="linear-gradient-126" x1="-57.37" y1="3.16" x2="-52.92" y2="3.16" xlink:href="#linear-gradient"></linearGradient><linearGradient id="linear-gradient-127" x1="-57.38" y1="3.16" x2="-52.92" y2="3.16" xlink:href="#linear-gradient"></linearGradient><linearGradient id="linear-gradient-128" x1="-57.38" y1="3.16" x2="-52.93" y2="3.16" xlink:href="#linear-gradient"></linearGradient><linearGradient id="linear-gradient-129" x1="-57.38" y1="3.16" x2="-52.93" y2="3.16" xlink:href="#linear-gradient"></linearGradient><linearGradient id="linear-gradient-130" x1="-57.39" y1="3.16" x2="-52.93" y2="3.16" xlink:href="#linear-gradient"></linearGradient><linearGradient id="linear-gradient-131" x1="-57.39" y1="3.17" x2="-52.94" y2="3.17" xlink:href="#linear-gradient"></linearGradient><linearGradient id="linear-gradient-132" x1="-57.39" y1="3.17" x2="-52.94" y2="3.17" xlink:href="#linear-gradient"></linearGradient><linearGradient id="linear-gradient-133" x1="-57.4" y1="3.17" x2="-52.94" y2="3.17" xlink:href="#linear-gradient"></linearGradient><linearGradient id="linear-gradient-134" x1="-57.4" y1="3.17" x2="-52.95" y2="3.17" xlink:href="#linear-gradient"></linearGradient><linearGradient id="linear-gradient-135" x1="-57.4" y1="3.17" x2="-52.95" y2="3.17" xlink:href="#linear-gradient"></linearGradient><linearGradient id="linear-gradient-136" x1="-57.41" y1="3.18" x2="-52.95" y2="3.18" xlink:href="#linear-gradient"></linearGradient><linearGradient id="linear-gradient-137" x1="-57.41" y1="3.18" x2="-52.96" y2="3.18" xlink:href="#linear-gradient"></linearGradient><linearGradient id="linear-gradient-138" x1="-57.41" y1="3.18" x2="-52.96" y2="3.18" xlink:href="#linear-gradient"></linearGradient><linearGradient id="linear-gradient-139" x1="-57.42" y1="3.18" x2="-52.96" y2="3.18" xlink:href="#linear-gradient"></linearGradient><linearGradient id="linear-gradient-140" x1="-57.42" y1="3.18" x2="-52.97" y2="3.18" xlink:href="#linear-gradient"></linearGradient><linearGradient id="linear-gradient-141" x1="-57.42" y1="3.18" x2="-52.97" y2="3.18" xlink:href="#linear-gradient"></linearGradient><linearGradient id="linear-gradient-142" x1="-57.43" y1="3.19" x2="-52.97" y2="3.19" xlink:href="#linear-gradient"></linearGradient><linearGradient id="linear-gradient-143" x1="-57.43" y1="3.19" x2="-52.98" y2="3.19" xlink:href="#linear-gradient"></linearGradient><linearGradient id="linear-gradient-144" x1="-57.43" y1="3.19" x2="-52.98" y2="3.19" xlink:href="#linear-gradient"></linearGradient><linearGradient id="linear-gradient-145" x1="-57.44" y1="3.19" x2="-52.98" y2="3.19" xlink:href="#linear-gradient"></linearGradient><linearGradient id="linear-gradient-146" x1="-57.44" y1="3.19" x2="-52.99" y2="3.19" xlink:href="#linear-gradient"></linearGradient><linearGradient id="linear-gradient-147" x1="-57.44" y1="3.2" x2="-52.99" y2="3.2" xlink:href="#linear-gradient"></linearGradient><linearGradient id="linear-gradient-148" x1="-57.45" y1="3.2" x2="-52.99" y2="3.2" xlink:href="#linear-gradient"></linearGradient><linearGradient id="linear-gradient-149" x1="-57.45" y1="3.2" x2="-53" y2="3.2" xlink:href="#linear-gradient"></linearGradient><linearGradient id="linear-gradient-150" x1="-57.45" y1="3.2" x2="-53" y2="3.2" xlink:href="#linear-gradient"></linearGradient><linearGradient id="linear-gradient-151" x1="-57.46" y1="3.2" x2="-53" y2="3.2" xlink:href="#linear-gradient"></linearGradient><linearGradient id="linear-gradient-152" x1="-57.46" y1="3.21" x2="-53.01" y2="3.21" xlink:href="#linear-gradient"></linearGradient><linearGradient id="linear-gradient-153" x1="-57.46" y1="3.21" x2="-53.01" y2="3.21" xlink:href="#linear-gradient"></linearGradient><linearGradient id="linear-gradient-154" x1="-57.47" y1="3.21" x2="-53.01" y2="3.21" xlink:href="#linear-gradient"></linearGradient><linearGradient id="linear-gradient-155" x1="-57.47" y1="3.21" x2="-53.02" y2="3.21" xlink:href="#linear-gradient"></linearGradient><linearGradient id="linear-gradient-156" x1="-57.47" y1="3.21" x2="-53.02" y2="3.21" xlink:href="#linear-gradient"></linearGradient><linearGradient id="linear-gradient-157" x1="-57.48" y1="3.22" x2="-53.02" y2="3.22" xlink:href="#linear-gradient"></linearGradient><linearGradient id="linear-gradient-158" x1="-57.48" y1="3.22" x2="-53.03" y2="3.22" xlink:href="#linear-gradient"></linearGradient><linearGradient id="linear-gradient-159" x1="-57.48" y1="3.22" x2="-53.03" y2="3.22" xlink:href="#linear-gradient"></linearGradient><linearGradient id="linear-gradient-160" x1="-57.49" y1="3.22" x2="-53.03" y2="3.22" xlink:href="#linear-gradient"></linearGradient><linearGradient id="linear-gradient-161" x1="-57.49" y1="3.22" x2="-53.04" y2="3.22" xlink:href="#linear-gradient"></linearGradient><linearGradient id="linear-gradient-162" x1="-57.49" y1="3.22" x2="-53.04" y2="3.22" xlink:href="#linear-gradient"></linearGradient><linearGradient id="linear-gradient-163" x1="-57.5" y1="3.23" x2="-53.04" y2="3.23" xlink:href="#linear-gradient"></linearGradient><linearGradient id="linear-gradient-164" x1="-57.5" y1="3.23" x2="-53.05" y2="3.23" xlink:href="#linear-gradient"></linearGradient><linearGradient id="linear-gradient-165" x1="-57.5" y1="3.23" x2="-53.05" y2="3.23" xlink:href="#linear-gradient"></linearGradient><linearGradient id="linear-gradient-166" x1="-57.51" y1="3.23" x2="-53.05" y2="3.23" xlink:href="#linear-gradient"></linearGradient><linearGradient id="linear-gradient-167" x1="-57.51" y1="3.23" x2="-53.06" y2="3.23" xlink:href="#linear-gradient"></linearGradient><linearGradient id="linear-gradient-168" x1="-57.51" y1="3.24" x2="-53.06" y2="3.24" xlink:href="#linear-gradient"></linearGradient><linearGradient id="linear-gradient-169" x1="-57.52" y1="3.24" x2="-53.06" y2="3.24" xlink:href="#linear-gradient"></linearGradient><linearGradient id="linear-gradient-170" x1="-57.52" y1="3.24" x2="-53.07" y2="3.24" xlink:href="#linear-gradient"></linearGradient><linearGradient id="linear-gradient-171" x1="-57.52" y1="3.24" x2="-53.07" y2="3.24" xlink:href="#linear-gradient"></linearGradient><linearGradient id="linear-gradient-172" x1="-57.53" y1="3.24" x2="-53.07" y2="3.24" xlink:href="#linear-gradient"></linearGradient><linearGradient id="linear-gradient-173" x1="-57.53" y1="3.25" x2="-53.08" y2="3.25" xlink:href="#linear-gradient"></linearGradient><linearGradient id="linear-gradient-174" x1="-57.53" y1="3.25" x2="-53.08" y2="3.25" xlink:href="#linear-gradient"></linearGradient><linearGradient id="linear-gradient-175" x1="-57.54" y1="3.25" x2="-53.08" y2="3.25" xlink:href="#linear-gradient"></linearGradient><linearGradient id="linear-gradient-176" x1="-57.54" y1="3.25" x2="-53.09" y2="3.25" xlink:href="#linear-gradient"></linearGradient><linearGradient id="linear-gradient-177" x1="-57.54" y1="3.25" x2="-53.09" y2="3.25" xlink:href="#linear-gradient"></linearGradient><linearGradient id="linear-gradient-178" x1="-57.55" y1="3.26" x2="-53.09" y2="3.26" xlink:href="#linear-gradient"></linearGradient><linearGradient id="linear-gradient-179" x1="-57.55" y1="3.26" x2="-53.1" y2="3.26" xlink:href="#linear-gradient"></linearGradient><linearGradient id="linear-gradient-180" x1="-57.55" y1="3.26" x2="-53.1" y2="3.26" xlink:href="#linear-gradient"></linearGradient><linearGradient id="linear-gradient-181" x1="-57.56" y1="3.26" x2="-53.1" y2="3.26" xlink:href="#linear-gradient"></linearGradient><linearGradient id="linear-gradient-182" x1="-57.56" y1="3.26" x2="-53.11" y2="3.26" xlink:href="#linear-gradient"></linearGradient><linearGradient id="linear-gradient-183" x1="-57.56" y1="3.26" x2="-53.11" y2="3.26" xlink:href="#linear-gradient"></linearGradient><linearGradient id="linear-gradient-184" x1="-57.57" y1="3.27" x2="-53.11" y2="3.27" xlink:href="#linear-gradient"></linearGradient><linearGradient id="linear-gradient-185" x1="-57.57" y1="3.27" x2="-53.12" y2="3.27" xlink:href="#linear-gradient"></linearGradient><linearGradient id="linear-gradient-186" x1="-57.57" y1="3.27" x2="-53.12" y2="3.27" xlink:href="#linear-gradient"></linearGradient><linearGradient id="linear-gradient-187" x1="-57.58" y1="3.27" x2="-53.12" y2="3.27" xlink:href="#linear-gradient"></linearGradient><linearGradient id="linear-gradient-188" x1="-57.58" y1="3.27" x2="-53.13" y2="3.27" xlink:href="#linear-gradient"></linearGradient><linearGradient id="linear-gradient-189" x1="-57.58" y1="3.28" x2="-53.13" y2="3.28" xlink:href="#linear-gradient"></linearGradient><linearGradient id="linear-gradient-190" x1="-57.59" y1="3.28" x2="-53.13" y2="3.28" xlink:href="#linear-gradient"></linearGradient><linearGradient id="linear-gradient-191" x1="-57.59" y1="3.28" x2="-53.14" y2="3.28" xlink:href="#linear-gradient"></linearGradient><linearGradient id="linear-gradient-192" x1="-57.59" y1="3.28" x2="-53.14" y2="3.28" xlink:href="#linear-gradient"></linearGradient><linearGradient id="linear-gradient-193" x1="-57.6" y1="3.28" x2="-53.14" y2="3.28" xlink:href="#linear-gradient"></linearGradient><linearGradient id="linear-gradient-194" x1="-57.6" y1="3.29" x2="-53.15" y2="3.29" xlink:href="#linear-gradient"></linearGradient><linearGradient id="linear-gradient-195" x1="-57.6" y1="3.29" x2="-53.15" y2="3.29" xlink:href="#linear-gradient"></linearGradient><linearGradient id="linear-gradient-196" x1="-57.61" y1="3.29" x2="-53.15" y2="3.29" xlink:href="#linear-gradient"></linearGradient><linearGradient id="linear-gradient-197" x1="-57.61" y1="3.29" x2="-53.16" y2="3.29" xlink:href="#linear-gradient"></linearGradient><linearGradient id="linear-gradient-198" x1="-57.61" y1="3.29" x2="-53.16" y2="3.29" xlink:href="#linear-gradient"></linearGradient><linearGradient id="linear-gradient-199" x1="-57.62" y1="3.3" x2="-53.16" y2="3.3" xlink:href="#linear-gradient"></linearGradient><linearGradient id="linear-gradient-200" x1="-57.62" y1="3.3" x2="-53.17" y2="3.3" xlink:href="#linear-gradient"></linearGradient><linearGradient id="linear-gradient-201" x1="-57.63" y1="3.3" x2="-53.17" y2="3.3" xlink:href="#linear-gradient"></linearGradient><linearGradient id="linear-gradient-202" x1="-57.63" y1="3.3" x2="-53.17" y2="3.3" xlink:href="#linear-gradient"></linearGradient><linearGradient id="linear-gradient-203" x1="-57.63" y1="3.3" x2="-53.18" y2="3.3" xlink:href="#linear-gradient"></linearGradient><linearGradient id="linear-gradient-204" x1="-57.64" y1="3.3" x2="-53.18" y2="3.3" xlink:href="#linear-gradient"></linearGradient><linearGradient id="linear-gradient-205" x1="-57.64" y1="3.31" x2="-53.18" y2="3.31" xlink:href="#linear-gradient"></linearGradient><linearGradient id="linear-gradient-206" x1="-57.64" y1="3.31" x2="-53.19" y2="3.31" xlink:href="#linear-gradient"></linearGradient><linearGradient id="linear-gradient-207" x1="-57.65" y1="3.31" x2="-53.19" y2="3.31" xlink:href="#linear-gradient"></linearGradient><linearGradient id="linear-gradient-208" x1="-57.65" y1="3.31" x2="-53.19" y2="3.31" xlink:href="#linear-gradient"></linearGradient><linearGradient id="linear-gradient-209" x1="-57.65" y1="3.31" x2="-53.2" y2="3.31" xlink:href="#linear-gradient"></linearGradient><linearGradient id="linear-gradient-210" x1="-57.66" y1="3.32" x2="-53.2" y2="3.32" xlink:href="#linear-gradient"></linearGradient><linearGradient id="linear-gradient-211" x1="-57.66" y1="3.32" x2="-53.2" y2="3.32" xlink:href="#linear-gradient"></linearGradient><linearGradient id="linear-gradient-212" x1="-57.66" y1="3.32" x2="-53.21" y2="3.32" xlink:href="#linear-gradient"></linearGradient><linearGradient id="linear-gradient-213" x1="-57.67" y1="3.32" x2="-53.21" y2="3.32" xlink:href="#linear-gradient"></linearGradient><linearGradient id="linear-gradient-214" x1="-57.67" y1="3.32" x2="-53.21" y2="3.32" xlink:href="#linear-gradient"></linearGradient><linearGradient id="linear-gradient-215" x1="-57.67" y1="3.33" x2="-53.22" y2="3.33" xlink:href="#linear-gradient"></linearGradient><linearGradient id="linear-gradient-216" x1="-57.68" y1="3.33" x2="-53.22" y2="3.33" xlink:href="#linear-gradient"></linearGradient><linearGradient id="linear-gradient-217" x1="-57.68" y1="3.33" x2="-53.22" y2="3.33" xlink:href="#linear-gradient"></linearGradient><linearGradient id="linear-gradient-218" x1="-57.68" y1="3.33" x2="-53.23" y2="3.33" xlink:href="#linear-gradient"></linearGradient><linearGradient id="linear-gradient-219" x1="-57.69" y1="3.33" x2="-53.23" y2="3.33" xlink:href="#linear-gradient"></linearGradient><linearGradient id="linear-gradient-220" x1="-57.69" y1="3.34" x2="-53.23" y2="3.34" xlink:href="#linear-gradient"></linearGradient><linearGradient id="linear-gradient-221" x1="-57.69" y1="3.34" x2="-53.24" y2="3.34" xlink:href="#linear-gradient"></linearGradient><linearGradient id="linear-gradient-222" x1="-57.7" y1="3.34" x2="-53.24" y2="3.34" xlink:href="#linear-gradient"></linearGradient><linearGradient id="linear-gradient-223" x1="-57.7" y1="3.34" x2="-53.25" y2="3.34" xlink:href="#linear-gradient"></linearGradient><linearGradient id="linear-gradient-224" x1="-57.7" y1="3.34" x2="-53.25" y2="3.34" xlink:href="#linear-gradient"></linearGradient><linearGradient id="linear-gradient-225" x1="-57.71" y1="3.34" x2="-53.25" y2="3.34" xlink:href="#linear-gradient"></linearGradient><linearGradient id="linear-gradient-226" x1="-57.71" y1="3.35" x2="-53.26" y2="3.35" xlink:href="#linear-gradient"></linearGradient><linearGradient id="linear-gradient-227" x1="-57.71" y1="3.35" x2="-53.26" y2="3.35" xlink:href="#linear-gradient"></linearGradient><linearGradient id="linear-gradient-228" x1="-57.72" y1="3.35" x2="-53.26" y2="3.35" xlink:href="#linear-gradient"></linearGradient><linearGradient id="linear-gradient-229" x1="-57.72" y1="3.35" x2="-53.27" y2="3.35" xlink:href="#linear-gradient"></linearGradient><linearGradient id="linear-gradient-230" x1="-57.72" y1="3.35" x2="-53.27" y2="3.35" xlink:href="#linear-gradient"></linearGradient><linearGradient id="linear-gradient-231" x1="-57.73" y1="3.36" x2="-53.27" y2="3.36" xlink:href="#linear-gradient"></linearGradient><linearGradient id="linear-gradient-232" x1="-57.73" y1="3.36" x2="-53.28" y2="3.36" xlink:href="#linear-gradient"></linearGradient><linearGradient id="linear-gradient-233" x1="-57.73" y1="3.36" x2="-53.28" y2="3.36" xlink:href="#linear-gradient"></linearGradient><linearGradient id="linear-gradient-234" x1="-57.74" y1="3.36" x2="-53.28" y2="3.36" xlink:href="#linear-gradient"></linearGradient><linearGradient id="linear-gradient-235" x1="-57.74" y1="3.36" x2="-53.29" y2="3.36" xlink:href="#linear-gradient"></linearGradient><linearGradient id="linear-gradient-236" x1="-57.74" y1="3.37" x2="-53.29" y2="3.37" xlink:href="#linear-gradient"></linearGradient><linearGradient id="linear-gradient-237" x1="-57.75" y1="3.37" x2="-53.29" y2="3.37" xlink:href="#linear-gradient"></linearGradient><linearGradient id="linear-gradient-238" x1="-57.75" y1="3.37" x2="-53.3" y2="3.37" xlink:href="#linear-gradient"></linearGradient><linearGradient id="linear-gradient-239" x1="-57.75" y1="3.37" x2="-53.3" y2="3.37" xlink:href="#linear-gradient"></linearGradient><linearGradient id="linear-gradient-240" x1="-57.76" y1="3.37" x2="-53.3" y2="3.37" xlink:href="#linear-gradient"></linearGradient><linearGradient id="linear-gradient-241" x1="-57.76" y1="3.38" x2="-53.31" y2="3.38" xlink:href="#linear-gradient"></linearGradient><linearGradient id="linear-gradient-242" x1="-57.76" y1="3.38" x2="-53.31" y2="3.38" xlink:href="#linear-gradient"></linearGradient><linearGradient id="linear-gradient-243" x1="-57.77" y1="3.38" x2="-53.31" y2="3.38" xlink:href="#linear-gradient"></linearGradient><linearGradient id="linear-gradient-244" x1="-57.77" y1="3.38" x2="-53.32" y2="3.38" xlink:href="#linear-gradient"></linearGradient><linearGradient id="linear-gradient-245" x1="-57.77" y1="3.38" x2="-53.32" y2="3.38" xlink:href="#linear-gradient"></linearGradient><linearGradient id="linear-gradient-246" x1="-57.78" y1="3.39" x2="-53.32" y2="3.39" xlink:href="#linear-gradient"></linearGradient><linearGradient id="linear-gradient-247" x1="-57.78" y1="3.39" x2="-53.33" y2="3.39" xlink:href="#linear-gradient"></linearGradient><linearGradient id="linear-gradient-248" x1="-57.78" y1="3.39" x2="-53.33" y2="3.39" xlink:href="#linear-gradient"></linearGradient><linearGradient id="linear-gradient-249" x1="-57.79" y1="3.39" x2="-53.33" y2="3.39" xlink:href="#linear-gradient"></linearGradient><linearGradient id="linear-gradient-250" x1="-57.79" y1="3.39" x2="-53.34" y2="3.39" xlink:href="#linear-gradient"></linearGradient><linearGradient id="linear-gradient-251" x1="-57.79" y1="3.39" x2="-53.34" y2="3.39" xlink:href="#linear-gradient"></linearGradient><linearGradient id="linear-gradient-252" x1="-57.8" y1="3.4" x2="-53.34" y2="3.4" xlink:href="#linear-gradient"></linearGradient><linearGradient id="linear-gradient-253" x1="-57.8" y1="3.4" x2="-53.35" y2="3.4" xlink:href="#linear-gradient"></linearGradient><linearGradient id="linear-gradient-254" x1="-57.8" y1="3.4" x2="-53.35" y2="3.4" xlink:href="#linear-gradient"></linearGradient><linearGradient id="linear-gradient-255" x1="-57.81" y1="3.4" x2="-53.35" y2="3.4" xlink:href="#linear-gradient"></linearGradient><linearGradient id="linear-gradient-256" x1="-57.81" y1="3.4" x2="-53.36" y2="3.4" xlink:href="#linear-gradient"></linearGradient><linearGradient id="linear-gradient-257" x1="-57.81" y1="3.41" x2="-53.36" y2="3.41" xlink:href="#linear-gradient"></linearGradient><linearGradient id="linear-gradient-258" x1="-57.82" y1="3.41" x2="-53.36" y2="3.41" xlink:href="#linear-gradient"></linearGradient><linearGradient id="linear-gradient-259" x1="-57.82" y1="3.41" x2="-53.37" y2="3.41" xlink:href="#linear-gradient"></linearGradient><linearGradient id="linear-gradient-260" x1="-57.82" y1="3.41" x2="-53.37" y2="3.41" xlink:href="#linear-gradient"></linearGradient><linearGradient id="linear-gradient-261" x1="-57.83" y1="3.41" x2="-53.37" y2="3.41" xlink:href="#linear-gradient"></linearGradient><linearGradient id="linear-gradient-262" x1="-57.83" y1="3.42" x2="-53.38" y2="3.42" xlink:href="#linear-gradient"></linearGradient><linearGradient id="linear-gradient-263" x1="-57.83" y1="3.42" x2="-53.38" y2="3.42" xlink:href="#linear-gradient"></linearGradient><linearGradient id="linear-gradient-264" x1="-57.84" y1="3.42" x2="-53.38" y2="3.42" xlink:href="#linear-gradient"></linearGradient><linearGradient id="linear-gradient-265" x1="-57.84" y1="3.42" x2="-53.39" y2="3.42" xlink:href="#linear-gradient"></linearGradient><linearGradient id="linear-gradient-266" x1="-57.84" y1="3.42" x2="-53.39" y2="3.42" xlink:href="#linear-gradient"></linearGradient><linearGradient id="linear-gradient-267" x1="-57.85" y1="3.43" x2="-53.39" y2="3.43" xlink:href="#linear-gradient"></linearGradient><linearGradient id="linear-gradient-268" x1="-57.85" y1="3.43" x2="-53.4" y2="3.43" xlink:href="#linear-gradient"></linearGradient><linearGradient id="linear-gradient-269" x1="-57.85" y1="3.43" x2="-53.4" y2="3.43" xlink:href="#linear-gradient"></linearGradient><linearGradient id="linear-gradient-270" x1="-57.86" y1="3.43" x2="-53.4" y2="3.43" xlink:href="#linear-gradient"></linearGradient><linearGradient id="linear-gradient-271" x1="-57.86" y1="3.43" x2="-53.41" y2="3.43" xlink:href="#linear-gradient"></linearGradient><linearGradient id="linear-gradient-272" x1="-57.86" y1="3.43" x2="-53.41" y2="3.43" xlink:href="#linear-gradient"></linearGradient><linearGradient id="linear-gradient-273" x1="-57.87" y1="3.44" x2="-53.41" y2="3.44" xlink:href="#linear-gradient"></linearGradient><linearGradient id="linear-gradient-274" x1="-57.87" y1="3.44" x2="-53.42" y2="3.44" xlink:href="#linear-gradient"></linearGradient><linearGradient id="linear-gradient-275" x1="-57.87" y1="3.44" x2="-53.42" y2="3.44" xlink:href="#linear-gradient"></linearGradient><linearGradient id="linear-gradient-276" x1="-57.88" y1="3.44" x2="-53.42" y2="3.44" xlink:href="#linear-gradient"></linearGradient><linearGradient id="linear-gradient-277" x1="-57.88" y1="3.44" x2="-53.43" y2="3.44" xlink:href="#linear-gradient"></linearGradient><linearGradient id="linear-gradient-278" x1="-57.88" y1="3.45" x2="-53.43" y2="3.45" xlink:href="#linear-gradient"></linearGradient><linearGradient id="linear-gradient-279" x1="-57.89" y1="3.45" x2="-53.43" y2="3.45" xlink:href="#linear-gradient"></linearGradient><linearGradient id="linear-gradient-280" x1="-57.89" y1="3.45" x2="-53.44" y2="3.45" xlink:href="#linear-gradient"></linearGradient><linearGradient id="linear-gradient-281" x1="-57.89" y1="3.45" x2="-53.44" y2="3.45" xlink:href="#linear-gradient"></linearGradient><linearGradient id="linear-gradient-282" x1="-57.9" y1="3.45" x2="-53.44" y2="3.45" xlink:href="#linear-gradient"></linearGradient><linearGradient id="linear-gradient-283" x1="-57.9" y1="3.46" x2="-53.45" y2="3.46" xlink:href="#linear-gradient"></linearGradient><linearGradient id="linear-gradient-284" x1="-57.9" y1="3.46" x2="-53.45" y2="3.46" xlink:href="#linear-gradient"></linearGradient><linearGradient id="linear-gradient-285" x1="-57.91" y1="3.46" x2="-53.45" y2="3.46" xlink:href="#linear-gradient"></linearGradient><linearGradient id="linear-gradient-286" x1="-57.91" y1="3.46" x2="-53.46" y2="3.46" xlink:href="#linear-gradient"></linearGradient><linearGradient id="linear-gradient-287" x1="-57.91" y1="3.46" x2="-53.46" y2="3.46" xlink:href="#linear-gradient"></linearGradient><linearGradient id="linear-gradient-288" x1="-57.92" y1="3.47" x2="-53.46" y2="3.47" xlink:href="#linear-gradient"></linearGradient><linearGradient id="linear-gradient-289" x1="-57.92" y1="3.47" x2="-53.47" y2="3.47" xlink:href="#linear-gradient"></linearGradient><linearGradient id="linear-gradient-290" x1="-57.92" y1="3.47" x2="-53.47" y2="3.47" xlink:href="#linear-gradient"></linearGradient><linearGradient id="linear-gradient-291" x1="-57.93" y1="3.47" x2="-53.47" y2="3.47" xlink:href="#linear-gradient"></linearGradient><linearGradient id="linear-gradient-292" x1="-57.93" y1="3.47" x2="-53.48" y2="3.47" xlink:href="#linear-gradient"></linearGradient><linearGradient id="linear-gradient-293" x1="-57.93" y1="3.47" x2="-53.48" y2="3.47" xlink:href="#linear-gradient"></linearGradient><linearGradient id="linear-gradient-294" x1="-57.94" y1="3.48" x2="-53.48" y2="3.48" xlink:href="#linear-gradient"></linearGradient><linearGradient id="linear-gradient-295" x1="-57.94" y1="3.48" x2="-53.49" y2="3.48" xlink:href="#linear-gradient"></linearGradient><linearGradient id="linear-gradient-296" x1="-57.94" y1="3.48" x2="-53.49" y2="3.48" xlink:href="#linear-gradient"></linearGradient><linearGradient id="linear-gradient-297" x1="-57.95" y1="3.48" x2="-53.49" y2="3.48" xlink:href="#linear-gradient"></linearGradient><linearGradient id="linear-gradient-298" x1="-57.95" y1="3.48" x2="-53.5" y2="3.48" xlink:href="#linear-gradient"></linearGradient><linearGradient id="linear-gradient-299" x1="-57.95" y1="3.49" x2="-53.5" y2="3.49" xlink:href="#linear-gradient"></linearGradient><linearGradient id="linear-gradient-300" x1="-57.96" y1="3.49" x2="-53.5" y2="3.49" xlink:href="#linear-gradient"></linearGradient><linearGradient id="linear-gradient-301" x1="-57.96" y1="3.49" x2="-53.51" y2="3.49" xlink:href="#linear-gradient"></linearGradient><linearGradient id="linear-gradient-302" x1="-57.96" y1="3.49" x2="-53.51" y2="3.49" xlink:href="#linear-gradient"></linearGradient></defs><title>8_Disk_v02</title><g id="Layer_2" data-name="Layer 2"><g id="Illustrations"><g class="cls-1"><path class="cls-2" d="M2.23.3C3.45-.41,4.45.19,4.45,1.63A5,5,0,0,1,2.23,5.54C1,6.25,0,5.65,0,4.2A5,5,0,0,1,2.23.3Z" transform="translate(0 0)"></path><path class="cls-3" d="M2.23.3C3.46-.41,4.46.19,4.46,1.63A5,5,0,0,1,2.23,5.54C1,6.25,0,5.65,0,4.21A5,5,0,0,1,2.23.3Z" transform="translate(0 0)"></path><path class="cls-4" d="M2.23.3C3.46-.41,4.46.19,4.46,1.64a5,5,0,0,1-2.23,3.9C1,6.25,0,5.65,0,4.21A5,5,0,0,1,2.23.3Z" transform="translate(0 0)"></path><path class="cls-5" d="M2.24.3C3.46-.4,4.46.19,4.46,1.64a5,5,0,0,1-2.22,3.9C1,6.25,0,5.65,0,4.21A5,5,0,0,1,2.24.3Z" transform="translate(0 0)"></path><path class="cls-6" d="M2.24.31C3.47-.4,4.47.2,4.47,1.64A5,5,0,0,1,2.24,5.55C1,6.25,0,5.66,0,4.21A5,5,0,0,1,2.24.31Z" transform="translate(0 0)"></path><path class="cls-7" d="M2.24.31C3.47-.4,4.47.2,4.47,1.64A5,5,0,0,1,2.24,5.55C1,6.26,0,5.66,0,4.21A5,5,0,0,1,2.24.31Z" transform="translate(0 0)"></path><path class="cls-8" d="M2.25.31C3.47-.4,4.47.2,4.47,1.64A5,5,0,0,1,2.25,5.55C1,6.26,0,5.66,0,4.22A5,5,0,0,1,2.25.31Z" transform="translate(0 0)"></path><path class="cls-9" d="M2.25.31C3.48-.4,4.48.2,4.48,1.65a5,5,0,0,1-2.23,3.9C1,6.26,0,5.66,0,4.22A5,5,0,0,1,2.25.31Z" transform="translate(0 0)"></path><path class="cls-10" d="M2.25.31C3.48-.4,4.48.2,4.48,1.65a5,5,0,0,1-2.23,3.9C1,6.26,0,5.66,0,4.22A5,5,0,0,1,2.25.31Z" transform="translate(0 0)"></path><path class="cls-11" d="M2.26.32C3.49-.39,4.48.2,4.48,1.65A5,5,0,0,1,2.26,5.56C1,6.26,0,5.67,0,4.22A5,5,0,0,1,2.26.32Z" transform="translate(0 0)"></path><path class="cls-12" d="M2.26.32C3.49-.39,4.49.21,4.49,1.65A5,5,0,0,1,2.26,5.56C1,6.27,0,5.67,0,4.22A5,5,0,0,1,2.26.32Z" transform="translate(0 0)"></path><path class="cls-13" d="M2.26.32C3.49-.39,4.49.21,4.49,1.65A5,5,0,0,1,2.26,5.56C1,6.27,0,5.67,0,4.22A5,5,0,0,1,2.26.32Z" transform="translate(0 0)"></path><path class="cls-14" d="M2.27.32C3.5-.39,4.49.21,4.49,1.66a5,5,0,0,1-2.22,3.9C1,6.27,0,5.67,0,4.23A5,5,0,0,1,2.27.32Z" transform="translate(0 0)"></path><path class="cls-15" d="M2.27.32C3.5-.39,4.5.21,4.5,1.66a5,5,0,0,1-2.23,3.9C1,6.27,0,5.67,0,4.23A5,5,0,0,1,2.27.32Z" transform="translate(0 0)"></path><path class="cls-16" d="M2.27.32C3.5-.38,4.5.21,4.5,1.66a5,5,0,0,1-2.23,3.9C1.05,6.27.05,5.68.05,4.23A5,5,0,0,1,2.27.32Z" transform="translate(0 0)"></path><path class="cls-17" d="M2.28.33C3.51-.38,4.5.22,4.5,1.66A5,5,0,0,1,2.28,5.57C1.05,6.28.05,5.68.05,4.23A5,5,0,0,1,2.28.33Z" transform="translate(0 0)"></path><path class="cls-18" d="M2.28.33C3.51-.38,4.51.22,4.51,1.66A5,5,0,0,1,2.28,5.57C1.05,6.28.05,5.68.05,4.23A5,5,0,0,1,2.28.33Z" transform="translate(0 0)"></path><path class="cls-19" d="M2.28.33C3.51-.38,4.51.22,4.51,1.66A5,5,0,0,1,2.28,5.57C1.06,6.28.06,5.68.06,4.24A5,5,0,0,1,2.28.33Z" transform="translate(0 0)"></path><path class="cls-20" d="M2.29.33C3.52-.38,4.51.22,4.51,1.67a5,5,0,0,1-2.22,3.9C1.06,6.28.06,5.68.06,4.24A5,5,0,0,1,2.29.33Z" transform="translate(0 0)"></path><path class="cls-21" d="M2.29.33C3.52-.37,4.52.22,4.52,1.67a5,5,0,0,1-2.23,3.9C1.06,6.28.06,5.68.06,4.24A5,5,0,0,1,2.29.33Z" transform="translate(0 0)"></path><path class="cls-22" d="M2.29.34C3.52-.37,4.52.23,4.52,1.67A5,5,0,0,1,2.29,5.58C1.07,6.28.07,5.69.07,4.24A5,5,0,0,1,2.29.34Z" transform="translate(0 0)"></path><path class="cls-23" d="M2.3.34C3.53-.37,4.52.23,4.52,1.67A5,5,0,0,1,2.3,5.58C1.07,6.29.07,5.69.07,4.24A5,5,0,0,1,2.3.34Z" transform="translate(0 0)"></path><path class="cls-24" d="M2.3.34C3.53-.37,4.53.23,4.53,1.67A5,5,0,0,1,2.3,5.58C1.07,6.29.07,5.69.07,4.25A5,5,0,0,1,2.3.34Z" transform="translate(0 0)"></path><path class="cls-25" d="M2.3.34C3.53-.37,4.53.23,4.53,1.68A5,5,0,0,1,2.3,5.58C1.08,6.29.08,5.69.08,4.25A5,5,0,0,1,2.3.34Z" transform="translate(0 0)"></path><path class="cls-26" d="M2.31.34C3.54-.36,4.53.23,4.53,1.68a5,5,0,0,1-2.22,3.9C1.08,6.29.08,5.69.08,4.25A5,5,0,0,1,2.31.34Z" transform="translate(0 0)"></path><path class="cls-27" d="M2.31.35C3.54-.36,4.54.24,4.54,1.68A5,5,0,0,1,2.31,5.59C1.08,6.29.08,5.7.08,4.25A5,5,0,0,1,2.31.35Z" transform="translate(0 0)"></path><path class="cls-28" d="M2.31.35C3.54-.36,4.54.24,4.54,1.68A5,5,0,0,1,2.31,5.59C1.09,6.3.09,5.7.09,4.25A5,5,0,0,1,2.31.35Z" transform="translate(0 0)"></path><path class="cls-29" d="M2.32.35C3.55-.36,4.54.24,4.54,1.68A5,5,0,0,1,2.32,5.59C1.09,6.3.09,5.7.09,4.26A5,5,0,0,1,2.32.35Z" transform="translate(0 0)"></path><path class="cls-30" d="M2.32.35C3.55-.36,4.55.24,4.55,1.69a5,5,0,0,1-2.23,3.9C1.09,6.3.09,5.7.09,4.26A5,5,0,0,1,2.32.35Z" transform="translate(0 0)"></path><path class="cls-31" d="M2.32.35C3.55-.36,4.55.24,4.55,1.69a5,5,0,0,1-2.23,3.9C1.1,6.3.1,5.7.1,4.26A5,5,0,0,1,2.32.35Z" transform="translate(0 0)"></path><path class="cls-32" d="M2.33.36C3.56-.35,4.55.24,4.55,1.69A5,5,0,0,1,2.33,5.6C1.1,6.3.1,5.71.1,4.26A5,5,0,0,1,2.33.36Z" transform="translate(0 0)"></path><path class="cls-33" d="M2.33.36C3.56-.35,4.56.25,4.56,1.69A5,5,0,0,1,2.33,5.6C1.1,6.31.1,5.71.1,4.26A5,5,0,0,1,2.33.36Z" transform="translate(0 0)"></path><path class="cls-34" d="M2.33.36C3.56-.35,4.56.25,4.56,1.69A5,5,0,0,1,2.33,5.6C1.11,6.31.11,5.71.11,4.26A5,5,0,0,1,2.33.36Z" transform="translate(0 0)"></path><path class="cls-35" d="M2.34.36C3.57-.35,4.56.25,4.56,1.7A5,5,0,0,1,2.34,5.6C1.11,6.31.11,5.71.11,4.27A5,5,0,0,1,2.34.36Z" transform="translate(0 0)"></path><path class="cls-36" d="M2.34.36C3.57-.35,4.57.25,4.57,1.7A5,5,0,0,1,2.34,5.6C1.11,6.31.11,5.71.11,4.27A5,5,0,0,1,2.34.36Z" transform="translate(0 0)"></path><path class="cls-37" d="M2.34.36C3.57-.34,4.57.25,4.57,1.7A5,5,0,0,1,2.34,5.6C1.12,6.31.12,5.72.12,4.27A5,5,0,0,1,2.34.36Z" transform="translate(0 0)"></path><path class="cls-38" d="M2.35.37C3.58-.34,4.57.26,4.57,1.7A5,5,0,0,1,2.35,5.61C1.12,6.32.12,5.72.12,4.27A5,5,0,0,1,2.35.37Z" transform="translate(0 0)"></path><path class="cls-39" d="M2.35.37C3.58-.34,4.58.26,4.58,1.7A5,5,0,0,1,2.35,5.61C1.12,6.32.12,5.72.12,4.27A5,5,0,0,1,2.35.37Z" transform="translate(0 0)"></path><path class="cls-40" d="M2.35.37C3.58-.34,4.58.26,4.58,1.7A5,5,0,0,1,2.35,5.61C1.13,6.32.13,5.72.13,4.28A5,5,0,0,1,2.35.37Z" transform="translate(0 0)"></path><path class="cls-41" d="M2.36.37C3.59-.34,4.58.26,4.58,1.71a5,5,0,0,1-2.22,3.9C1.13,6.32.13,5.72.13,4.28A5,5,0,0,1,2.36.37Z" transform="translate(0 0)"></path><path class="cls-42" d="M2.36.37C3.59-.33,4.59.26,4.59,1.71a5,5,0,0,1-2.23,3.9C1.13,6.32.13,5.72.13,4.28A5,5,0,0,1,2.36.37Z" transform="translate(0 0)"></path><path class="cls-43" d="M2.36.38C3.59-.33,4.59.27,4.59,1.71A5,5,0,0,1,2.36,5.62C1.14,6.32.14,5.73.14,4.28A5,5,0,0,1,2.36.38Z" transform="translate(0 0)"></path><path class="cls-44" d="M2.37.38C3.6-.33,4.59.27,4.59,1.71A5,5,0,0,1,2.37,5.62C1.14,6.33.14,5.73.14,4.28A5,5,0,0,1,2.37.38Z" transform="translate(0 0)"></path><path class="cls-45" d="M2.37.38C3.6-.33,4.6.27,4.6,1.71A5,5,0,0,1,2.37,5.62C1.14,6.33.14,5.73.14,4.29A5,5,0,0,1,2.37.38Z" transform="translate(0 0)"></path><path class="cls-46" d="M2.37.38C3.6-.33,4.6.27,4.6,1.72a5,5,0,0,1-2.23,3.9C1.15,6.33.15,5.73.15,4.29A5,5,0,0,1,2.37.38Z" transform="translate(0 0)"></path><path class="cls-47" d="M2.38.38C3.61-.32,4.6.27,4.6,1.72a5,5,0,0,1-2.22,3.9C1.15,6.33.15,5.73.15,4.29A5,5,0,0,1,2.38.38Z" transform="translate(0 0)"></path><path class="cls-48" d="M2.38.39C3.61-.32,4.61.28,4.61,1.72A5,5,0,0,1,2.38,5.63C1.15,6.33.15,5.74.15,4.29A5,5,0,0,1,2.38.39Z" transform="translate(0 0)"></path><path class="cls-49" d="M2.38.39C3.61-.32,4.61.28,4.61,1.72A5,5,0,0,1,2.38,5.63C1.16,6.34.16,5.74.16,4.29A5,5,0,0,1,2.38.39Z" transform="translate(0 0)"></path><path class="cls-50" d="M2.39.39C3.62-.32,4.62.28,4.62,1.72A5,5,0,0,1,2.39,5.63C1.16,6.34.16,5.74.16,4.3A5,5,0,0,1,2.39.39Z" transform="translate(0 0)"></path><path class="cls-51" d="M2.39.39C3.62-.32,4.62.28,4.62,1.73a5,5,0,0,1-2.23,3.9C1.16,6.34.16,5.74.16,4.3A5,5,0,0,1,2.39.39Z" transform="translate(0 0)"></path><path class="cls-52" d="M2.39.39C3.62-.32,4.62.28,4.62,1.73a5,5,0,0,1-2.23,3.9C1.17,6.34.17,5.74.17,4.3A5,5,0,0,1,2.39.39Z" transform="translate(0 0)"></path><path class="cls-53" d="M2.4.4C3.63-.31,4.63.28,4.63,1.73A5,5,0,0,1,2.4,5.64C1.17,6.34.17,5.75.17,4.3A5,5,0,0,1,2.4.4Z" transform="translate(0 0)"></path><path class="cls-54" d="M2.4.4C3.63-.31,4.63.29,4.63,1.73A5,5,0,0,1,2.4,5.64C1.17,6.35.17,5.75.17,4.3A5,5,0,0,1,2.4.4Z" transform="translate(0 0)"></path><path class="cls-55" d="M2.4.4C3.63-.31,4.63.29,4.63,1.73A5,5,0,0,1,2.4,5.64C1.18,6.35.18,5.75.18,4.3A5,5,0,0,1,2.4.4Z" transform="translate(0 0)"></path><path class="cls-56" d="M2.41.4C3.64-.31,4.64.29,4.64,1.74a5,5,0,0,1-2.23,3.9C1.18,6.35.18,5.75.18,4.31A5,5,0,0,1,2.41.4Z" transform="translate(0 0)"></path><path class="cls-57" d="M2.41.4C3.64-.31,4.64.29,4.64,1.74a5,5,0,0,1-2.23,3.9C1.18,6.35.18,5.75.18,4.31A5,5,0,0,1,2.41.4Z" transform="translate(0 0)"></path><path class="cls-58" d="M2.42.4C3.64-.3,4.64.29,4.64,1.74a5,5,0,0,1-2.22,3.9C1.19,6.35.19,5.76.19,4.31A5,5,0,0,1,2.42.4Z" transform="translate(0 0)"></path><path class="cls-59" d="M2.42.41C3.65-.3,4.65.3,4.65,1.74A5,5,0,0,1,2.42,5.65C1.19,6.36.19,5.76.19,4.31A5,5,0,0,1,2.42.41Z" transform="translate(0 0)"></path><path class="cls-60" d="M2.42.41C3.65-.3,4.65.3,4.65,1.74A5,5,0,0,1,2.42,5.65C1.19,6.36.19,5.76.19,4.31A5,5,0,0,1,2.42.41Z" transform="translate(0 0)"></path><path class="cls-61" d="M2.43.41C3.65-.3,4.65.3,4.65,1.74A5,5,0,0,1,2.43,5.65C1.2,6.36.2,5.76.2,4.32A5,5,0,0,1,2.43.41Z" transform="translate(0 0)"></path><path class="cls-62" d="M2.43.41C3.66-.3,4.66.3,4.66,1.75a5,5,0,0,1-2.23,3.9C1.2,6.36.2,5.76.2,4.32A5,5,0,0,1,2.43.41Z" transform="translate(0 0)"></path><path class="cls-63" d="M2.43.41C3.66-.29,4.66.3,4.66,1.75a5,5,0,0,1-2.23,3.9C1.2,6.36.2,5.76.2,4.32A5,5,0,0,1,2.43.41Z" transform="translate(0 0)"></path><path class="cls-64" d="M2.44.42C3.66-.29,4.66.31,4.66,1.75A5,5,0,0,1,2.44,5.66C1.21,6.37.21,5.77.21,4.32A5,5,0,0,1,2.44.42Z" transform="translate(0 0)"></path><path class="cls-65" d="M2.44.42C3.67-.29,4.67.31,4.67,1.75A5,5,0,0,1,2.44,5.66C1.21,6.37.21,5.77.21,4.32A5,5,0,0,1,2.44.42Z" transform="translate(0 0)"></path><path class="cls-66" d="M2.44.42C3.67-.29,4.67.31,4.67,1.75A5,5,0,0,1,2.44,5.66C1.21,6.37.21,5.77.21,4.33A5,5,0,0,1,2.44.42Z" transform="translate(0 0)"></path><path class="cls-67" d="M2.45.42C3.67-.29,4.67.31,4.67,1.76a5,5,0,0,1-2.22,3.9C1.22,6.37.22,5.77.22,4.33A5,5,0,0,1,2.45.42Z" transform="translate(0 0)"></path><path class="cls-68" d="M2.45.42C3.68-.28,4.68.31,4.68,1.76a5,5,0,0,1-2.23,3.9C1.22,6.37.22,5.77.22,4.33A5,5,0,0,1,2.45.42Z" transform="translate(0 0)"></path><path class="cls-69" d="M2.45.43C3.68-.28,4.68.32,4.68,1.76A5,5,0,0,1,2.45,5.67C1.22,6.37.23,5.78.23,4.33A5,5,0,0,1,2.45.43Z" transform="translate(0 0)"></path><path class="cls-70" d="M2.46.43C3.68-.28,4.68.32,4.68,1.76A5,5,0,0,1,2.46,5.67C1.23,6.38.23,5.78.23,4.33A5,5,0,0,1,2.46.43Z" transform="translate(0 0)"></path><path class="cls-71" d="M2.46.43C3.69-.28,4.69.32,4.69,1.76A5,5,0,0,1,2.46,5.67C1.23,6.38.23,5.78.23,4.34A5,5,0,0,1,2.46.43Z" transform="translate(0 0)"></path><path class="cls-72" d="M2.46.43C3.69-.28,4.69.32,4.69,1.77a5,5,0,0,1-2.23,3.9C1.23,6.38.24,5.78.24,4.34A5,5,0,0,1,2.46.43Z" transform="translate(0 0)"></path><path class="cls-73" d="M2.47.43C3.69-.28,4.69.32,4.69,1.77a5,5,0,0,1-2.22,3.9C1.24,6.38.24,5.78.24,4.34A5,5,0,0,1,2.47.43Z" transform="translate(0 0)"></path><path class="cls-74" d="M2.47.44C3.7-.27,4.7.32,4.7,1.77A5,5,0,0,1,2.47,5.68C1.24,6.38.24,5.79.24,4.34A5,5,0,0,1,2.47.44Z" transform="translate(0 0)"></path><path class="cls-75" d="M2.47.44C3.7-.27,4.7.33,4.7,1.77A5,5,0,0,1,2.47,5.68C1.24,6.39.25,5.79.25,4.34A5,5,0,0,1,2.47.44Z" transform="translate(0 0)"></path><path class="cls-76" d="M2.48.44C3.7-.27,4.7.33,4.7,1.77A5,5,0,0,1,2.48,5.68C1.25,6.39.25,5.79.25,4.34A5,5,0,0,1,2.48.44Z" transform="translate(0 0)"></path><path class="cls-77" d="M2.48.44C3.71-.27,4.71.33,4.71,1.78a5,5,0,0,1-2.23,3.9C1.25,6.39.25,5.79.25,4.35A5,5,0,0,1,2.48.44Z" transform="translate(0 0)"></path><path class="cls-78" d="M2.48.44C3.71-.27,4.71.33,4.71,1.78a5,5,0,0,1-2.23,3.9C1.25,6.39.26,5.79.26,4.35A5,5,0,0,1,2.48.44Z" transform="translate(0 0)"></path><path class="cls-79" d="M2.49.45C3.71-.26,4.71.33,4.71,1.78a5,5,0,0,1-2.22,3.9C1.26,6.39.26,5.8.26,4.35A5,5,0,0,1,2.49.45Z" transform="translate(0 0)"></path><path class="cls-80" d="M2.49.45C3.72-.26,4.72.34,4.72,1.78A5,5,0,0,1,2.49,5.69C1.26,6.4.26,5.8.26,4.35A5,5,0,0,1,2.49.45Z" transform="translate(0 0)"></path><path class="cls-81" d="M2.49.45C3.72-.26,4.72.34,4.72,1.78A5,5,0,0,1,2.49,5.69C1.26,6.4.27,5.8.27,4.35A5,5,0,0,1,2.49.45Z" transform="translate(0 0)"></path><path class="cls-82" d="M2.5.45C3.72-.26,4.72.34,4.72,1.78A5,5,0,0,1,2.5,5.69C1.27,6.4.27,5.8.27,4.36A5,5,0,0,1,2.5.45Z" transform="translate(0 0)"></path><path class="cls-83" d="M2.5.45C3.73-.26,4.73.34,4.73,1.79A5,5,0,0,1,2.5,5.69C1.27,6.4.27,5.8.27,4.36A5,5,0,0,1,2.5.45Z" transform="translate(0 0)"></path><path class="cls-84" d="M2.5.45C3.73-.25,4.73.34,4.73,1.79A5,5,0,0,1,2.5,5.69C1.27,6.4.28,5.8.28,4.36A5,5,0,0,1,2.5.45Z" transform="translate(0 0)"></path><path class="cls-85" d="M2.51.46C3.73-.25,4.73.35,4.73,1.79A5,5,0,0,1,2.51,5.7C1.28,6.41.28,5.81.28,4.36A5,5,0,0,1,2.51.46Z" transform="translate(0 0)"></path><path class="cls-86" d="M2.51.46C3.74-.25,4.74.35,4.74,1.79A5,5,0,0,1,2.51,5.7C1.28,6.41.28,5.81.28,4.36A5,5,0,0,1,2.51.46Z" transform="translate(0 0)"></path><path class="cls-87" d="M2.51.46C3.74-.25,4.74.35,4.74,1.79A5,5,0,0,1,2.51,5.7C1.28,6.41.29,5.81.29,4.37A5,5,0,0,1,2.51.46Z" transform="translate(0 0)"></path><path class="cls-88" d="M2.52.46C3.74-.25,4.74.35,4.74,1.8A5,5,0,0,1,2.52,5.7C1.29,6.41.29,5.81.29,4.37A5,5,0,0,1,2.52.46Z" transform="translate(0 0)"></path><path class="cls-89" d="M2.52.46C3.75-.24,4.75.35,4.75,1.8A5,5,0,0,1,2.52,5.7C1.29,6.41.29,5.81.29,4.37A5,5,0,0,1,2.52.46Z" transform="translate(0 0)"></path><path class="cls-90" d="M2.52.47C3.75-.24,4.75.36,4.75,1.8A5,5,0,0,1,2.52,5.71C1.29,6.41.3,5.82.3,4.37A5,5,0,0,1,2.52.47Z" transform="translate(0 0)"></path><path class="cls-91" d="M2.53.47C3.75-.24,4.75.36,4.75,1.8A5,5,0,0,1,2.53,5.71C1.3,6.42.3,5.82.3,4.37A5,5,0,0,1,2.53.47Z" transform="translate(0 0)"></path><path class="cls-92" d="M2.53.47C3.76-.24,4.76.36,4.76,1.8A5,5,0,0,1,2.53,5.71C1.3,6.42.3,5.82.3,4.38A5,5,0,0,1,2.53.47Z" transform="translate(0 0)"></path><path class="cls-93" d="M2.53.47C3.76-.24,4.76.36,4.76,1.81a5,5,0,0,1-2.23,3.9C1.3,6.42.31,5.82.31,4.38A5,5,0,0,1,2.53.47Z" transform="translate(0 0)"></path><path class="cls-94" d="M2.54.47C3.76-.24,4.76.36,4.76,1.81a5,5,0,0,1-2.22,3.9C1.31,6.42.31,5.82.31,4.38A5,5,0,0,1,2.54.47Z" transform="translate(0 0)"></path><path class="cls-95" d="M2.54.48C3.77-.23,4.77.36,4.77,1.81A5,5,0,0,1,2.54,5.72C1.31,6.42.31,5.83.31,4.38A5,5,0,0,1,2.54.48Z" transform="translate(0 0)"></path><path class="cls-96" d="M2.54.48C3.77-.23,4.77.37,4.77,1.81A5,5,0,0,1,2.54,5.72C1.31,6.43.32,5.83.32,4.38A5,5,0,0,1,2.54.48Z" transform="translate(0 0)"></path><path class="cls-97" d="M2.55.48C3.77-.23,4.77.37,4.77,1.81A5,5,0,0,1,2.55,5.72C1.32,6.43.32,5.83.32,4.38A5,5,0,0,1,2.55.48Z" transform="translate(0 0)"></path><path class="cls-98" d="M2.55.48C3.78-.23,4.78.37,4.78,1.82a5,5,0,0,1-2.23,3.9C1.32,6.43.32,5.83.32,4.39A5,5,0,0,1,2.55.48Z" transform="translate(0 0)"></path><path class="cls-99" d="M2.55.48C3.78-.23,4.78.37,4.78,1.82a5,5,0,0,1-2.23,3.9C1.32,6.43.33,5.83.33,4.39A5,5,0,0,1,2.55.48Z" transform="translate(0 0)"></path><path class="cls-100" d="M2.56.49C3.78-.22,4.78.37,4.78,1.82a5,5,0,0,1-2.22,3.9C1.33,6.43.33,5.84.33,4.39A5,5,0,0,1,2.56.49Z" transform="translate(0 0)"></path><path class="cls-101" d="M2.56.49C3.79-.22,4.79.38,4.79,1.82A5,5,0,0,1,2.56,5.73C1.33,6.44.33,5.84.33,4.39A5,5,0,0,1,2.56.49Z" transform="translate(0 0)"></path><path class="cls-102" d="M2.56.49C3.79-.22,4.79.38,4.79,1.82A5,5,0,0,1,2.56,5.73C1.33,6.44.34,5.84.34,4.39A5,5,0,0,1,2.56.49Z" transform="translate(0 0)"></path><path class="cls-103" d="M2.57.49C3.79-.22,4.79.38,4.79,1.82A5,5,0,0,1,2.57,5.73C1.34,6.44.34,5.84.34,4.4A5,5,0,0,1,2.57.49Z" transform="translate(0 0)"></path><path class="cls-104" d="M2.57.49C3.8-.22,4.8.38,4.8,1.83a5,5,0,0,1-2.23,3.9C1.34,6.44.34,5.84.34,4.4A5,5,0,0,1,2.57.49Z" transform="translate(0 0)"></path><path class="cls-105" d="M2.57.49C3.8-.21,4.8.38,4.8,1.83a5,5,0,0,1-2.23,3.9C1.34,6.44.35,5.84.35,4.4A5,5,0,0,1,2.57.49Z" transform="translate(0 0)"></path><path class="cls-106" d="M2.58.5C3.8-.21,4.8.39,4.8,1.83A5,5,0,0,1,2.58,5.74C1.35,6.45.35,5.85.35,4.4A5,5,0,0,1,2.58.5Z" transform="translate(0 0)"></path><path class="cls-107" d="M2.58.5C3.81-.21,4.81.39,4.81,1.83A5,5,0,0,1,2.58,5.74C1.35,6.45.35,5.85.35,4.4A5,5,0,0,1,2.58.5Z" transform="translate(0 0)"></path><path class="cls-108" d="M2.58.5C3.81-.21,4.81.39,4.81,1.83A5,5,0,0,1,2.58,5.74C1.36,6.45.36,5.85.36,4.41A5,5,0,0,1,2.58.5Z" transform="translate(0 0)"></path><path class="cls-109" d="M2.59.5C3.81-.21,4.81.39,4.81,1.84a5,5,0,0,1-2.22,3.9C1.36,6.45.36,5.85.36,4.41A5,5,0,0,1,2.59.5Z" transform="translate(0 0)"></path><path class="cls-110" d="M2.59.5C3.82-.2,4.82.39,4.82,1.84a5,5,0,0,1-2.23,3.9C1.36,6.45.36,5.85.36,4.41A5,5,0,0,1,2.59.5Z" transform="translate(0 0)"></path><path class="cls-111" d="M2.59.51C3.82-.2,4.82.4,4.82,1.84A5,5,0,0,1,2.59,5.75C1.37,6.45.37,5.86.37,4.41A5,5,0,0,1,2.59.51Z" transform="translate(0 0)"></path><path class="cls-112" d="M2.6.51C3.82-.2,4.82.4,4.82,1.84A5,5,0,0,1,2.6,5.75C1.37,6.46.37,5.86.37,4.41A5,5,0,0,1,2.6.51Z" transform="translate(0 0)"></path><path class="cls-113" d="M2.6.51C3.83-.2,4.83.4,4.83,1.84A5,5,0,0,1,2.6,5.75C1.37,6.46.37,5.86.37,4.42A5,5,0,0,1,2.6.51Z" transform="translate(0 0)"></path><path class="cls-114" d="M2.6.51C3.83-.2,4.83.4,4.83,1.85A5,5,0,0,1,2.6,5.75C1.38,6.46.38,5.86.38,4.42A5,5,0,0,1,2.6.51Z" transform="translate(0 0)"></path><path class="cls-115" d="M2.61.51C3.83-.2,4.83.4,4.83,1.85a5,5,0,0,1-2.22,3.9C1.38,6.46.38,5.86.38,4.42A5,5,0,0,1,2.61.51Z" transform="translate(0 0)"></path><path class="cls-116" d="M2.61.52C3.84-.19,4.84.4,4.84,1.85A5,5,0,0,1,2.61,5.76C1.38,6.46.38,5.87.38,4.42A5,5,0,0,1,2.61.52Z" transform="translate(0 0)"></path><path class="cls-117" d="M2.61.52C3.84-.19,4.84.41,4.84,1.85A5,5,0,0,1,2.61,5.76C1.39,6.47.39,5.87.39,4.42A5,5,0,0,1,2.61.52Z" transform="translate(0 0)"></path><path class="cls-118" d="M2.62.52C3.84-.19,4.84.41,4.84,1.85A5,5,0,0,1,2.62,5.76C1.39,6.47.39,5.87.39,4.42A5,5,0,0,1,2.62.52Z" transform="translate(0 0)"></path><path class="cls-119" d="M2.62.52C3.85-.19,4.85.41,4.85,1.86a5,5,0,0,1-2.23,3.9C1.39,6.47.39,5.87.39,4.43A5,5,0,0,1,2.62.52Z" transform="translate(0 0)"></path><path class="cls-120" d="M2.62.52C3.85-.19,4.85.41,4.85,1.86a5,5,0,0,1-2.23,3.9C1.4,6.47.4,5.87.4,4.43A5,5,0,0,1,2.62.52Z" transform="translate(0 0)"></path><path class="cls-121" d="M2.63.53C3.85-.18,4.85.41,4.85,1.86a5,5,0,0,1-2.22,3.9C1.4,6.47.4,5.88.4,4.43A5,5,0,0,1,2.63.53Z" transform="translate(0 0)"></path><path class="cls-122" d="M2.63.53C3.86-.18,4.86.42,4.86,1.86A5,5,0,0,1,2.63,5.77C1.4,6.48.4,5.88.4,4.43A5,5,0,0,1,2.63.53Z" transform="translate(0 0)"></path><path class="cls-123" d="M2.63.53C3.86-.18,4.86.42,4.86,1.86A5,5,0,0,1,2.63,5.77C1.41,6.48.41,5.88.41,4.43A5,5,0,0,1,2.63.53Z" transform="translate(0 0)"></path><path class="cls-124" d="M2.64.53C3.86-.18,4.86.42,4.86,1.86A5,5,0,0,1,2.64,5.77C1.41,6.48.41,5.88.41,4.44A5,5,0,0,1,2.64.53Z" transform="translate(0 0)"></path><path class="cls-125" d="M2.64.53C3.87-.18,4.87.42,4.87,1.87a5,5,0,0,1-2.23,3.9C1.41,6.48.41,5.88.41,4.44A5,5,0,0,1,2.64.53Z" transform="translate(0 0)"></path><path class="cls-126" d="M2.64.53C3.87-.17,4.87.42,4.87,1.87a5,5,0,0,1-2.23,3.9C1.42,6.48.42,5.88.42,4.44A5,5,0,0,1,2.64.53Z" transform="translate(0 0)"></path><path class="cls-127" d="M2.65.54C3.87-.17,4.87.43,4.87,1.87A5,5,0,0,1,2.65,5.78C1.42,6.49.42,5.89.42,4.44A5,5,0,0,1,2.65.54Z" transform="translate(0 0)"></path><path class="cls-128" d="M2.65.54C3.88-.17,4.88.43,4.88,1.87A5,5,0,0,1,2.65,5.78C1.42,6.49.42,5.89.42,4.44A5,5,0,0,1,2.65.54Z" transform="translate(0 0)"></path><path class="cls-129" d="M2.65.54C3.88-.17,4.88.43,4.88,1.87A5,5,0,0,1,2.65,5.78C1.43,6.49.43,5.89.43,4.45A5,5,0,0,1,2.65.54Z" transform="translate(0 0)"></path><path class="cls-130" d="M2.66.54C3.88-.17,4.88.43,4.88,1.88a5,5,0,0,1-2.22,3.9C1.43,6.49.43,5.89.43,4.45A5,5,0,0,1,2.66.54Z" transform="translate(0 0)"></path><path class="cls-131" d="M2.66.54C3.89-.16,4.89.43,4.89,1.88a5,5,0,0,1-2.23,3.9C1.43,6.49.43,5.89.43,4.45A5,5,0,0,1,2.66.54Z" transform="translate(0 0)"></path><path class="cls-132" d="M2.66.55C3.89-.16,4.89.44,4.89,1.88A5,5,0,0,1,2.66,5.79C1.44,6.49.44,5.9.44,4.45A5,5,0,0,1,2.66.55Z" transform="translate(0 0)"></path><path class="cls-133" d="M2.67.55C3.89-.16,4.89.44,4.89,1.88A5,5,0,0,1,2.67,5.79C1.44,6.5.44,5.9.44,4.45A5,5,0,0,1,2.67.55Z" transform="translate(0 0)"></path><path class="cls-134" d="M2.67.55C3.9-.16,4.9.44,4.9,1.88A5,5,0,0,1,2.67,5.79C1.44,6.5.44,5.9.44,4.46A5,5,0,0,1,2.67.55Z" transform="translate(0 0)"></path><path class="cls-135" d="M2.67.55C3.9-.16,4.9.44,4.9,1.89a5,5,0,0,1-2.23,3.9C1.45,6.5.45,5.9.45,4.46A5,5,0,0,1,2.67.55Z" transform="translate(0 0)"></path><path class="cls-136" d="M2.68.55C3.9-.16,4.9.44,4.9,1.89a5,5,0,0,1-2.22,3.9C1.45,6.5.45,5.9.45,4.46A5,5,0,0,1,2.68.55Z" transform="translate(0 0)"></path><path class="cls-137" d="M2.68.56C3.91-.15,4.91.44,4.91,1.89A5,5,0,0,1,2.68,5.8C1.45,6.5.45,5.91.45,4.46A5,5,0,0,1,2.68.56Z" transform="translate(0 0)"></path><path class="cls-138" d="M2.68.56C3.91-.15,4.91.45,4.91,1.89A5,5,0,0,1,2.68,5.8C1.46,6.51.46,5.91.46,4.46A5,5,0,0,1,2.68.56Z" transform="translate(0 0)"></path><path class="cls-139" d="M2.69.56C3.92-.15,4.91.45,4.91,1.89A5,5,0,0,1,2.69,5.8C1.46,6.51.46,5.91.46,4.46A5,5,0,0,1,2.69.56Z" transform="translate(0 0)"></path><path class="cls-140" d="M2.69.56C3.92-.15,4.92.45,4.92,1.9A5,5,0,0,1,2.69,5.8C1.46,6.51.46,5.91.46,4.47A5,5,0,0,1,2.69.56Z" transform="translate(0 0)"></path><path class="cls-141" d="M2.69.56C3.92-.15,4.92.45,4.92,1.9A5,5,0,0,1,2.69,5.8C1.47,6.51.47,5.91.47,4.47A5,5,0,0,1,2.69.56Z" transform="translate(0 0)"></path><path class="cls-142" d="M2.7.57C3.93-.14,4.92.45,4.92,1.9A5,5,0,0,1,2.7,5.8C1.47,6.51.47,5.92.47,4.47A5,5,0,0,1,2.7.57Z" transform="translate(0 0)"></path><path class="cls-143" d="M2.7.57C3.93-.14,4.93.46,4.93,1.9A5,5,0,0,1,2.7,5.81C1.47,6.52.47,5.92.47,4.47A5,5,0,0,1,2.7.57Z" transform="translate(0 0)"></path><path class="cls-144" d="M2.7.57C3.93-.14,4.93.46,4.93,1.9A5,5,0,0,1,2.7,5.81C1.48,6.52.48,5.92.48,4.47A5,5,0,0,1,2.7.57Z" transform="translate(0 0)"></path><path class="cls-145" d="M2.71.57C3.94-.14,4.93.46,4.93,1.9A5,5,0,0,1,2.71,5.81C1.48,6.52.48,5.92.48,4.48A5,5,0,0,1,2.71.57Z" transform="translate(0 0)"></path><path class="cls-146" d="M2.71.57C3.94-.14,4.94.46,4.94,1.91a5,5,0,0,1-2.23,3.9C1.48,6.52.48,5.92.48,4.48A5,5,0,0,1,2.71.57Z" transform="translate(0 0)"></path><path class="cls-147" d="M2.71.57C3.94-.13,4.94.46,4.94,1.91a5,5,0,0,1-2.23,3.9C1.49,6.52.49,5.92.49,4.48A5,5,0,0,1,2.71.57Z" transform="translate(0 0)"></path><path class="cls-148" d="M2.72.58C4-.13,4.94.47,4.94,1.91A5,5,0,0,1,2.72,5.82C1.49,6.53.49,5.93.49,4.48A5,5,0,0,1,2.72.58Z" transform="translate(0 0)"></path><path class="cls-149" d="M2.72.58C4-.13,5,.47,5,1.91A5,5,0,0,1,2.72,5.82C1.49,6.53.49,5.93.49,4.48A5,5,0,0,1,2.72.58Z" transform="translate(0 0)"></path><path class="cls-150" d="M2.72.58C4-.13,5,.47,5,1.91A5,5,0,0,1,2.72,5.82C1.5,6.53.5,5.93.5,4.49A5,5,0,0,1,2.72.58Z" transform="translate(0 0)"></path><path class="cls-151" d="M2.73.58C4-.13,5,.47,5,1.92a5,5,0,0,1-2.22,3.9C1.5,6.53.5,5.93.5,4.49A5,5,0,0,1,2.73.58Z" transform="translate(0 0)"></path><path class="cls-152" d="M2.73.58C4-.12,5,.47,5,1.92a5,5,0,0,1-2.23,3.9C1.5,6.53.5,5.93.5,4.49A5,5,0,0,1,2.73.58Z" transform="translate(0 0)"></path><path class="cls-153" d="M2.73.59C4-.12,5,.48,5,1.92A5,5,0,0,1,2.73,5.83C1.51,6.53.51,5.94.51,4.49A5,5,0,0,1,2.73.59Z" transform="translate(0 0)"></path><path class="cls-154" d="M2.74.59C4-.12,5,.48,5,1.92A5,5,0,0,1,2.74,5.83C1.51,6.54.51,5.94.51,4.49A5,5,0,0,1,2.74.59Z" transform="translate(0 0)"></path><path class="cls-155" d="M2.74.59C4-.12,5,.48,5,1.92A5,5,0,0,1,2.74,5.83C1.51,6.54.51,5.94.51,4.5A5,5,0,0,1,2.74.59Z" transform="translate(0 0)"></path><path class="cls-156" d="M2.74.59C4-.12,5,.48,5,1.93a5,5,0,0,1-2.23,3.9C1.52,6.54.52,5.94.52,4.5A5,5,0,0,1,2.74.59Z" transform="translate(0 0)"></path><path class="cls-157" d="M2.75.59C4-.12,5,.48,5,1.93a5,5,0,0,1-2.22,3.9C1.52,6.54.52,5.94.52,4.5A5,5,0,0,1,2.75.59Z" transform="translate(0 0)"></path><path class="cls-158" d="M2.75.6C4-.11,5,.48,5,1.93A5,5,0,0,1,2.75,5.84C1.52,6.54.52,6,.52,4.5A5,5,0,0,1,2.75.6Z" transform="translate(0 0)"></path><path class="cls-159" d="M2.75.6C4-.11,5,.49,5,1.93A5,5,0,0,1,2.75,5.84C1.53,6.55.53,6,.53,4.5A5,5,0,0,1,2.75.6Z" transform="translate(0 0)"></path><path class="cls-160" d="M2.76.6C4-.11,5,.49,5,1.93A5,5,0,0,1,2.76,5.84C1.53,6.55.53,6,.53,4.5A5,5,0,0,1,2.76.6Z" transform="translate(0 0)"></path><path class="cls-161" d="M2.76.6C4-.11,5,.49,5,1.94a5,5,0,0,1-2.23,3.9C1.53,6.55.53,6,.53,4.51A5,5,0,0,1,2.76.6Z" transform="translate(0 0)"></path><path class="cls-162" d="M2.76.6C4-.11,5,.49,5,1.94a5,5,0,0,1-2.23,3.9C1.54,6.55.54,6,.54,4.51A5,5,0,0,1,2.76.6Z" transform="translate(0 0)"></path><path class="cls-163" d="M2.77.61C4-.1,5,.49,5,1.94a5,5,0,0,1-2.22,3.9C1.54,6.55.54,6,.54,4.51A5,5,0,0,1,2.77.61Z" transform="translate(0 0)"></path><path class="cls-164" d="M2.77.61C4-.1,5,.5,5,1.94A5,5,0,0,1,2.77,5.85C1.54,6.56.54,6,.54,4.51A5,5,0,0,1,2.77.61Z" transform="translate(0 0)"></path><path class="cls-165" d="M2.77.61C4-.1,5,.5,5,1.94A5,5,0,0,1,2.77,5.85C1.55,6.56.55,6,.55,4.51A5,5,0,0,1,2.77.61Z" transform="translate(0 0)"></path><path class="cls-166" d="M2.78.61C4-.1,5,.5,5,1.94A5,5,0,0,1,2.78,5.85C1.55,6.56.55,6,.55,4.52A5,5,0,0,1,2.78.61Z" transform="translate(0 0)"></path><path class="cls-167" d="M2.78.61C4-.1,5,.5,5,2a5,5,0,0,1-2.23,3.9C1.55,6.56.55,6,.55,4.52A5,5,0,0,1,2.78.61Z" transform="translate(0 0)"></path><path class="cls-168" d="M2.78.61C4-.09,5,.5,5,2a5,5,0,0,1-2.23,3.9C1.56,6.56.56,6,.56,4.52A5,5,0,0,1,2.78.61Z" transform="translate(0 0)"></path><path class="cls-169" d="M2.79.62C4-.09,5,.51,5,2A5,5,0,0,1,2.79,5.86C1.56,6.57.56,6,.56,4.52A5,5,0,0,1,2.79.62Z" transform="translate(0 0)"></path><path class="cls-170" d="M2.79.62C4-.09,5,.51,5,2A5,5,0,0,1,2.79,5.86C1.56,6.57.56,6,.56,4.52A5,5,0,0,1,2.79.62Z" transform="translate(0 0)"></path><path class="cls-171" d="M2.79.62C4-.09,5,.51,5,2A5,5,0,0,1,2.79,5.86C1.57,6.57.57,6,.57,4.53A5,5,0,0,1,2.79.62Z" transform="translate(0 0)"></path><path class="cls-172" d="M2.8.62C4-.09,5,.51,5,2A5,5,0,0,1,2.8,5.86C1.57,6.57.57,6,.57,4.53A5,5,0,0,1,2.8.62Z" transform="translate(0 0)"></path><path class="cls-173" d="M2.8.62C4-.08,5,.51,5,2A5,5,0,0,1,2.8,5.86C1.57,6.57.57,6,.57,4.53A5,5,0,0,1,2.8.62Z" transform="translate(0 0)"></path><path class="cls-174" d="M2.8.63C4-.08,5,.52,5,2A5,5,0,0,1,2.8,5.87C1.58,6.57.58,6,.58,4.53A5,5,0,0,1,2.8.63Z" transform="translate(0 0)"></path><path class="cls-175" d="M2.81.63C4-.08,5,.52,5,2A5,5,0,0,1,2.81,5.87C1.58,6.58.58,6,.58,4.53A5,5,0,0,1,2.81.63Z" transform="translate(0 0)"></path><path class="cls-176" d="M2.81.63C4-.08,5,.52,5,2A5,5,0,0,1,2.81,5.87C1.58,6.58.58,6,.58,4.54A5,5,0,0,1,2.81.63Z" transform="translate(0 0)"></path><path class="cls-177" d="M2.81.63C4-.08,5,.52,5,2a5,5,0,0,1-2.23,3.9C1.59,6.58.59,6,.59,4.54A5,5,0,0,1,2.81.63Z" transform="translate(0 0)"></path><path class="cls-178" d="M2.82.63C4.05-.08,5.05.52,5.05,2a5,5,0,0,1-2.23,3.9C1.59,6.58.59,6,.59,4.54A5,5,0,0,1,2.82.63Z" transform="translate(0 0)"></path><path class="cls-179" d="M2.82.64C4.05-.07,5.05.53,5.05,2A5,5,0,0,1,2.82,5.88C1.59,6.58.59,6,.59,4.54A5,5,0,0,1,2.82.64Z" transform="translate(0 0)"></path><path class="cls-180" d="M2.82.64C4.05-.07,5.05.53,5.05,2A5,5,0,0,1,2.82,5.88C1.6,6.59.6,6,.6,4.54A5,5,0,0,1,2.82.64Z" transform="translate(0 0)"></path><path class="cls-181" d="M2.83.64C4.06-.07,5.06.53,5.06,2A5,5,0,0,1,2.83,5.88C1.6,6.59.6,6,.6,4.54A5,5,0,0,1,2.83.64Z" transform="translate(0 0)"></path><path class="cls-182" d="M2.83.64C4.06-.07,5.06.53,5.06,2a5,5,0,0,1-2.23,3.9C1.6,6.59.6,6,.6,4.55A5,5,0,0,1,2.83.64Z" transform="translate(0 0)"></path><path class="cls-183" d="M2.83.64C4.06-.07,5.06.53,5.06,2a5,5,0,0,1-2.23,3.9C1.61,6.59.61,6,.61,4.55A5,5,0,0,1,2.83.64Z" transform="translate(0 0)"></path><path class="cls-184" d="M2.84.65C4.07-.06,5.07.53,5.07,2a5,5,0,0,1-2.23,3.9C1.61,6.59.61,6,.61,4.55A5,5,0,0,1,2.84.65Z" transform="translate(0 0)"></path><path class="cls-185" d="M2.84.65C4.07-.06,5.07.54,5.07,2A5,5,0,0,1,2.84,5.89C1.61,6.6.61,6,.61,4.55A5,5,0,0,1,2.84.65Z" transform="translate(0 0)"></path><path class="cls-186" d="M2.84.65C4.07-.06,5.07.54,5.07,2A5,5,0,0,1,2.84,5.89C1.62,6.6.62,6,.62,4.55A5,5,0,0,1,2.84.65Z" transform="translate(0 0)"></path><path class="cls-187" d="M2.85.65C4.08-.06,5.08.54,5.08,2A5,5,0,0,1,2.85,5.89C1.62,6.6.62,6,.62,4.56A5,5,0,0,1,2.85.65Z" transform="translate(0 0)"></path><path class="cls-188" d="M2.85.65C4.08-.06,5.08.54,5.08,2a5,5,0,0,1-2.23,3.9C1.62,6.6.62,6,.62,4.56A5,5,0,0,1,2.85.65Z" transform="translate(0 0)"></path><path class="cls-189" d="M2.86.65C4.08,0,5.08.54,5.08,2a5,5,0,0,1-2.22,3.9C1.63,6.6.63,6,.63,4.56A5,5,0,0,1,2.86.65Z" transform="translate(0 0)"></path><path class="cls-190" d="M2.86.66C4.09,0,5.09.55,5.09,2A5,5,0,0,1,2.86,5.9C1.63,6.61.63,6,.63,4.56A5,5,0,0,1,2.86.66Z" transform="translate(0 0)"></path><path class="cls-191" d="M2.86.66C4.09,0,5.09.55,5.09,2A5,5,0,0,1,2.86,5.9C1.63,6.61.63,6,.63,4.56A5,5,0,0,1,2.86.66Z" transform="translate(0 0)"></path><path class="cls-192" d="M2.87.66C4.09,0,5.09.55,5.09,2A5,5,0,0,1,2.87,5.9C1.64,6.61.64,6,.64,4.57A5,5,0,0,1,2.87.66Z" transform="translate(0 0)"></path><path class="cls-193" d="M2.87.66C4.1,0,5.1.55,5.1,2A5,5,0,0,1,2.87,5.9C1.64,6.61.64,6,.64,4.57A5,5,0,0,1,2.87.66Z" transform="translate(0 0)"></path><path class="cls-194" d="M2.87.66C4.1,0,5.1.55,5.1,2A5,5,0,0,1,2.87,5.9C1.64,6.61.64,6,.64,4.57A5,5,0,0,1,2.87.66Z" transform="translate(0 0)"></path><path class="cls-195" d="M2.88.67C4.1,0,5.1.56,5.1,2A5,5,0,0,1,2.88,5.91C1.65,6.61.65,6,.65,4.57A5,5,0,0,1,2.88.67Z" transform="translate(0 0)"></path><path class="cls-196" d="M2.88.67C4.11,0,5.11.56,5.11,2A5,5,0,0,1,2.88,5.91C1.65,6.62.65,6,.65,4.57A5,5,0,0,1,2.88.67Z" transform="translate(0 0)"></path><path class="cls-197" d="M2.88.67C4.11,0,5.11.56,5.11,2A5,5,0,0,1,2.88,5.91C1.65,6.62.65,6,.65,4.58A5,5,0,0,1,2.88.67Z" transform="translate(0 0)"></path><path class="cls-198" d="M2.89.67C4.11,0,5.11.56,5.11,2a5,5,0,0,1-2.22,3.9C1.66,6.62.66,6,.66,4.58A5,5,0,0,1,2.89.67Z" transform="translate(0 0)"></path><path class="cls-199" d="M2.89.67C4.12,0,5.12.56,5.12,2a5,5,0,0,1-2.23,3.9C1.66,6.62.66,6,.66,4.58A5,5,0,0,1,2.89.67Z" transform="translate(0 0)"></path><path class="cls-200" d="M2.89.68C4.12,0,5.12.57,5.12,2A5,5,0,0,1,2.89,5.92C1.66,6.62.67,6,.67,4.58A5,5,0,0,1,2.89.68Z" transform="translate(0 0)"></path><path class="cls-201" d="M2.9.68C4.12,0,5.12.57,5.12,2A5,5,0,0,1,2.9,5.92C1.67,6.63.67,6,.67,4.58A5,5,0,0,1,2.9.68Z" transform="translate(0 0)"></path><path class="cls-202" d="M2.9.68C4.13,0,5.13.57,5.13,2A5,5,0,0,1,2.9,5.92C1.67,6.63.67,6,.67,4.58A5,5,0,0,1,2.9.68Z" transform="translate(0 0)"></path><path class="cls-203" d="M2.9.68C4.13,0,5.13.57,5.13,2A5,5,0,0,1,2.9,5.92C1.67,6.63.68,6,.68,4.59A5,5,0,0,1,2.9.68Z" transform="translate(0 0)"></path><path class="cls-204" d="M2.91.68C4.13,0,5.13.57,5.13,2a5,5,0,0,1-2.22,3.9C1.68,6.63.68,6,.68,4.59A5,5,0,0,1,2.91.68Z" transform="translate(0 0)"></path><path class="cls-205" d="M2.91.69C4.14,0,5.14.57,5.14,2a5,5,0,0,1-2.23,3.9C1.68,6.63.68,6,.68,4.59A5,5,0,0,1,2.91.69Z" transform="translate(0 0)"></path><path class="cls-206" d="M2.91.69C4.14,0,5.14.58,5.14,2A5,5,0,0,1,2.91,5.93C1.68,6.64.69,6,.69,4.59A5,5,0,0,1,2.91.69Z" transform="translate(0 0)"></path><path class="cls-207" d="M2.92.69C4.14,0,5.14.58,5.14,2A5,5,0,0,1,2.92,5.93C1.69,6.64.69,6,.69,4.59A5,5,0,0,1,2.92.69Z" transform="translate(0 0)"></path><path class="cls-208" d="M2.92.69C4.15,0,5.15.58,5.15,2A5,5,0,0,1,2.92,5.93C1.69,6.64.69,6,.69,4.6A5,5,0,0,1,2.92.69Z" transform="translate(0 0)"></path><path class="cls-209" d="M2.92.69C4.15,0,5.15.58,5.15,2a5,5,0,0,1-2.23,3.9C1.69,6.64.7,6,.7,4.6A5,5,0,0,1,2.92.69Z" transform="translate(0 0)"></path><path class="cls-210" d="M2.93.69C4.15,0,5.15.58,5.15,2a5,5,0,0,1-2.22,3.9C1.7,6.64.7,6,.7,4.6A5,5,0,0,1,2.93.69Z" transform="translate(0 0)"></path><path class="cls-211" d="M2.93.7C4.16,0,5.16.59,5.16,2A5,5,0,0,1,2.93,5.94C1.7,6.65.7,6.05.7,4.6A5,5,0,0,1,2.93.7Z" transform="translate(0 0)"></path><path class="cls-212" d="M2.93.7C4.16,0,5.16.59,5.16,2A5,5,0,0,1,2.93,5.94C1.7,6.65.71,6.05.71,4.6A5,5,0,0,1,2.93.7Z" transform="translate(0 0)"></path><path class="cls-213" d="M2.94.7C4.16,0,5.16.59,5.16,2A5,5,0,0,1,2.94,5.94C1.71,6.65.71,6.05.71,4.61A5,5,0,0,1,2.94.7Z" transform="translate(0 0)"></path><path class="cls-214" d="M2.94.7C4.17,0,5.17.59,5.17,2a5,5,0,0,1-2.23,3.9C1.71,6.65.71,6.05.71,4.61A5,5,0,0,1,2.94.7Z" transform="translate(0 0)"></path><path class="cls-215" d="M2.94.7C4.17,0,5.17.59,5.17,2a5,5,0,0,1-2.23,3.9C1.71,6.65.72,6.05.72,4.61A5,5,0,0,1,2.94.7Z" transform="translate(0 0)"></path><path class="cls-216" d="M3,.71C4.17,0,5.17.6,5.17,2A5,5,0,0,1,3,6C1.72,6.65.72,6.06.72,4.61A5,5,0,0,1,3,.71Z" transform="translate(0 0)"></path><path class="cls-217" d="M3,.71C4.18,0,5.18.6,5.18,2A5,5,0,0,1,3,6C1.72,6.66.72,6.06.72,4.61A5,5,0,0,1,3,.71Z" transform="translate(0 0)"></path><path class="cls-218" d="M3,.71C4.18,0,5.18.6,5.18,2A5,5,0,0,1,3,6C1.72,6.66.73,6.06.73,4.62A5,5,0,0,1,3,.71Z" transform="translate(0 0)"></path><path class="cls-219" d="M3,.71C4.18,0,5.18.6,5.18,2.05A5,5,0,0,1,3,6C1.73,6.66.73,6.06.73,4.62A5,5,0,0,1,3,.71Z" transform="translate(0 0)"></path><path class="cls-220" d="M3,.71C4.19,0,5.19.6,5.19,2.05A5,5,0,0,1,3,6C1.73,6.66.73,6.06.73,4.62A5,5,0,0,1,3,.71Z" transform="translate(0 0)"></path><path class="cls-221" d="M3,.72C4.19,0,5.19.61,5.19,2.05A5,5,0,0,1,3,6C1.73,6.66.74,6.07.74,4.62A5,5,0,0,1,3,.72Z" transform="translate(0 0)"></path><path class="cls-222" d="M3,.72C4.19,0,5.19.61,5.19,2.05A5,5,0,0,1,3,6C1.74,6.67.74,6.07.74,4.62A5,5,0,0,1,3,.72Z" transform="translate(0 0)"></path><path class="cls-223" d="M3,.72C4.2,0,5.2.61,5.2,2.05A5,5,0,0,1,3,6C1.74,6.67.74,6.07.74,4.62A5,5,0,0,1,3,.72Z" transform="translate(0 0)"></path><path class="cls-224" d="M3,.72C4.2,0,5.2.61,5.2,2.06A5,5,0,0,1,3,6C1.74,6.67.75,6.07.75,4.63A5,5,0,0,1,3,.72Z" transform="translate(0 0)"></path><path class="cls-225" d="M3,.72C4.2,0,5.2.61,5.2,2.06A5,5,0,0,1,3,6C1.75,6.67.75,6.07.75,4.63A5,5,0,0,1,3,.72Z" transform="translate(0 0)"></path><path class="cls-226" d="M3,.73C4.21,0,5.21.61,5.21,2.06A5,5,0,0,1,3,6C1.75,6.67.75,6.08.75,4.63A5,5,0,0,1,3,.73Z" transform="translate(0 0)"></path><path class="cls-227" d="M3,.73C4.21,0,5.21.62,5.21,2.06A5,5,0,0,1,3,6C1.75,6.68.76,6.08.76,4.63A5,5,0,0,1,3,.73Z" transform="translate(0 0)"></path><path class="cls-228" d="M3,.73C4.21,0,5.21.62,5.21,2.06A5,5,0,0,1,3,6C1.76,6.68.76,6.08.76,4.63A5,5,0,0,1,3,.73Z" transform="translate(0 0)"></path><path class="cls-229" d="M3,.73C4.22,0,5.22.62,5.22,2.06A5,5,0,0,1,3,6C1.76,6.68.76,6.08.76,4.64A5,5,0,0,1,3,.73Z" transform="translate(0 0)"></path><path class="cls-230" d="M3,.73C4.22,0,5.22.62,5.22,2.07A5,5,0,0,1,3,6C1.76,6.68.77,6.08.77,4.64A5,5,0,0,1,3,.73Z" transform="translate(0 0)"></path><path class="cls-231" d="M3,.73C4.22,0,5.22.62,5.22,2.07A5,5,0,0,1,3,6C1.77,6.68.77,6.08.77,4.64A5,5,0,0,1,3,.73Z" transform="translate(0 0)"></path><path class="cls-232" d="M3,.74C4.23,0,5.23.63,5.23,2.07A5,5,0,0,1,3,6C1.77,6.69.77,6.09.77,4.64A5,5,0,0,1,3,.74Z" transform="translate(0 0)"></path><path class="cls-233" d="M3,.74C4.23,0,5.23.63,5.23,2.07A5,5,0,0,1,3,6C1.77,6.69.78,6.09.78,4.64A5,5,0,0,1,3,.74Z" transform="translate(0 0)"></path><path class="cls-234" d="M3,.74C4.23,0,5.23.63,5.23,2.07A5,5,0,0,1,3,6C1.78,6.69.78,6.09.78,4.65A5,5,0,0,1,3,.74Z" transform="translate(0 0)"></path><path class="cls-235" d="M3,.74C4.24,0,5.24.63,5.24,2.08A5,5,0,0,1,3,6C1.78,6.69.78,6.09.78,4.65A5,5,0,0,1,3,.74Z" transform="translate(0 0)"></path><path class="cls-236" d="M3,.74C4.24,0,5.24.63,5.24,2.08A5,5,0,0,1,3,6C1.78,6.69.79,6.09.79,4.65A5,5,0,0,1,3,.74Z" transform="translate(0 0)"></path><path class="cls-237" d="M3,.75C4.24,0,5.24.64,5.24,2.08A5,5,0,0,1,3,6C1.79,6.69.79,6.1.79,4.65A5,5,0,0,1,3,.75Z" transform="translate(0 0)"></path><path class="cls-238" d="M3,.75C4.25,0,5.25.64,5.25,2.08A5,5,0,0,1,3,6C1.79,6.7.79,6.1.79,4.65A5,5,0,0,1,3,.75Z" transform="translate(0 0)"></path><path class="cls-239" d="M3,.75C4.25,0,5.25.64,5.25,2.08A5,5,0,0,1,3,6C1.8,6.7.8,6.1.8,4.66A5,5,0,0,1,3,.75Z" transform="translate(0 0)"></path><path class="cls-240" d="M3,.75C4.25,0,5.25.64,5.25,2.09A5,5,0,0,1,3,6C1.8,6.7.8,6.1.8,4.66A5,5,0,0,1,3,.75Z" transform="translate(0 0)"></path><path class="cls-241" d="M3,.75C4.26,0,5.26.64,5.26,2.09A5,5,0,0,1,3,6C1.8,6.7.8,6.1.8,4.66A5,5,0,0,1,3,.75Z" transform="translate(0 0)"></path><path class="cls-242" d="M3,.76C4.26.05,5.26.65,5.26,2.09A5,5,0,0,1,3,6C1.81,6.7.81,6.11.81,4.66A5,5,0,0,1,3,.76Z" transform="translate(0 0)"></path><path class="cls-243" d="M3,.76C4.26.05,5.26.65,5.26,2.09A5,5,0,0,1,3,6C1.81,6.71.81,6.11.81,4.66A5,5,0,0,1,3,.76Z" transform="translate(0 0)"></path><path class="cls-244" d="M3,.76C4.27.05,5.27.65,5.27,2.09A5,5,0,0,1,3,6C1.81,6.71.81,6.11.81,4.66A5,5,0,0,1,3,.76Z" transform="translate(0 0)"></path><path class="cls-245" d="M3,.76C4.27.05,5.27.65,5.27,2.1A5,5,0,0,1,3,6C1.82,6.71.82,6.11.82,4.67A5,5,0,0,1,3,.76Z" transform="translate(0 0)"></path><path class="cls-246" d="M3.05.76C4.27.05,5.27.65,5.27,2.1A5,5,0,0,1,3.05,6C1.82,6.71.82,6.11.82,4.67A5,5,0,0,1,3.05.76Z" transform="translate(0 0)"></path><path class="cls-247" d="M3.05.77C4.28.06,5.28.65,5.28,2.1A5,5,0,0,1,3.05,6C1.82,6.71.82,6.12.82,4.67A5,5,0,0,1,3.05.77Z" transform="translate(0 0)"></path><path class="cls-248" d="M3.05.77C4.28.06,5.28.66,5.28,2.1A5,5,0,0,1,3.05,6C1.83,6.72.83,6.12.83,4.67A5,5,0,0,1,3.05.77Z" transform="translate(0 0)"></path><path class="cls-249" d="M3.06.77C4.28.06,5.28.66,5.28,2.1A5,5,0,0,1,3.06,6C1.83,6.72.83,6.12.83,4.67A5,5,0,0,1,3.06.77Z" transform="translate(0 0)"></path><path class="cls-250" d="M3.06.77C4.29.06,5.29.66,5.29,2.1A5,5,0,0,1,3.06,6C1.83,6.72.83,6.12.83,4.68A5,5,0,0,1,3.06.77Z" transform="translate(0 0)"></path><path class="cls-251" d="M3.06.77C4.29.06,5.29.66,5.29,2.11A5,5,0,0,1,3.06,6C1.84,6.72.84,6.12.84,4.68A5,5,0,0,1,3.06.77Z" transform="translate(0 0)"></path><path class="cls-252" d="M3.07.77C4.29.07,5.29.66,5.29,2.11A5,5,0,0,1,3.07,6C1.84,6.72.84,6.12.84,4.68A5,5,0,0,1,3.07.77Z" transform="translate(0 0)"></path><path class="cls-253" d="M3.07.78C4.3.07,5.3.67,5.3,2.11A5,5,0,0,1,3.07,6C1.84,6.73.84,6.13.84,4.68A5,5,0,0,1,3.07.78Z" transform="translate(0 0)"></path><path class="cls-254" d="M3.07.78C4.3.07,5.3.67,5.3,2.11A5,5,0,0,1,3.07,6C1.85,6.73.85,6.13.85,4.68A5,5,0,0,1,3.07.78Z" transform="translate(0 0)"></path><path class="cls-255" d="M3.08.78C4.3.07,5.3.67,5.3,2.11A5,5,0,0,1,3.08,6C1.85,6.73.85,6.13.85,4.69A5,5,0,0,1,3.08.78Z" transform="translate(0 0)"></path><path class="cls-256" d="M3.08.78C4.31.07,5.31.67,5.31,2.12A5,5,0,0,1,3.08,6C1.85,6.73.85,6.13.85,4.69A5,5,0,0,1,3.08.78Z" transform="translate(0 0)"></path><path class="cls-257" d="M3.08.78C4.31.08,5.31.67,5.31,2.12A5,5,0,0,1,3.08,6C1.86,6.73.86,6.13.86,4.69A5,5,0,0,1,3.08.78Z" transform="translate(0 0)"></path><path class="cls-258" d="M3.09.79C4.31.08,5.31.68,5.31,2.12A5,5,0,0,1,3.09,6C1.86,6.73.86,6.14.86,4.69A5,5,0,0,1,3.09.79Z" transform="translate(0 0)"></path><path class="cls-259" d="M3.09.79C4.32.08,5.32.68,5.32,2.12A5,5,0,0,1,3.09,6C1.86,6.74.86,6.14.86,4.69A5,5,0,0,1,3.09.79Z" transform="translate(0 0)"></path><path class="cls-260" d="M3.09.79C4.32.08,5.32.68,5.32,2.12A5,5,0,0,1,3.09,6C1.87,6.74.87,6.14.87,4.7A5,5,0,0,1,3.09.79Z" transform="translate(0 0)"></path><path class="cls-261" d="M3.1.79C4.32.08,5.32.68,5.32,2.13A5,5,0,0,1,3.1,6C1.87,6.74.87,6.14.87,4.7A5,5,0,0,1,3.1.79Z" transform="translate(0 0)"></path><path class="cls-262" d="M3.1.79C4.33.08,5.33.68,5.33,2.13A5,5,0,0,1,3.1,6C1.87,6.74.87,6.14.87,4.7A5,5,0,0,1,3.1.79Z" transform="translate(0 0)"></path><path class="cls-263" d="M3.1.8C4.33.09,5.33.69,5.33,2.13A5,5,0,0,1,3.1,6C1.88,6.74.88,6.15.88,4.7A5,5,0,0,1,3.1.8Z" transform="translate(0 0)"></path><path class="cls-264" d="M3.11.8C4.33.09,5.33.69,5.33,2.13A5,5,0,0,1,3.11,6C1.88,6.75.88,6.15.88,4.7A5,5,0,0,1,3.11.8Z" transform="translate(0 0)"></path><path class="cls-265" d="M3.11.8C4.34.09,5.34.69,5.34,2.13A5,5,0,0,1,3.11,6C1.88,6.75.88,6.15.88,4.7A5,5,0,0,1,3.11.8Z" transform="translate(0 0)"></path><path class="cls-266" d="M3.11.8C4.34.09,5.34.69,5.34,2.14A5,5,0,0,1,3.11,6C1.89,6.75.89,6.15.89,4.71A5,5,0,0,1,3.11.8Z" transform="translate(0 0)"></path><path class="cls-267" d="M3.12.8C4.34.09,5.34.69,5.34,2.14A5,5,0,0,1,3.12,6C1.89,6.75.89,6.15.89,4.71A5,5,0,0,1,3.12.8Z" transform="translate(0 0)"></path><path class="cls-268" d="M3.12.81C4.35.1,5.35.69,5.35,2.14A5,5,0,0,1,3.12,6C1.89,6.75.89,6.16.89,4.71A5,5,0,0,1,3.12.81Z" transform="translate(0 0)"></path><path class="cls-269" d="M3.12.81C4.35.1,5.35.7,5.35,2.14A5,5,0,0,1,3.12,6.05C1.9,6.76.9,6.16.9,4.71A5,5,0,0,1,3.12.81Z" transform="translate(0 0)"></path><path class="cls-270" d="M3.13.81C4.36.1,5.35.7,5.35,2.14A5,5,0,0,1,3.13,6.05C1.9,6.76.9,6.16.9,4.71A5,5,0,0,1,3.13.81Z" transform="translate(0 0)"></path><path class="cls-271" d="M3.13.81C4.36.1,5.36.7,5.36,2.14A5,5,0,0,1,3.13,6.05C1.9,6.76.9,6.16.9,4.72A5,5,0,0,1,3.13.81Z" transform="translate(0 0)"></path><path class="cls-272" d="M3.13.81C4.36.1,5.36.7,5.36,2.15a5,5,0,0,1-2.23,3.9C1.91,6.76.91,6.16.91,4.72A5,5,0,0,1,3.13.81Z" transform="translate(0 0)"></path><path class="cls-273" d="M3.14.81C4.37.11,5.36.7,5.36,2.15a5,5,0,0,1-2.22,3.9C1.91,6.76.91,6.16.91,4.72A5,5,0,0,1,3.14.81Z" transform="translate(0 0)"></path><path class="cls-274" d="M3.14.82C4.37.11,5.37.71,5.37,2.15A5,5,0,0,1,3.14,6.06C1.91,6.77.91,6.17.91,4.72A5,5,0,0,1,3.14.82Z" transform="translate(0 0)"></path><path class="cls-275" d="M3.14.82C4.37.11,5.37.71,5.37,2.15A5,5,0,0,1,3.14,6.06C1.92,6.77.92,6.17.92,4.72A5,5,0,0,1,3.14.82Z" transform="translate(0 0)"></path><path class="cls-276" d="M3.15.82C4.38.11,5.37.71,5.37,2.15A5,5,0,0,1,3.15,6.06C1.92,6.77.92,6.17.92,4.73A5,5,0,0,1,3.15.82Z" transform="translate(0 0)"></path><path class="cls-277" d="M3.15.82C4.38.11,5.38.71,5.38,2.16a5,5,0,0,1-2.23,3.9C1.92,6.77.92,6.17.92,4.73A5,5,0,0,1,3.15.82Z" transform="translate(0 0)"></path><path class="cls-278" d="M3.15.82C4.38.12,5.38.71,5.38,2.16a5,5,0,0,1-2.23,3.9C1.93,6.77.93,6.17.93,4.73A5,5,0,0,1,3.15.82Z" transform="translate(0 0)"></path><path class="cls-279" d="M3.16.83C4.39.12,5.38.72,5.38,2.16A5,5,0,0,1,3.16,6.07C1.93,6.77.93,6.18.93,4.73A5,5,0,0,1,3.16.83Z" transform="translate(0 0)"></path><path class="cls-280" d="M3.16.83C4.39.12,5.39.72,5.39,2.16A5,5,0,0,1,3.16,6.07C1.93,6.78.93,6.18.93,4.73A5,5,0,0,1,3.16.83Z" transform="translate(0 0)"></path><path class="cls-281" d="M3.16.83C4.39.12,5.39.72,5.39,2.16A5,5,0,0,1,3.16,6.07C1.94,6.78.94,6.18.94,4.74A5,5,0,0,1,3.16.83Z" transform="translate(0 0)"></path><path class="cls-282" d="M3.17.83C4.4.12,5.39.72,5.39,2.17a5,5,0,0,1-2.22,3.9C1.94,6.78.94,6.18.94,4.74A5,5,0,0,1,3.17.83Z" transform="translate(0 0)"></path><path class="cls-283" d="M3.17.83C4.4.12,5.4.72,5.4,2.17a5,5,0,0,1-2.23,3.9C1.94,6.78.94,6.18.94,4.74A5,5,0,0,1,3.17.83Z" transform="translate(0 0)"></path><path class="cls-284" d="M3.17.84C4.4.13,5.4.73,5.4,2.17A5,5,0,0,1,3.17,6.08C2,6.78,1,6.19,1,4.74A5,5,0,0,1,3.17.84Z" transform="translate(0 0)"></path><path class="cls-285" d="M3.18.84C4.41.13,5.4.73,5.4,2.17A5,5,0,0,1,3.18,6.08C2,6.79,1,6.19,1,4.74A5,5,0,0,1,3.18.84Z" transform="translate(0 0)"></path><path class="cls-286" d="M3.18.84C4.41.13,5.41.73,5.41,2.17A5,5,0,0,1,3.18,6.08C2,6.79,1,6.19,1,4.74A5,5,0,0,1,3.18.84Z" transform="translate(0 0)"></path><path class="cls-287" d="M3.18.84C4.41.13,5.41.73,5.41,2.18a5,5,0,0,1-2.23,3.9C2,6.79,1,6.19,1,4.75A5,5,0,0,1,3.18.84Z" transform="translate(0 0)"></path><path class="cls-288" d="M3.19.84C4.42.13,5.41.73,5.41,2.18a5,5,0,0,1-2.22,3.9C2,6.79,1,6.19,1,4.75A5,5,0,0,1,3.19.84Z" transform="translate(0 0)"></path><path class="cls-289" d="M3.19.85C4.42.14,5.42.73,5.42,2.18a5,5,0,0,1-2.23,3.9C2,6.79,1,6.2,1,4.75A5,5,0,0,1,3.19.85Z" transform="translate(0 0)"></path><path class="cls-290" d="M3.19.85C4.42.14,5.42.74,5.42,2.18A5,5,0,0,1,3.19,6.09C2,6.8,1,6.2,1,4.75A5,5,0,0,1,3.19.85Z" transform="translate(0 0)"></path><path class="cls-291" d="M3.2.85C4.43.14,5.42.74,5.42,2.18A5,5,0,0,1,3.2,6.09C2,6.8,1,6.2,1,4.75A5,5,0,0,1,3.2.85Z" transform="translate(0 0)"></path><path class="cls-292" d="M3.2.85C4.43.14,5.43.74,5.43,2.18A5,5,0,0,1,3.2,6.09C2,6.8,1,6.2,1,4.76A5,5,0,0,1,3.2.85Z" transform="translate(0 0)"></path><path class="cls-293" d="M3.2.85C4.43.14,5.43.74,5.43,2.19A5,5,0,0,1,3.2,6.09C2,6.8,1,6.2,1,4.76A5,5,0,0,1,3.2.85Z" transform="translate(0 0)"></path><path class="cls-294" d="M3.21.85C4.44.15,5.43.74,5.43,2.19a5,5,0,0,1-2.22,3.9C2,6.8,1,6.2,1,4.76A5,5,0,0,1,3.21.85Z" transform="translate(0 0)"></path><path class="cls-295" d="M3.21.86C4.44.15,5.44.75,5.44,2.19A5,5,0,0,1,3.21,6.1C2,6.81,1,6.21,1,4.76A5,5,0,0,1,3.21.86Z" transform="translate(0 0)"></path><path class="cls-296" d="M3.21.86C4.44.15,5.44.75,5.44,2.19A5,5,0,0,1,3.21,6.1C2,6.81,1,6.21,1,4.76A5,5,0,0,1,3.21.86Z" transform="translate(0 0)"></path><path class="cls-297" d="M3.22.86C4.45.15,5.44.75,5.44,2.19A5,5,0,0,1,3.22,6.1C2,6.81,1,6.21,1,4.77A5,5,0,0,1,3.22.86Z" transform="translate(0 0)"></path><path class="cls-298" d="M3.22.86C4.45.15,5.45.75,5.45,2.2A5,5,0,0,1,3.22,6.1C2,6.81,1,6.21,1,4.77A5,5,0,0,1,3.22.86Z" transform="translate(0 0)"></path><path class="cls-299" d="M3.22.86C4.45.16,5.45.75,5.45,2.2A5,5,0,0,1,3.22,6.1C2,6.81,1,6.21,1,4.77A5,5,0,0,1,3.22.86Z" transform="translate(0 0)"></path><path class="cls-300" d="M3.23.87C4.46.16,5.45.76,5.45,2.2A5,5,0,0,1,3.23,6.11C2,6.81,1,6.22,1,4.77A5,5,0,0,1,3.23.87Z" transform="translate(0 0)"></path><path class="cls-301" d="M3.23.87C4.46.16,5.46.76,5.46,2.2A5,5,0,0,1,3.23,6.11C2,6.82,1,6.22,1,4.77A5,5,0,0,1,3.23.87Z" transform="translate(0 0)"></path><path class="cls-302" d="M3.23.87C4.46.16,5.46.76,5.46,2.2A5,5,0,0,1,3.23,6.11C2,6.82,1,6.22,1,4.78A5,5,0,0,1,3.23.87Z" transform="translate(0 0)"></path><path class="cls-303" d="M3.24.87C4.47.16,5.46.76,5.46,2.21a5,5,0,0,1-2.22,3.9C2,6.82,1,6.22,1,4.78A5,5,0,0,1,3.24.87Z" transform="translate(0 0)"></path><path class="cls-304" d="M3.24.87C4.47.16,5.46.76,5.46,2.21a5,5,0,0,1-2.22,3.9C2,6.82,1,6.22,1,4.78A5,5,0,0,1,3.24.87Z" transform="translate(0 0)"></path></g></g></g></svg> 