<?xml version="1.0" encoding="UTF-8"?> <svg xmlns="http://www.w3.org/2000/svg" viewBox="0 0 109.79 173.62"><defs><style>.cls-1{fill:#ff5c97;opacity:0.75;}.cls-2{fill:#fff;}</style></defs><title>Asset 6</title><g id="Layer_2" data-name="Layer 2"><g id="Illustrate"><path class="cls-1" d="M0,99.33C0,109,6.65,120.66,14.86,125.4l80.07,46.23c8.21,4.74,14.86.75,14.86-8.91V74.29c0-9.66-6.65-21.33-14.86-26.07L14.86,2C6.65-2.74,0,1.24,0,10.9Z"></path><path class="cls-2" d="M50.61,51.73l8.53,4.92V65.5L61,67.3a42.52,42.52,0,0,1,3.33,3.56L66.14,73l1.4-.84,3.93-2.35,6,10.57-3.92,2.34-1.41.85.92,2.61a41,41,0,0,1,1.39,4.72l.6,2.58,2,1.14,5.55,3.21v10l-5.54-3.19-2-1.15-.6,1.89a14.5,14.5,0,0,1-1.38,3.13L72.19,110l1.41,2.46,3.93,6.89-6,3.61-3.92-6.87-1.41-2.47-1.76.07a14.25,14.25,0,0,1-3.34-.29L59.18,113v8.87L50.66,117v-8.86l-1.9-1.8a42.42,42.42,0,0,1-3.34-3.55l-1.76-2.1-1.41.84-3.93,2.36-6-10.57L36.22,91l1.41-.85-.93-2.6a46.32,46.32,0,0,1-1.39-4.73l-.6-2.57-2-1.15-5.55-3.2v-10L32.71,69l2,1.15.6-1.9a14.92,14.92,0,0,1,1.38-3.12l.92-1.54-1.4-2.47-3.93-6.89,6-3.61,3.92,6.87L43.62,60l1.77-.07a14.12,14.12,0,0,1,3.33.29l1.89.4V51.73M47.91,47v9.71a15.58,15.58,0,0,0-3.78-.32L38.29,46.13,28.44,52l5.84,10.25a16.35,16.35,0,0,0-1.57,3.54l-8.24-4.76v16.4l8.26,4.77a49.12,49.12,0,0,0,1.57,5.35l-5.83,3.5,9.85,17.28,5.85-3.5a48.34,48.34,0,0,0,3.78,4v9.7l13.94,8.05v-9.72a16,16,0,0,0,3.77.33l5.84,10.23,9.86-5.9-5.85-10.25a16.66,16.66,0,0,0,1.57-3.55l8.25,4.76V96.16l-8.26-4.77A51,51,0,0,0,75.49,86l5.84-3.49L71.47,65.25l-5.84,3.5a48.4,48.4,0,0,0-3.79-4V55L47.91,47Z"></path><path class="cls-2" d="M54.9,72.76c6.58,3.8,11.94,13.2,11.94,20.95s-5.36,11-11.94,7.15S43,87.66,43,79.92s5.36-11,11.95-7.16m0-3.18c-8.09-4.68-14.65-.75-14.65,8.77s6.56,21,14.65,25.7,14.65.74,14.65-8.78S63,74.25,54.9,69.58Z"></path></g></g></svg> 