<?xml version="1.0" encoding="UTF-8"?> <svg xmlns="http://www.w3.org/2000/svg" xmlns:xlink="http://www.w3.org/1999/xlink" viewBox="0 0 174 249.27"><defs><style>.cls-1{fill:#2d354f;}.cls-2{fill:#28d1d1;opacity:0.85;}.cls-3{fill:url(#linear-gradient);}.cls-4{fill:#ff4daf;}</style><linearGradient id="linear-gradient" x1="27.93" y1="127.41" x2="167.14" y2="127.41" gradientTransform="translate(195.94 0.66) rotate(75.26)" gradientUnits="userSpaceOnUse"><stop offset="0" stop-color="#bfbfbf"></stop><stop offset="0.31" stop-color="#d4d3d2"></stop><stop offset="0.73" stop-color="#eae9e7"></stop><stop offset="1" stop-color="#f2f1ef"></stop></linearGradient></defs><title>Asset 4</title><g id="Layer_2" data-name="Layer 2"><g id="Illustrate"><path class="cls-1" d="M169.14,55.16c-7.4-27.1-22.1-43.54-39.9-48.22h0L108.16,1.39h0c-17.8-4.68-38.7,2.4-58.47,22.35C10.15,63.64-9.92,139.92,4.86,194.11c7.4,27.1,22.1,43.54,39.9,48.23h0l21.08,5.54h0c17.8,4.69,38.7-2.39,58.47-22.34C163.85,185.64,183.92,109.36,169.14,55.16Z"></path><ellipse class="cls-2" cx="97.54" cy="127.41" rx="124.57" ry="71.92" transform="translate(-50.5 189.32) rotate(-75.26)"></ellipse><ellipse class="cls-3" cx="97.54" cy="127.41" rx="113.41" ry="65.48" transform="matrix(0.25, -0.97, 0.97, 0.25, -50.5, 189.32)"></ellipse><polygon class="cls-1" points="78.03 51.41 76.11 53.35 74.44 47.26 76.37 45.32 78.03 51.41"></polygon><polygon class="cls-1" points="53.09 88.55 51.79 91.56 48.13 88.52 49.43 85.52 53.09 88.55"></polygon><polygon class="cls-1" points="40.06 136.11 39.73 139.36 35.05 140.2 35.39 136.94 40.06 136.11"></polygon><polygon class="cls-1" points="42.44 181.33 43.16 183.97 38.71 188.45 37.99 185.81 42.44 181.33"></polygon><polygon class="cls-1" points="59.57 212.11 61.16 213.42 58.14 220.35 56.55 219.03 59.57 212.11"></polygon><polygon class="cls-1" points="86.88 220.19 88.91 219.82 88.13 227.34 86.1 227.71 86.88 220.19"></polygon><polygon class="cls-1" points="117.05 203.41 118.97 201.47 120.63 207.56 118.71 209.5 117.05 203.41"></polygon><polygon class="cls-1" points="141.98 166.27 143.29 163.26 146.95 166.3 145.65 169.3 141.98 166.27"></polygon><polygon class="cls-1" points="155.01 118.71 155.35 115.46 160.03 114.62 159.69 117.88 155.01 118.71"></polygon><polygon class="cls-1" points="152.64 73.49 151.92 70.85 156.37 66.37 157.09 69 152.64 73.49"></polygon><polygon class="cls-1" points="135.51 42.71 133.92 41.4 136.94 34.47 138.52 35.78 135.51 42.71"></polygon><polygon class="cls-1" points="108.2 34.63 106.17 34.99 106.95 27.48 108.98 27.11 108.2 34.63"></polygon><path class="cls-1" d="M71.32,54.67A2.58,2.58,0,0,1,70.86,57c-.51.61-1.13.57-1.38-.1a2.6,2.6,0,0,1,.46-2.32C70.45,54,71.07,54,71.32,54.67Z"></path><path class="cls-1" d="M65.73,61.77a2.51,2.51,0,0,1-.32,2.31c-.48.68-1.11.74-1.42.14a2.51,2.51,0,0,1,.32-2.31C64.79,61.23,65.42,61.17,65.73,61.77Z"></path><path class="cls-1" d="M60.48,69.59a2.37,2.37,0,0,1-.16,2.29c-.45.73-1.09.9-1.45.37A2.36,2.36,0,0,1,59,70C59.48,69.23,60.13,69.06,60.48,69.59Z"></path><path class="cls-1" d="M55.64,78a2.2,2.2,0,0,1,0,2.24c-.4.78-1.05,1.06-1.45.61a2.2,2.2,0,0,1,0-2.23C54.59,77.87,55.25,77.59,55.64,78Z"></path><path class="cls-1" d="M47.39,96.47c.47.28.6,1.2.29,2.06s-1,1.34-1.42,1.07-.61-1.2-.29-2.06S46.92,96.2,47.39,96.47Z"></path><path class="cls-1" d="M44.07,106.25c.5.18.7,1,.43,1.93s-.88,1.46-1.38,1.28-.7-1-.44-1.94S43.56,106.07,44.07,106.25Z"></path><path class="cls-1" d="M41.33,116.26c.53.08.79.89.58,1.79s-.81,1.56-1.33,1.47-.79-.89-.58-1.79S40.8,116.17,41.33,116.26Z"></path><path class="cls-1" d="M39.21,126.39c.55,0,.87.72.71,1.62s-.71,1.65-1.26,1.65-.87-.72-.72-1.63S38.66,126.39,39.21,126.39Z"></path><path class="cls-1" d="M36.9,146.57c.56-.2,1,.36,1,1.25a2.2,2.2,0,0,1-1.09,2c-.56.19-1-.37-1-1.25A2.17,2.17,0,0,1,36.9,146.57Z"></path><path class="cls-1" d="M36.74,156.4c.56-.29,1,.18,1.07,1a2.4,2.4,0,0,1-1,2.07c-.57.28-1-.18-1.08-1A2.37,2.37,0,0,1,36.74,156.4Z"></path><path class="cls-1" d="M37.24,165.91c.56-.37,1.08,0,1.17.82a2.54,2.54,0,0,1-.87,2.17c-.56.37-1.08,0-1.17-.82A2.53,2.53,0,0,1,37.24,165.91Z"></path><path class="cls-1" d="M38.4,175c.55-.45,1.11-.19,1.26.59a2.6,2.6,0,0,1-.74,2.24c-.55.46-1.11.2-1.26-.59A2.6,2.6,0,0,1,38.4,175Z"></path><path class="cls-1" d="M42.65,191.53c.51-.61,1.13-.56,1.38.1a2.57,2.57,0,0,1-.46,2.32c-.51.61-1.12.56-1.38-.11A2.61,2.61,0,0,1,42.65,191.53Z"></path><path class="cls-1" d="M45.7,198.78c.47-.68,1.11-.74,1.41-.14A2.5,2.5,0,0,1,46.8,201c-.48.67-1.11.73-1.42.13A2.52,2.52,0,0,1,45.7,198.78Z"></path><path class="cls-1" d="M49.3,205.25c.45-.74,1.1-.9,1.45-.38a2.38,2.38,0,0,1-.17,2.29c-.44.74-1.09.9-1.44.38A2.4,2.4,0,0,1,49.3,205.25Z"></path><path class="cls-1" d="M53.44,210.87c.41-.79,1.06-1.06,1.46-.62a2.22,2.22,0,0,1,0,2.24c-.4.79-1.05,1.06-1.45.61A2.2,2.2,0,0,1,53.44,210.87Z"></path><path class="cls-1" d="M63.12,219.31c.31-.86.95-1.34,1.42-1.07s.6,1.2.29,2.06-.95,1.34-1.42,1.07S62.8,220.17,63.12,219.31Z"></path><path class="cls-1" d="M68.55,222c.26-.89.88-1.46,1.38-1.28s.7,1.05.44,1.94S69.49,224.16,69,224,68.28,222.93,68.55,222Z"></path><path class="cls-1" d="M74.3,223.73c.2-.9.8-1.56,1.33-1.47s.79.89.58,1.79-.81,1.56-1.34,1.47S74.09,224.63,74.3,223.73Z"></path><path class="cls-1" d="M80.3,224.37c.15-.9.72-1.64,1.26-1.65s.87.72.72,1.63S81.56,226,81,226,80.15,225.28,80.3,224.37Z"></path><path class="cls-1" d="M92.8,222.46a2.22,2.22,0,0,1,1.09-2c.57-.19,1,.37,1,1.25a2.19,2.19,0,0,1-1.08,2C93.2,223.91,92.77,223.35,92.8,222.46Z"></path><path class="cls-1" d="M99.17,219.94a2.36,2.36,0,0,1,1-2.07c.57-.29,1,.18,1.07,1a2.35,2.35,0,0,1-1,2.07C99.67,221.27,99.19,220.8,99.17,219.94Z"></path><path class="cls-1" d="M105.51,216.4a2.51,2.51,0,0,1,.87-2.16c.56-.38,1.08,0,1.17.81a2.52,2.52,0,0,1-.87,2.17C106.12,217.59,105.6,217.23,105.51,216.4Z"></path><path class="cls-1" d="M111.77,211.89a2.6,2.6,0,0,1,.74-2.24c.55-.46,1.11-.19,1.25.59a2.56,2.56,0,0,1-.73,2.24C112.48,212.94,111.92,212.67,111.77,211.89Z"></path><path class="cls-1" d="M123.76,200.15a2.55,2.55,0,0,1,.46-2.31c.51-.61,1.12-.57,1.38.1a2.63,2.63,0,0,1-.46,2.32C124.63,200.87,124,200.82,123.76,200.15Z"></path><path class="cls-1" d="M129.35,193.05a2.51,2.51,0,0,1,.32-2.31c.47-.68,1.11-.74,1.42-.14a2.51,2.51,0,0,1-.32,2.31C130.29,193.59,129.66,193.65,129.35,193.05Z"></path><path class="cls-1" d="M134.6,185.23a2.37,2.37,0,0,1,.16-2.29c.44-.73,1.09-.9,1.44-.37a2.36,2.36,0,0,1-.16,2.28C135.6,185.59,135,185.76,134.6,185.23Z"></path><path class="cls-1" d="M139.43,176.78a2.22,2.22,0,0,1,0-2.24c.4-.78,1.05-1.06,1.45-.61a2.2,2.2,0,0,1,0,2.23C140.48,177,139.83,177.23,139.43,176.78Z"></path><path class="cls-1" d="M147.69,158.35c-.48-.28-.61-1.2-.29-2.06s.95-1.34,1.42-1.07.61,1.2.29,2.06S148.16,158.62,147.69,158.35Z"></path><path class="cls-1" d="M151,148.57c-.5-.18-.7-1-.44-1.93s.89-1.46,1.39-1.28.7,1,.44,1.94S151.51,148.75,151,148.57Z"></path><path class="cls-1" d="M153.75,138.56c-.53-.08-.79-.89-.58-1.79s.8-1.56,1.33-1.47.79.89.58,1.79S154.28,138.65,153.75,138.56Z"></path><path class="cls-1" d="M155.87,128.43c-.55,0-.87-.72-.72-1.62s.72-1.65,1.27-1.65.87.72.72,1.63S156.42,128.43,155.87,128.43Z"></path><path class="cls-1" d="M158.18,108.25c-.57.2-1-.36-1-1.25a2.2,2.2,0,0,1,1.09-2c.56-.19,1,.37,1,1.25A2.19,2.19,0,0,1,158.18,108.25Z"></path><path class="cls-1" d="M158.34,98.42c-.56.29-1-.18-1.07-1a2.4,2.4,0,0,1,1-2.07c.57-.28,1.05.18,1.08,1A2.37,2.37,0,0,1,158.34,98.42Z"></path><path class="cls-1" d="M157.84,88.91c-.56.37-1.08,0-1.17-.82a2.51,2.51,0,0,1,.87-2.17c.56-.37,1.08,0,1.16.82A2.5,2.5,0,0,1,157.84,88.91Z"></path><path class="cls-1" d="M156.68,79.82c-.55.45-1.11.19-1.26-.59a2.6,2.6,0,0,1,.74-2.24c.55-.46,1.11-.2,1.25.58A2.57,2.57,0,0,1,156.68,79.82Z"></path><path class="cls-1" d="M152.42,63.29c-.5.61-1.12.56-1.37-.1a2.57,2.57,0,0,1,.46-2.32c.51-.61,1.12-.56,1.38.11A2.59,2.59,0,0,1,152.42,63.29Z"></path><path class="cls-1" d="M149.38,56c-.48.68-1.11.74-1.42.14a2.53,2.53,0,0,1,.32-2.32c.48-.67,1.11-.73,1.42-.13A2.52,2.52,0,0,1,149.38,56Z"></path><path class="cls-1" d="M145.77,49.57c-.44.74-1.09.9-1.44.38a2.4,2.4,0,0,1,.16-2.29c.45-.74,1.1-.9,1.45-.38A2.38,2.38,0,0,1,145.77,49.57Z"></path><path class="cls-1" d="M141.64,44c-.41.79-1.06,1.06-1.46.62a2.2,2.2,0,0,1,0-2.24c.4-.79,1.05-1.06,1.45-.61A2.2,2.2,0,0,1,141.64,44Z"></path><path class="cls-1" d="M132,35.51c-.31.86-1,1.34-1.42,1.07s-.61-1.2-.29-2.06.95-1.34,1.42-1.07S132.28,34.65,132,35.51Z"></path><path class="cls-1" d="M126.53,32.78c-.26.89-.88,1.46-1.38,1.28s-.7-1.05-.44-1.94.88-1.46,1.38-1.27S126.79,31.89,126.53,32.78Z"></path><path class="cls-1" d="M120.78,31.09c-.2.9-.8,1.56-1.33,1.47s-.79-.89-.58-1.79.81-1.56,1.33-1.47S121,30.19,120.78,31.09Z"></path><path class="cls-1" d="M114.78,30.45c-.15.9-.72,1.64-1.26,1.65s-.87-.72-.72-1.63.72-1.64,1.26-1.65S114.93,29.54,114.78,30.45Z"></path><path class="cls-1" d="M102.28,32.36a2.24,2.24,0,0,1-1.09,2c-.57.19-1-.37-1-1.25a2.21,2.21,0,0,1,1.09-2C101.88,30.91,102.31,31.47,102.28,32.36Z"></path><path class="cls-1" d="M95.91,34.88a2.36,2.36,0,0,1-1,2.07c-.57.29-1.05-.18-1.07-1a2.35,2.35,0,0,1,1-2.07C95.41,33.55,95.89,34,95.91,34.88Z"></path><path class="cls-1" d="M89.56,38.42a2.48,2.48,0,0,1-.86,2.16c-.56.38-1.08,0-1.17-.81a2.49,2.49,0,0,1,.87-2.17C89,37.23,89.48,37.59,89.56,38.42Z"></path><path class="cls-1" d="M83.31,42.93a2.6,2.6,0,0,1-.74,2.24c-.55.46-1.11.19-1.26-.59a2.6,2.6,0,0,1,.74-2.24C82.6,41.88,83.16,42.15,83.31,42.93Z"></path><path class="cls-1" d="M93.87,126.36l1.68-1.7L99.17,121c-3-10.93-7-25.5-9.94-36.44l-.47-1.74A2.33,2.33,0,0,0,87.28,81c-.94-.24-2.07.44-2.9,1.77a7.57,7.57,0,0,0-.85,2,6.74,6.74,0,0,0-.08,3.36l.48,1.74C86.91,100.85,90.88,115.42,93.87,126.36Z"></path><path class="cls-4" d="M88.59,146.24l.35.29.75.61,38-87.42.22-.49a2.1,2.1,0,0,0,.16-.86c0-.39-.2-.67-.44-.71a.44.44,0,0,0-.34.07,1.21,1.21,0,0,0-.47.59c-.08.17-.15.33-.22.5C125.27,61.93,90,143.13,88.59,146.24Z"></path><path class="cls-1" d="M94.4,127.62l.58-1.35,1.22-2.79c-9.31-7.7-23.06-18.9-32.37-26.61-.46-.38-.89-.82-1.53-.44a3,3,0,0,0-1.17,1.8A4,4,0,0,0,61,99.35,2.06,2.06,0,0,0,62,101C71.33,108.72,85.09,119.91,94.4,127.62Z"></path><path class="cls-1" d="M95.19,136.34a3.55,3.55,0,0,0,2.29-.21,6.48,6.48,0,0,0,2-1.45,14.45,14.45,0,0,0,3.33-12.62,5.57,5.57,0,0,0-1.79-3,3.32,3.32,0,0,0-1.17-.59c-1.32-.35-2.87.18-4.33,1.66a10.86,10.86,0,0,0-1.79,2.42,15.7,15.7,0,0,0-1.39,3.49,16.54,16.54,0,0,0-.41,2.19,12.27,12.27,0,0,0,.26,4.52C92.78,134.77,93.87,136,95.19,136.34Z"></path></g></g></svg> 