<?xml version="1.0" encoding="UTF-8"?> <svg xmlns="http://www.w3.org/2000/svg" viewBox="0 0 90.15 111.67"><defs><style>.cls-1{fill:#ff5c97;opacity:0.75;}.cls-2{fill:#fff;}</style></defs><title>Asset 5</title><g id="Layer_2" data-name="Layer 2"><g id="Illustrate"><path class="cls-1" d="M0,53.73C0,59,3.6,65.26,8,67.82l74.07,42.77c4.44,2.56,8,.41,8-4.82V57.94c0-5.22-3.6-11.53-8-14.1L8,1.08C3.6-1.48,0,.67,0,5.9Z"></path><polygon class="cls-2" points="56.99 81.42 51.12 78.03 34.22 30.87 40.09 34.26 56.99 81.42"></polygon><polygon class="cls-2" points="15.29 39.75 15.33 39.77 24.42 29.89 30.66 33.49 21.55 43.4 30.66 63.12 24.42 59.52 15.33 39.86 15.29 39.83 15.31 39.8 15.29 39.75"></polygon><polygon class="cls-2" points="74.86 74.14 74.82 74.12 65.73 53.74 60.03 50.45 69.14 70.88 60.03 80.08 65.73 83.36 74.82 74.2 74.86 74.23 74.84 74.17 74.86 74.14"></polygon></g></g></svg> 