<?xml version="1.0" encoding="UTF-8"?> <svg xmlns="http://www.w3.org/2000/svg" viewBox="0 0 466.08 591.75"><defs><style>.cls-1{isolation:isolate;}.cls-2{opacity:0.75;mix-blend-mode:screen;}.cls-3{fill:#282b35;}.cls-4{fill:#4f5569;}.cls-5{fill:#fff;}.cls-6{fill:#2191f2;}.cls-7{fill:#e6e7e8;}.cls-8{fill:#d2905c;}.cls-9{fill:#e4464a;}.cls-10{fill:#c2349a;}.cls-11{fill:#92c967;}.cls-12{fill:#0c97b3;}.cls-13{fill:#f5ab35;}</style></defs><title>Asset 1</title><g class="cls-1"><g id="Layer_2" data-name="Layer 2"><g id="Illustrate"><g class="cls-2"><polygon class="cls-3" points="466.08 591.75 0 322.66 0 0 466.08 269.09 466.08 591.75"></polygon><polygon class="cls-4" points="466.08 288.32 0 19.23 0 0 466.08 269.09 466.08 288.32"></polygon><rect class="cls-5" x="90.77" y="71.83" width="0.66" height="303.42"></rect><polygon class="cls-6" points="17.93 47.05 12.73 44.04 12.73 37.93 17.93 40.93 17.93 47.05"></polygon><polygon class="cls-7" points="43.72 60.31 19.94 46.59 19.94 43.47 43.72 57.19 43.72 60.31"></polygon><polygon class="cls-6" points="17.93 81.39 12.73 78.38 12.73 72.27 17.93 75.27 17.93 81.39"></polygon><polygon class="cls-7" points="43.72 94.65 19.94 80.93 19.94 77.81 43.72 91.53 43.72 94.65"></polygon><polygon class="cls-6" points="17.93 126.09 12.73 123.09 12.73 116.97 17.93 119.97 17.93 126.09"></polygon><polygon class="cls-7" points="43.72 139.36 19.94 125.63 19.94 122.51 43.72 136.24 43.72 139.36"></polygon><polygon class="cls-6" points="17.93 137.64 12.73 134.64 12.73 128.52 17.93 131.52 17.93 137.64"></polygon><polygon class="cls-7" points="43.72 150.91 19.94 137.18 19.94 134.06 43.72 147.78 43.72 150.91"></polygon><polygon class="cls-6" points="25.14 60.2 19.94 57.2 19.94 51.08 25.14 54.09 25.14 60.2"></polygon><polygon class="cls-7" points="50.94 73.47 27.16 59.75 27.16 56.62 50.94 70.35 50.94 73.47"></polygon><polygon class="cls-6" points="25.14 69.19 19.94 66.19 19.94 60.07 25.14 63.08 25.14 69.19"></polygon><polygon class="cls-7" points="59.96 87.67 27.16 68.74 27.16 65.61 59.96 84.55 59.96 87.67"></polygon><polygon class="cls-6" points="25.14 94.17 19.94 91.17 19.94 85.05 25.14 88.05 25.14 94.17"></polygon><polygon class="cls-7" points="67.07 116.75 27.16 93.71 27.16 90.59 67.07 113.63 67.07 116.75"></polygon><polygon class="cls-6" points="25.14 103.16 19.94 100.16 19.94 94.04 25.14 97.04 25.14 103.16"></polygon><polygon class="cls-7" points="54.12 118.27 27.16 102.7 27.16 99.58 54.12 115.14 54.12 118.27"></polygon><polygon class="cls-6" points="31.27 114.89 27.16 112.52 27.16 107.69 31.27 110.06 31.27 114.89"></polygon><polygon class="cls-7" points="77.26 140.17 32.86 114.53 32.86 112.07 77.26 137.7 77.26 140.17"></polygon><polygon class="cls-6" points="31.27 121.99 27.16 119.62 27.16 114.79 31.27 117.16 31.27 121.99"></polygon><polygon class="cls-7" points="59.96 137.27 32.86 121.63 32.86 119.16 59.96 134.81 59.96 137.27"></polygon><polygon class="cls-6" points="17.93 150.56 12.73 147.56 12.73 141.44 17.93 144.44 17.93 150.56"></polygon><polygon class="cls-7" points="43.72 163.83 19.94 150.1 19.94 146.98 43.72 160.71 43.72 163.83"></polygon><polygon class="cls-6" points="17.93 184.9 12.73 181.9 12.73 175.78 17.93 178.78 17.93 184.9"></polygon><polygon class="cls-7" points="43.72 198.17 19.94 184.44 19.94 181.32 43.72 195.05 43.72 198.17"></polygon><polygon class="cls-6" points="17.93 229.61 12.73 226.6 12.73 220.48 17.93 223.49 17.93 229.61"></polygon><polygon class="cls-7" points="43.72 242.87 19.94 229.15 19.94 226.03 43.72 239.75 43.72 242.87"></polygon><polygon class="cls-6" points="17.93 241.16 12.73 238.15 12.73 232.03 17.93 235.04 17.93 241.16"></polygon><polygon class="cls-7" points="43.72 254.42 19.94 240.7 19.94 237.57 43.72 251.3 43.72 254.42"></polygon><polygon class="cls-6" points="25.14 163.72 19.94 160.72 19.94 154.6 25.14 157.6 25.14 163.72"></polygon><polygon class="cls-7" points="50.94 176.99 27.16 163.26 27.16 160.14 50.94 173.87 50.94 176.99"></polygon><polygon class="cls-6" points="25.14 172.71 19.94 169.71 19.94 163.59 25.14 166.59 25.14 172.71"></polygon><polygon class="cls-7" points="59.96 191.19 27.16 172.25 27.16 169.13 59.96 188.07 59.96 191.19"></polygon><polygon class="cls-6" points="25.14 197.69 19.94 194.68 19.94 188.56 25.14 191.57 25.14 197.69"></polygon><polygon class="cls-7" points="67.07 220.27 27.16 197.23 27.16 194.1 67.07 217.15 67.07 220.27"></polygon><polygon class="cls-6" points="25.14 206.68 19.94 203.67 19.94 197.56 25.14 200.56 25.14 206.68"></polygon><polygon class="cls-7" points="54.12 221.78 27.16 206.22 27.16 203.09 54.12 218.66 54.12 221.78"></polygon><polygon class="cls-6" points="31.27 218.41 27.16 216.04 27.16 211.21 31.27 213.58 31.27 218.41"></polygon><polygon class="cls-7" points="77.26 243.68 32.86 218.05 32.86 215.59 77.26 241.22 77.26 243.68"></polygon><polygon class="cls-6" points="31.27 225.51 27.16 223.14 27.16 218.31 31.27 220.68 31.27 225.51"></polygon><polygon class="cls-7" points="59.96 240.79 32.86 225.14 32.86 222.68 59.96 238.33 59.96 240.79"></polygon><path class="cls-4" d="M99.86,91.17h0a4.74,4.74,0,0,1-2.12-3.72h0c0-1.38,1-1.94,2.12-1.27h0A4.74,4.74,0,0,1,102,89.9h0C102,91.27,101,91.84,99.86,91.17Z"></path><polygon class="cls-8" points="133.76 110.74 108.29 96.04 108.29 91.05 133.76 105.75 133.76 110.74"></polygon><polygon class="cls-9" points="186.5 141.19 140.05 114.37 140.05 109.39 186.5 136.2 186.5 141.19"></polygon><path class="cls-4" d="M99.86,105.83h0a4.72,4.72,0,0,1-2.12-3.71h0c0-1.38,1-2,2.12-1.27h0a4.72,4.72,0,0,1,2.12,3.71h0C102,105.94,101,106.51,99.86,105.83Z"></path><polygon class="cls-10" points="171.76 147.34 108.29 110.7 108.29 105.72 171.76 142.36 171.76 147.34"></polygon><polygon class="cls-11" points="290.02 215.63 178.05 150.98 178.05 145.99 290.02 210.64 290.02 215.63"></polygon><path class="cls-4" d="M99.86,120.5h0a4.74,4.74,0,0,1-2.12-3.72h0c0-1.37,1-1.94,2.12-1.26h0a4.7,4.7,0,0,1,2.12,3.71h0C102,120.61,101,121.17,99.86,120.5Z"></path><polygon class="cls-10" points="133.76 140.07 108.29 125.37 108.29 120.39 133.76 135.09 133.76 140.07"></polygon><path class="cls-4" d="M99.86,135.16h0a4.7,4.7,0,0,1-2.12-3.71h0c0-1.38,1-1.94,2.12-1.27h0A4.74,4.74,0,0,1,102,133.9h0C102,135.27,101,135.84,99.86,135.16Z"></path><polygon class="cls-9" points="123.03 148.54 108.29 140.03 108.29 135.05 123.03 143.56 123.03 148.54"></polygon><polygon class="cls-5" points="171.76 176.68 129.32 152.18 129.32 147.19 171.76 171.69 171.76 176.68"></polygon><path class="cls-4" d="M99.86,149.83h0a4.72,4.72,0,0,1-2.12-3.71h0c0-1.38,1-2,2.12-1.27h0a4.72,4.72,0,0,1,2.12,3.71h0C102,149.94,101,150.51,99.86,149.83Z"></path><polygon class="cls-5" points="146.49 176.75 121.03 162.05 121.03 157.07 146.49 171.77 146.49 176.75"></polygon><polygon class="cls-12" points="208.82 212.74 152.78 180.39 152.78 175.4 208.82 207.76 208.82 212.74"></polygon><path class="cls-4" d="M99.86,164.5h0a4.74,4.74,0,0,1-2.12-3.72h0c0-1.37,1-1.94,2.12-1.27h0a4.74,4.74,0,0,1,2.12,3.72h0C102,164.61,101,165.17,99.86,164.5Z"></path><polygon class="cls-11" points="311.91 286.93 121.03 176.72 121.03 171.74 311.91 281.94 311.91 286.93"></polygon><polygon class="cls-13" points="345.4 306.26 319.63 291.38 319.63 286.4 345.4 301.28 345.4 306.26"></polygon><polygon class="cls-13" points="345.4 305.85 319.63 290.97 319.63 285.99 345.4 300.86 345.4 305.85"></polygon><path class="cls-4" d="M99.86,179.16h0a4.7,4.7,0,0,1-2.12-3.71h0c0-1.38,1-1.94,2.12-1.27h0A4.74,4.74,0,0,1,102,177.9h0C102,179.27,101,179.84,99.86,179.16Z"></path><polygon class="cls-12" points="398.71 351.71 135.65 199.83 135.65 194.85 398.71 346.72 398.71 351.71"></polygon><path class="cls-4" d="M99.86,193.83h0a4.72,4.72,0,0,1-2.12-3.71h0c0-1.38,1-2,2.12-1.27h0a4.72,4.72,0,0,1,2.12,3.71h0C102,193.94,101,194.51,99.86,193.83Z"></path><polygon class="cls-12" points="294.45 306.18 135.65 214.5 135.65 209.51 294.45 301.2 294.45 306.18"></polygon><polygon class="cls-11" points="345.4 335.6 301.23 310.09 301.23 305.11 345.4 330.61 345.4 335.6"></polygon><path class="cls-4" d="M99.86,208.5h0a4.74,4.74,0,0,1-2.12-3.72h0c0-1.37,1-1.94,2.12-1.27h0a4.74,4.74,0,0,1,2.12,3.72h0C102,208.6,101,209.17,99.86,208.5Z"></path><polygon class="cls-9" points="135.65 229.16 121.03 220.72 121.03 215.74 135.65 224.18 135.65 229.16"></polygon><path class="cls-4" d="M99.86,223h0a4.72,4.72,0,0,1-2.12-3.71h0c0-1.38,1-1.95,2.12-1.27h0A4.72,4.72,0,0,1,102,221.7h0C102,223.08,101,223.65,99.86,223Z"></path><polygon class="cls-5" points="146.49 249.9 121.03 235.19 121.03 230.21 146.49 244.91 146.49 249.9"></polygon><polygon class="cls-12" points="208.82 285.88 152.78 253.53 152.78 248.54 208.82 280.9 208.82 285.88"></polygon><path class="cls-4" d="M99.86,237.64h0a4.74,4.74,0,0,1-2.12-3.72h0c0-1.37,1-1.94,2.12-1.27h0a4.74,4.74,0,0,1,2.12,3.72h0C102,237.74,101,238.31,99.86,237.64Z"></path><polygon class="cls-11" points="311.91 360.06 121.03 249.86 121.03 244.88 311.91 355.08 311.91 360.06"></polygon><polygon class="cls-13" points="345.4 379.4 319.63 364.52 319.63 359.54 345.4 374.42 345.4 379.4"></polygon><polygon class="cls-13" points="345.4 378.99 319.63 364.11 319.63 359.12 345.4 374 345.4 378.99"></polygon><path class="cls-4" d="M99.86,252.3h0a4.7,4.7,0,0,1-2.12-3.71h0c0-1.38,1-2,2.12-1.27h0A4.74,4.74,0,0,1,102,251h0C102,252.41,101,253,99.86,252.3Z"></path><polygon class="cls-9" points="398.71 424.85 135.65 272.97 135.65 267.99 398.71 419.86 398.71 424.85"></polygon><path class="cls-4" d="M99.86,267h0a4.74,4.74,0,0,1-2.12-3.71h0c0-1.38,1-1.95,2.12-1.27h0A4.7,4.7,0,0,1,102,265.7h0C102,267.08,101,267.65,99.86,267Z"></path><polygon class="cls-12" points="183.04 315 135.65 287.63 135.65 282.65 183.04 310.01 183.04 315"></polygon><polygon class="cls-5" points="294.45 379.32 191.35 319.8 191.35 314.81 294.45 374.34 294.45 379.32"></polygon><polygon class="cls-11" points="345.4 408.73 301.23 383.23 301.23 378.25 345.4 403.75 345.4 408.73"></polygon><path class="cls-4" d="M99.86,281.64h0a4.74,4.74,0,0,1-2.12-3.72h0c0-1.37,1-1.94,2.12-1.27h0a4.74,4.74,0,0,1,2.12,3.72h0C102,281.74,101,282.31,99.86,281.64Z"></path><polygon class="cls-13" points="135.65 302.3 121.03 293.86 121.03 288.87 135.65 297.32 135.65 302.3"></polygon><path class="cls-4" d="M99.86,296.11h0a4.74,4.74,0,0,1-2.12-3.71h0c0-1.38,1-1.95,2.12-1.27h0a4.7,4.7,0,0,1,2.12,3.71h0C102,296.22,101,296.79,99.86,296.11Z"></path><polygon class="cls-5" points="146.49 323.03 121.03 308.33 121.03 303.35 146.49 318.05 146.49 323.03"></polygon><polygon class="cls-12" points="208.82 359.02 152.78 326.67 152.78 321.68 208.82 354.04 208.82 359.02"></polygon><path class="cls-4" d="M99.86,310.78h0a4.74,4.74,0,0,1-2.12-3.72h0c0-1.37,1-1.94,2.12-1.27h0a4.74,4.74,0,0,1,2.12,3.72h0C102,310.88,101,311.45,99.86,310.78Z"></path><polygon class="cls-11" points="311.91 433.2 121.03 323 121.03 318.01 311.91 428.22 311.91 433.2"></polygon><polygon class="cls-13" points="345.4 452.54 319.63 437.66 319.63 432.68 345.4 447.56 345.4 452.54"></polygon><polygon class="cls-11" points="345.4 452.13 319.63 437.25 319.63 432.26 345.4 447.14 345.4 452.13"></polygon><path class="cls-4" d="M99.86,325.44h0a4.72,4.72,0,0,1-2.12-3.71h0c0-1.38,1-2,2.12-1.27h0a4.72,4.72,0,0,1,2.12,3.71h0C102,325.55,101,326.12,99.86,325.44Z"></path><polygon class="cls-12" points="398.71 497.98 135.65 346.11 135.65 341.12 398.71 493 398.71 497.98"></polygon><path class="cls-4" d="M99.86,340.11h0a4.74,4.74,0,0,1-2.12-3.72h0c0-1.37,1-1.94,2.12-1.26h0a4.7,4.7,0,0,1,2.12,3.71h0C102,340.22,101,340.78,99.86,340.11Z"></path><polygon class="cls-5" points="294.45 452.46 135.65 360.77 135.65 355.79 294.45 447.48 294.45 452.46"></polygon><polygon class="cls-9" points="345.4 481.87 301.23 456.37 301.23 451.39 345.4 476.89 345.4 481.87"></polygon><polygon class="cls-5" points="398.71 512.65 354.54 487.15 354.54 482.17 398.71 507.67 398.71 512.65"></polygon><path class="cls-4" d="M99.86,354.78h0a4.74,4.74,0,0,1-2.12-3.72h0c0-1.38,1-1.94,2.12-1.27h0a4.74,4.74,0,0,1,2.12,3.72h0C102,354.88,101,355.45,99.86,354.78Z"></path><polygon class="cls-13" points="135.65 375.44 121.03 367 121.03 362.01 135.65 370.46 135.65 375.44"></polygon></g></g></g></g></svg> 