<?xml version="1.0" encoding="UTF-8"?> <svg xmlns="http://www.w3.org/2000/svg" viewBox="0 0 413.36 123.89"><defs><style>.cls-1{fill:#ff5c97;}.cls-2{fill:#912355;}</style></defs><title>Asset 2</title><g id="Layer_2" data-name="Layer 2"><g id="Layer_1-2" data-name="Layer 1"><polygon class="cls-1" points="408.15 0 324.59 20.11 306.85 35.62 58.55 95.3 59.39 87.4 0 112.73 56.96 110.09 57.8 102.16 306.78 42.3 321.43 49.56 405.02 29.47 385.89 19.49 408.15 0"></polygon><polygon class="cls-2" points="59.39 87.4 64.59 98.56 63.74 106.47 58.55 95.3 59.39 87.4"></polygon><polygon class="cls-2" points="57.8 102.16 63.01 113.34 62.16 121.25 56.96 110.09 57.8 102.16"></polygon><polygon class="cls-2" points="56.96 110.09 62.16 121.25 5.19 123.89 0 112.73 56.96 110.09"></polygon><polygon class="cls-2" points="306.78 42.3 311.97 53.45 63.01 113.34 57.8 102.16 306.78 42.3"></polygon><polygon class="cls-2" points="408.15 0 413.36 11.18 391.08 30.65 385.89 19.49 408.15 0"></polygon><polygon class="cls-2" points="321.43 49.56 326.62 60.73 311.97 53.45 306.78 42.3 321.43 49.56"></polygon><polygon class="cls-2" points="405.02 29.47 410.21 40.65 326.62 60.73 321.43 49.56 405.02 29.47"></polygon><polygon class="cls-1" points="408.15 0 324.59 20.11 306.85 35.62 58.55 95.3 59.39 87.4 0 112.73 56.96 110.09 57.8 102.16 306.78 42.3 321.43 49.56 405.02 29.47 385.89 19.49 408.15 0"></polygon></g></g></svg> 