<?xml version="1.0" encoding="UTF-8"?> <svg xmlns="http://www.w3.org/2000/svg" viewBox="0 0 336.64 507.98"><defs><style>.cls-1{fill:#2d354f;}.cls-2{fill:#d8d8d8;}.cls-3{fill:#fcfcfc;}</style></defs><title>Asset 19</title><g id="Layer_2" data-name="Layer 2"><g id="Illustrate"><path class="cls-1" d="M66.83,417.18c-1-2.33-2-4.68-2.89-7-.16-.44-.33-.86-.5-1.33q-1.26-3.29-2.48-6.64c-.12-.35-.25-.7-.38-1q-1.3-3.67-2.49-7.43c-.23-.67-.44-1.32-.65-2-.35-1.12-.71-2.24-1-3.38l-.71-2.39c-.32-1.12-.65-2.24-1-3.38-.22-.8-.44-1.6-.67-2.4-.33-1.18-.64-2.37-.94-3.55-.19-.76-.39-1.53-.6-2.28-.35-1.41-.68-2.83-1-4.25-.13-.52-.25-1-.38-1.58-.73-3.12-1.39-6.24-2-9.43-.08-.37-.15-.77-.23-1.16q-.91-4.56-1.7-9.16c-.08-.56-.2-1.12-.28-1.67-.45-2.7-.87-5.41-1.27-8.16-.06-.46-.15-.93-.2-1.42-.36-2.6-.72-5.21-1-7.85,0-.34-.09-.65-.13-1-.3-2.59-.57-5.22-.84-7.85,0-.62-.11-1.24-.16-1.85-.24-2.41-.42-4.83-.61-7.24,0-.3,0-.6-.07-.89-.18-2.56-.33-5.11-.45-7.68,0-.64-.07-1.28-.11-1.93-.1-2.2-.19-4.38-.26-6.58,0-.45,0-.89,0-1.34-.06-2.56-.11-5.1-.12-7.68,0-.55,0-1.07,0-1.62,0-2.08,0-4.16,0-6.25,0-.66,0-1.33,0-2,0-2.53.06-5.05.15-7.59,0-.27,0-.55,0-.83.06-2.26.17-4.52.27-6.8,0-.73.08-1.48.12-2.22.1-2.2.24-4.41.38-6.6,0-.38,0-.75.06-1.12.2-2.55.4-5.11.63-7.66,0-.62.13-1.25.18-1.88.18-2.19.41-4.39.63-6.57.08-.53.14-1.07.18-1.59.29-2.6.6-5.17.95-7.74.07-.58.16-1.15.23-1.73.3-2.36.64-4.72,1-7.09.07-.47.15-1,.23-1.5.41-2.68.84-5.35,1.32-8,.08-.56.19-1.14.28-1.71.54-3,1.08-5.94,1.68-8.9,0,0,0-.07,0-.09.6-2.95,1.2-5.88,1.88-8.8.1-.47.21-1,.3-1.48.76-3.31,1.54-6.59,2.37-9.86.13-.47.24-1,.37-1.42Q56,169.71,57.41,165c.18-.65.35-1.27.53-1.9.43-1.45.85-2.89,1.29-4.33.2-.71.41-1.4.62-2.08.59-2,1.21-3.88,1.83-5.82.06-.16.11-.32.16-.48.69-2.1,1.38-4.2,2.11-6.28.22-.59.43-1.19.62-1.79.53-1.48,1.05-2.94,1.59-4.39.21-.6.44-1.17.65-1.78,1-2.73,2.06-5.43,3.13-8.12.1-.26.21-.5.3-.75,1.06-2.6,2.15-5.17,3.24-7.72.16-.35.3-.69.45-1,1.13-2.61,2.31-5.17,3.5-7.73.21-.48.45-1,.66-1.44,1.21-2.54,2.46-5,3.72-7.55.17-.33.35-.66.51-1,1.26-2.44,2.55-4.89,3.87-7.27.1-.19.2-.37.3-.53,1.35-2.46,2.75-4.88,4.14-7.27l.78-1.28q2.07-3.48,4.26-6.85c.24-.41.5-.77.74-1.16q2.27-3.51,4.63-6.9c1.25-1.83,2.53-3.59,3.83-5.33.36-.48.71-1,1.07-1.42q1.5-2,3-4c.33-.43.64-.85,1-1.24,1.3-1.64,2.62-3.25,4-4.81.18-.24.37-.45.57-.68,1.14-1.35,2.3-2.64,3.47-3.94.4-.44.81-.9,1.22-1.34.81-.88,1.62-1.76,2.43-2.6l1.3-1.35c.9-.93,1.79-1.82,2.72-2.72l1-1c1.26-1.19,2.48-2.35,3.74-3.5.26-.21.5-.43.74-.65l3-2.65c.64-.54,1.27-1,1.88-1.59.46-.36.93-.76,1.37-1.12.68-.55,1.36-1.08,2-1.59.43-.34.84-.69,1.29-1,.79-.61,1.61-1.21,2.39-1.77.32-.25.63-.48.94-.69,1.13-.82,2.25-1.58,3.37-2.35,1.69-1.14,3.41-2.21,5.13-3.26l1-.62c1.67-1,3.35-1.91,5-2.8.32-.18.65-.34,1-.51,1.36-.69,2.73-1.38,4.11-2,.31-.12.59-.28.9-.42,1.57-.73,3.15-1.38,4.72-2,.38-.15.72-.29,1.11-.43,1.25-.48,2.51-.93,3.77-1.37l1-.35c1.53-.5,3-1,4.56-1.39l1-.26c1.21-.32,2.42-.6,3.65-.87.4-.11.79-.19,1.2-.28,1.49-.31,3-.61,4.5-.84l.33,0c1.39-.21,2.75-.39,4.13-.54L195.82,4c1.22-.11,2.42-.19,3.63-.25.29,0,.59,0,.9-.06,1.47-.06,3-.08,4.41,0,.37,0,.76,0,1.14,0,1.16,0,2.34.09,3.5.15.62.05,1.23.08,1.87.14L169.75.32c-.37,0-.75,0-1.13-.09s-.5,0-.74,0C166.7.1,165.53.06,164.36,0c-.36,0-.74,0-1.11,0-1.49,0-2.94,0-4.43.06h-.22a5,5,0,0,1-.66.05c-1.2.07-2.42.14-3.65.27-.42,0-.85,0-1.27.12-1.37.15-2.75.33-4.11.54a2.33,2.33,0,0,0-.29,0s-.06,0-.07,0c-1.5.26-3,.54-4.48.85-.41.09-.82.16-1.25.28-1.18.26-2.41.56-3.61.87l-.7.17c-.11,0-.21.06-.31.1-1.5.42-3,.87-4.56,1.39-.33.09-.69.24-1,.33-1.27.45-2.52.91-3.76,1.38l-.72.27-.39.16c-1.58.62-3.18,1.3-4.75,2-.28.13-.56.28-.84.42-1.39.63-2.78,1.3-4.17,2-.19.11-.41.2-.63.3s-.24.14-.32.19c-1.68.9-3.35,1.84-5,2.82l-1,.61c-1.73,1.06-3.46,2.13-5.16,3.28h0c-1.12.76-2.23,1.53-3.32,2.32l-1.09.78c-.76.56-1.51,1.13-2.27,1.68l-1.31,1c-.67.54-1.33,1-2,1.58-.47.38-1,.8-1.43,1.17s-1,.78-1.43,1.18h0a4.36,4.36,0,0,1-.4.35q-1.51,1.31-3,2.67l-.73.64c-1.25,1.15-2.48,2.31-3.72,3.51l-1,1c-.89.9-1.79,1.77-2.68,2.71l-1.33,1.36-2.37,2.53c-.24.28-.48.52-.72.78s-.39.44-.58.65C75.25,45.74,74.14,47,73,48.29c-.21.26-.47.54-.68.81-1.32,1.54-2.62,3.14-3.92,4.76-.34.42-.69.88-1,1.31q-1.48,1.89-3,3.86c-.36.5-.74,1-1.11,1.49-1.28,1.74-2.55,3.49-3.81,5.31-1.57,2.24-3.11,4.55-4.63,6.88-.24.38-.52.79-.76,1.19-1.45,2.25-2.85,4.51-4.22,6.81-.27.44-.54.91-.81,1.35-1.41,2.38-2.77,4.76-4.12,7.18-.11.23-.22.44-.35.66-1.28,2.36-2.56,4.73-3.79,7.15-.18.35-.37.71-.56,1.09-1.24,2.45-2.48,5-3.66,7.46-.24.52-.48,1-.73,1.52-1.17,2.53-2.35,5.1-3.47,7.67-.17.36-.32.73-.47,1.1-1.09,2.51-2.15,5.08-3.2,7.64-.11.28-.21.53-.33.79-1.05,2.68-2.1,5.36-3.11,8.08a8.26,8.26,0,0,1-.34.87c-.13.33-.23.68-.35,1-.51,1.38-1,2.77-1.5,4.16l-.72,2.06c-.7,2-1.4,4.07-2.07,6.15-.09.3-.2.6-.3.93-.56,1.77-1.13,3.56-1.68,5.35-.22.76-.45,1.5-.68,2.25-.42,1.39-.83,2.78-1.23,4.19-.11.37-.23.75-.33,1.14s-.15.54-.23.8q-1.34,4.77-2.59,9.61c-.1.47-.24,1-.37,1.45-.82,3.25-1.6,6.53-2.34,9.81a5.54,5.54,0,0,1-.14.55c-.07.33-.13.66-.19,1-.65,2.87-1.26,5.73-1.84,8.65,0,.08,0,.14-.05.24-.59,2.94-1.14,5.88-1.67,8.84-.05.34-.11.67-.18,1s-.07.51-.12.76q-.7,4-1.29,7.93c-.09.57-.17,1.12-.25,1.67-.36,2.31-.67,4.62-1,6.93-.06.38-.12.76-.15,1.15,0,.22,0,.44-.08.64-.33,2.56-.65,5.12-.94,7.68-.06.56-.12,1.15-.18,1.7-.22,2.11-.44,4.22-.63,6.31,0,.47-.09.91-.13,1.36,0,.28-.05.56-.08.85q-.31,3.72-.58,7.47c0,.43-.06.87-.1,1.31q-.21,3.24-.38,6.47c0,.4-.06.76-.07,1.15s0,.69,0,1.06c-.1,2.22-.2,4.46-.27,6.68,0,.33,0,.67,0,1-.08,2.51-.14,5-.16,7.54,0,.28,0,.53,0,.81s0,.83,0,1.24c0,2,0,4,0,6,0,.64,0,1.28,0,1.92,0,2.48.08,5,.15,7.45a4.34,4.34,0,0,1,0,.51c0,.39,0,.81,0,1.2.07,2.08.17,4.19.28,6.25,0,.7.05,1.38.07,2.06.13,2.53.29,5,.47,7.57a1.48,1.48,0,0,0,0,.29c0,.29.06.58.08.89.17,2.34.37,4.66.59,7,0,.63.11,1.26.15,1.88.27,2.63.54,5.26.84,7.84,0,.11,0,.21,0,.29s0,.47.1.69c.31,2.63.65,5.23,1,7.81.09.51.16,1,.24,1.52.37,2.72.81,5.42,1.28,8.12,0,.26.05.52.09.79s.12.56.17.85c.54,3.07,1.1,6.13,1.7,9.16.08.42.16.83.25,1.24.64,3.14,1.32,6.28,2,9.36a.31.31,0,0,1,0,.16c.12.49.25.95.36,1.42.35,1.44.67,2.84,1,4.26.19.76.39,1.52.58,2.27.3,1.19.62,2.36.94,3.54.22.82.45,1.65.68,2.46.31,1.11.63,2.22.94,3.29.26.87.51,1.71.77,2.54.31,1.06.63,2.1,1,3.15.13.46.28.92.43,1.39.08.29.18.55.27.83.79,2.45,1.62,4.88,2.46,7.31.13.37.3.74.42,1.14.79,2.21,1.61,4.41,2.44,6.57.17.45.35.89.54,1.33.92,2.38,1.86,4.71,2.85,7,.23.52.45,1,.66,1.54,1,2.37,2.07,4.72,3.19,7,24.15,51.15,59.1,78.67,96.2,81.93l41.51,3.67c-37.09-3.28-72-30.81-96.21-81.92-1.09-2.32-2.14-4.69-3.17-7.06Z"></path><path class="cls-2" d="M136.66,144.84c38.86-55.77,94-51.38,122.93,9.8S280.39,311,241.48,366.77s-94,51.4-122.91-9.78S97.76,200.63,136.66,144.84Zm87,184.26c25.69-36.85,31-99.71,12-140.11s-55.53-43.3-81.2-6.45-31,99.69-11.94,140.1,55.51,43.29,81.18,6.46Z"></path><path class="cls-3" d="M118.83,107.17c52.1-74.74,126-68.87,164.71,13.09s27.86,209.48-24.23,284.19-126,68.87-164.71-13.1S66.76,181.91,118.83,107.17Zm122.65,259.6c38.91-55.79,47-151,18.11-212.13s-84.07-65.57-122.93-9.8-47,151-18.09,212.15,84,65.57,122.91,9.78Z"></path><path class="cls-2" d="M101,69.49C166.43-24.36,258.86-17,307.48,85.92s35,262.39-30.38,356.23S119.28,528.62,70.65,425.73,35.65,163.31,101,69.49Zm158.27,335c52.09-74.71,62.94-202.22,24.23-284.19S170.93,32.43,118.83,107.17,55.89,309.38,94.6,391.35s112.62,87.86,164.71,13.1Z"></path><path class="cls-2" d="M172.26,220.23c12.47-17.89,30.16-16.5,39.43,3.12s6.67,50.18-5.81,68.06-30.15,16.48-39.44-3.14S159.78,238.13,172.26,220.23Z"></path><path class="cls-3" d="M154.45,182.54c25.67-36.85,62.1-34,81.2,6.45s13.73,103.26-12,140.11-62.1,33.94-81.18-6.46S128.77,219.36,154.45,182.54Zm51.43,108.87c12.48-17.88,15.08-48.42,5.81-68.06s-27-21-39.43-3.12-15.08,48.4-5.82,68,27,21,39.44,3.14Z"></path></g></g></svg> 