<?xml version="1.0" encoding="UTF-8"?> <svg xmlns="http://www.w3.org/2000/svg" viewBox="0 0 753.77 710.55"><defs><style>.cls-1{fill:#30b7bd;opacity:0.75;}</style></defs><title>Asset 9</title><g id="Layer_2" data-name="Layer 2"><g id="Isolation_Mode" data-name="Isolation Mode"><path class="cls-1" d="M13.94,276.4C34.55,214.81,55.38,152.9,93.17,99.94c19.11-27,41.2-50.63,66-68.16S211.5,2.86,241.43.47c23.95-1.91,49.45,1.94,76.38,13,70.06,32.76,135.85,75.62,195.91,125.88,20,16.73,39.4,34.27,57.84,52.34,71,74.1,147,148.48,176.6,247,20.3,74.88-16.71,135.88-75,180.54a380,380,0,0,1-64.05,39.14c-170.24,80.67-388.53,76.39-529.68-74.1C18.35,515.91-9.12,431,2.68,346.4A435.57,435.57,0,0,1,13.94,276.4Z"></path></g></g></svg> 