<?xml version="1.0" encoding="UTF-8"?> <svg xmlns="http://www.w3.org/2000/svg" viewBox="0 0 868.46 703.52"><defs><style>.cls-1{isolation:isolate;}.cls-2{fill:#f3f3f3;mix-blend-mode:screen;}</style></defs><title>Asset 8</title><g class="cls-1"><g id="Layer_2" data-name="Layer 2"><g id="Isolation_Mode" data-name="Isolation Mode"><path class="cls-2" d="M91.15,22.28c-25.92,11-45,27.35-58.91,47.13s-22.56,43-27.65,67.73A579.85,579.85,0,0,0,.06,219.73C-1.52,372.13,50.83,526.41,174.81,625.6,301.55,724.78,475.12,724.78,606.36,651A473.75,473.75,0,0,0,680,601.5c115-93.78,190.55-240.31,188.4-387.1a214.73,214.73,0,0,0-17.91-65.23c-18.77-40.68-51.66-74.6-102.63-96.64C673.49,21.53,608.4,77.32,541,121.11c-22.47,14.59-45.2,27.85-68.62,36.11-24.81,8.27-48.23-2.75-71-19.6s-44.76-39.51-66.8-54.54C315.9,68.47,297.11,53.92,278,41.17,220.71,3,160.53-19.08,91.15,22.28Z"></path></g></g></g></svg> 