<?xml version="1.0" encoding="UTF-8"?> <svg xmlns="http://www.w3.org/2000/svg" viewBox="0 0 95.12 117.83"><defs><style>.cls-1{fill:#ff5c97;opacity:0.75;}.cls-2{fill:#fff;}</style></defs><title>Asset 4</title><g id="Layer_2" data-name="Layer 2"><g id="Illustrate"><path class="cls-1" d="M0,56.69C0,62.2,3.8,68.86,8.48,71.57l78.16,45.12c4.68,2.71,8.48.43,8.48-5.08V61.14c0-5.51-3.8-12.17-8.48-14.88L8.48,1.14C3.8-1.57,0,.71,0,6.22Z"></path><path class="cls-2" d="M68.74,67V58.39a5.4,5.4,0,0,0-.9-3.14,9,9,0,0,0-3-2.54V49.15l1.4.81a13,13,0,0,1,4.56,4,9.35,9.35,0,0,1,1.37,5.17V69.22a5.33,5.33,0,0,0,.44,2.34A3.27,3.27,0,0,0,74,73l1.16.67v3.61L74,76.58q-.92-.52-1.35-.15a2.6,2.6,0,0,0-.44,1.84V88.39c0,2.06-.46,3.26-1.37,3.61s-2.44-.1-4.56-1.32l-1.4-.81V86.31c1.41.82,2.41,1.13,3,.94s.9-.89.9-2.11V76.57A4.94,4.94,0,0,1,69,74.78a1.31,1.31,0,0,1,.65-.74,6.12,6.12,0,0,1,1.3-.33,3.43,3.43,0,0,0,.91-.17l-.91-1.23a13.71,13.71,0,0,1-1.72-2.59A6.59,6.59,0,0,1,68.74,67Z"></path><path class="cls-2" d="M21.17,42.5q.91.53,1.35.15A2.6,2.6,0,0,0,23,40.81V30.69c0-2,.46-3.22,1.37-3.58s2.44.07,4.56,1.29l1.4.81v3.56c-1.41-.81-2.41-1.13-3-.94s-.89.89-.89,2.11v8.62a3.27,3.27,0,0,1-.48,2.16,2.86,2.86,0,0,1-1.71.6l-.92.18a13.08,13.08,0,0,0,.92,1.23c.58.78,1,1.38,1.29,1.83a5.69,5.69,0,0,1,.66,1.5,7.62,7.62,0,0,1,.24,2.06v8.57a5.45,5.45,0,0,0,.89,3.15,9.08,9.08,0,0,0,3,2.53v3.56l-1.4-.81a13.2,13.2,0,0,1-4.56-3.94A9.36,9.36,0,0,1,23,60V49.86a5.33,5.33,0,0,0-.44-2.34,3.27,3.27,0,0,0-1.35-1.41L20,45.44V41.83Z"></path></g></g></svg> 