<?xml version="1.0" encoding="UTF-8"?> <svg xmlns="http://www.w3.org/2000/svg" viewBox="0 0 253.56 262.31"><defs><style>.cls-1{fill:#912355;}.cls-2{fill:#ff5c97;}</style></defs><title>Asset 4</title><g id="Layer_2" data-name="Layer 2"><g id="Layer_1-2" data-name="Layer 1"><polygon class="cls-1" points="50.84 22.37 56.04 33.54 42.87 41.53 37.66 30.37 50.84 22.37"></polygon><polygon class="cls-1" points="26.3 37.31 31.49 48.48 18.35 56.49 13.15 45.32 26.3 37.31"></polygon><polygon class="cls-1" points="163.14 182.11 168.33 193.28 31.49 48.48 26.3 37.31 163.14 182.11"></polygon><polygon class="cls-1" points="248.36 221.33 253.56 232.49 218.07 235.09 212.86 223.95 248.36 221.33"></polygon><polygon class="cls-1" points="212.86 223.95 218.07 235.09 204.57 262.31 199.38 251.15 212.86 223.95"></polygon><polygon class="cls-2" points="174.17 174.8 37.66 30.37 50.84 22.37 0 0 13.15 45.32 26.3 37.31 163.14 182.11 153.44 202.54 199.38 251.15 212.86 223.95 248.36 221.33 202.41 172.72 174.17 174.8"></polygon><polygon class="cls-1" points="199.38 251.15 204.57 262.31 158.63 213.7 153.44 202.54 199.38 251.15"></polygon><polygon class="cls-2" points="174.17 174.8 37.66 30.37 50.84 22.37 0 0 13.15 45.32 26.3 37.31 163.14 182.11 153.44 202.54 199.38 251.15 212.86 223.95 248.36 221.33 202.41 172.72 174.17 174.8"></polygon></g></g></svg> 