<?xml version="1.0" encoding="UTF-8"?> <svg xmlns="http://www.w3.org/2000/svg" viewBox="0 0 254.83 394.52"><defs><style>.cls-1{fill:#6e7a96;}.cls-2{fill:#dbefff;opacity:0.85;}.cls-3{fill:#fff;}.cls-4{fill:#2d354f;}</style></defs><title>Calender</title><g id="Layer_2" data-name="Layer 2"><g id="Illustrate"><path class="cls-1" d="M238.79,269.18c8.86-5.11,16-17.55,16-27.79V16.9c0-5.11-1.8-8.71-4.7-10.38h0l-9.44-5.45c-2.9-1.68-6.91-1.44-11.34,1.12L16,125.34c-8.86,5.11-16,17.55-16,27.79V377.62c0,5.11,1.79,8.71,4.7,10.38l9.43,5.45c2.91,1.68,6.92,1.44,11.35-1.12Z"></path><path class="cls-2" d="M254.83,241.39c0,10.24-7.18,22.68-16,27.79L25.49,392.33c-8.86,5.12-16,1-16-9.26V158.58c0-10.24,7.18-22.68,16-27.79L238.78,7.64c8.86-5.12,16.05-1,16.05,9.26Z"></path><polygon class="cls-3" points="194.97 99.12 158.9 119.95 158.9 164.1 194.97 143.27 194.97 99.12"></polygon><polygon class="cls-3" points="111.92 299.64 111.92 256.5 75.84 277.32 75.84 320.47 111.92 299.64"></polygon><polygon class="cls-3" points="111.92 197.51 75.84 218.34 75.84 271.03 111.92 250.2 111.92 197.51"></polygon><polygon class="cls-3" points="117.37 188.08 153.44 167.25 153.44 123.1 117.37 143.93 117.37 188.08"></polygon><polygon class="cls-3" points="31.59 296.58 70.39 274.18 70.39 221.49 31.59 243.89 31.59 296.58"></polygon><polygon class="cls-3" points="153.44 226.23 153.44 173.54 117.37 194.37 117.37 247.06 153.44 226.23"></polygon><polygon class="cls-3" points="70.39 215.2 70.39 171.05 31.58 193.45 31.59 237.6 70.39 215.2"></polygon><polygon class="cls-3" points="200.42 205.4 200.42 248.54 239.23 226.14 239.23 183 200.42 205.4"></polygon><polygon class="cls-3" points="200.42 140.12 239.22 117.72 239.22 73.57 200.42 95.97 200.42 140.12"></polygon><polygon class="cls-3" points="194.97 208.54 158.9 229.37 158.9 272.52 194.97 251.69 194.97 208.54"></polygon><polygon class="cls-3" points="239.22 124.02 200.42 146.42 200.42 199.1 239.23 176.7 239.22 124.02"></polygon><path class="cls-4" d="M80.73,137c-2.51,0-4.27-2-4.27-4.88a10.43,10.43,0,0,1,4.87-8.42,5.5,5.5,0,0,1,2.77-.81c2.52,0,4.27,2,4.27,4.88a10.45,10.45,0,0,1-4.86,8.42A5.54,5.54,0,0,1,80.73,137Z"></path><path class="cls-4" d="M70.11,77.14c-13-7.53-23.59-1.43-23.59,13.62A43.19,43.19,0,0,0,49.59,106l7.69-4.44a33.24,33.24,0,0,1-2-10.77c0-3,.56-8.13,4.34-8.13a13.23,13.23,0,0,1,6.17,2.06C76,90.6,85,106.17,85,118c0,2.41-.36,6.11-2.4,7.53h0c-.07,0-.12,0-.18.09a8.33,8.33,0,0,0-3.78,6.54c0,1.8,1,2.8,2.32,2.68,7.57-.16,12.75-6.3,12.75-16.83C93.71,103,83.14,84.66,70.11,77.14Z"></path><path class="cls-4" d="M189.32,74.33c-2.51,0-4.27-2-4.27-4.87A10.45,10.45,0,0,1,189.92,61a5.59,5.59,0,0,1,2.77-.8c2.52,0,4.27,2,4.27,4.87a10.47,10.47,0,0,1-4.86,8.43A5.59,5.59,0,0,1,189.32,74.33Z"></path><path class="cls-4" d="M178.7,14.44c-13-7.52-23.59-1.42-23.59,13.63a43.28,43.28,0,0,0,3.07,15.21l7.7-4.45a33,33,0,0,1-2-10.77c0-3,.56-8.12,4.34-8.12a13.35,13.35,0,0,1,6.18,2c10.24,5.92,19.23,21.49,19.23,33.32,0,2.41-.36,6.1-2.39,7.53h0l-.18.08a8.33,8.33,0,0,0-3.78,6.54c0,1.81,1,2.81,2.32,2.68,7.57-.16,12.75-6.3,12.75-16.83C202.3,40.26,191.74,22,178.7,14.44Z"></path></g></g></svg> 