<svg xmlns="http://www.w3.org/2000/svg" xmlns:xlink="http://www.w3.org/1999/xlink" width="1113.999" height="531.742" viewBox="0 0 1113.999 531.742"><defs><style>.a{opacity:0.6;}.b{fill:url(#a);}.c{fill:#00c1c4;}.d{fill:url(#b);}.e{fill:url(#e);}.f{fill:url(#i);}.g{fill:url(#j);}.h{fill:url(#k);}</style><linearGradient id="a" x1="0.5" y1="1" x2="0.5" gradientUnits="objectBoundingBox"><stop offset="0.148" stop-color="#ff579a"/><stop offset="1" stop-color="#00c1c4"/></linearGradient><linearGradient id="b" x1="0.5" y1="1" x2="0.5" gradientUnits="objectBoundingBox"><stop offset="0" stop-color="#f45c9c"/><stop offset="0" stop-color="#ff579a"/><stop offset="1" stop-color="#bb5d9b"/></linearGradient><linearGradient id="e" x1="0.5" y1="1" x2="0.5" gradientUnits="objectBoundingBox"><stop offset="0" stop-color="#d568a1"/><stop offset="0.209" stop-color="#bf71a4"/><stop offset="0.457" stop-color="#ac78a7"/><stop offset="0.716" stop-color="#a17da9"/><stop offset="1" stop-color="#9e7faa"/></linearGradient><linearGradient id="i" x1="0.5" y1="1" x2="0.5" gradientUnits="objectBoundingBox"><stop offset="0" stop-color="#888ec4"/><stop offset="0.221" stop-color="#5c9ec4"/><stop offset="0.458" stop-color="#34adc4"/><stop offset="0.675" stop-color="#17b8c4"/><stop offset="0.862" stop-color="#06bec4"/><stop offset="1" stop-color="#00c1c4"/></linearGradient><linearGradient id="j" x1="0.5" y1="1" x2="0.5" gradientUnits="objectBoundingBox"><stop offset="0" stop-color="#88a5c4"/><stop offset="0.028" stop-color="#76a8c4"/><stop offset="0.087" stop-color="#56afc4"/><stop offset="0.153" stop-color="#3bb4c4"/><stop offset="0.228" stop-color="#25b9c4"/><stop offset="0.316" stop-color="#14bcc4"/><stop offset="0.425" stop-color="#08bfc4"/><stop offset="0.577" stop-color="#01c0c4"/><stop offset="1" stop-color="#00c1c4"/></linearGradient><linearGradient id="k" x1="0.5" y1="1" x2="0.5" gradientUnits="objectBoundingBox"><stop offset="0" stop-color="#88a5c4"/><stop offset="0.221" stop-color="#5cadc4"/><stop offset="0.458" stop-color="#34b6c4"/><stop offset="0.675" stop-color="#17bcc4"/><stop offset="0.862" stop-color="#06bfc4"/><stop offset="1" stop-color="#00c1c4"/></linearGradient></defs><g class="a" transform="translate(-3470.747 -3366.533)"><path class="b" d="M3822.525,3668.388h-10.867l-23.97-23.97a39.812,39.812,0,0,0-28.148-11.66h-31.57l-28.224-28.224a36.6,36.6,0,0,0-25.875-10.718H3662.51v-32.73h35.334a43.719,43.719,0,0,0,30.916-12.805l80.411-80.411v-6.614a19.486,19.486,0,0,0-19.486-19.487h-14.9l-17.215-17.214a5.691,5.691,0,0,0-9.715,4.023v30.554h-33.546l-23.386-23.386,14.674-19.183v-6.136a17.13,17.13,0,0,0-17.129-17.131H3510.561a51.634,51.634,0,0,0-29.879,9.524,23.579,23.579,0,0,0-9.935,19.229v26.007a1.9,1.9,0,0,0,3.245,1.344l14.284-14.284a26.089,26.089,0,0,1,18.444-7.64h.857a31.476,31.476,0,0,1,22.256,9.22l29.517,27.263v40.331a57.105,57.105,0,0,0,16.727,40.38l15.276,15.277,41.922,41.921a43.235,43.235,0,0,0,30.571,12.663h12.75l21.44,21.44-13.411,13.411a33.774,33.774,0,0,0-9.894,23.883v29.029a40.668,40.668,0,0,0,11.913,28.757l22.681,22.683v77.9a60.012,60.012,0,0,0,38.1,55.871l4.048,1.588v-70.9l92.494-100.91v-27.438A21.448,21.448,0,0,0,3822.525,3668.388Z" transform="translate(0 9.187)"/><path class="c" d="M3676.28,3401.875h37.363a24.857,24.857,0,0,0-24.857-24.856H3653v1.577A23.281,23.281,0,0,0,3676.28,3401.875Z" transform="translate(62.56 3.599)"/><path class="d" d="M4286.958,3689.251v27.936a17.618,17.618,0,0,0,17.618,17.618v-27.936A17.618,17.618,0,0,0,4286.958,3689.251Z" transform="translate(280.171 110.775)"/><path class="b" d="M4457.042,3434.013a18.239,18.239,0,0,0-18.239-18.239H4391.25l-8.685-8.684a35.592,35.592,0,0,0-25.167-10.425h-66.306l-18.719-18.72a38.966,38.966,0,0,0-27.552-11.412h-42.978a41.815,41.815,0,0,0-29.568,12.246l-16.432,16.432h-24.372a41.815,41.815,0,0,0-29.567,12.248l-14.79,14.789h-80.854l-18.18-18.179a29.371,29.371,0,0,0-20.771-8.6h-15.147a23.132,23.132,0,0,0-16.357,6.774l-20.767,20.767a19.657,19.657,0,0,0,0,27.8l2.274,2.274,32.345-32.343,12.128,12.128L3947.55,3447.1a27.318,27.318,0,0,0-8,19.319v6.876h-26.688a31.488,31.488,0,0,0-31.488,31.489v5.909a45.75,45.75,0,0,0-32.353,13.4l0,0a22.97,22.97,0,0,0,0,32.485l7.005,7.005,27.626-27.626h18.192l12.3,12.3a33.933,33.933,0,0,0,23.995,9.94h11.527l12.128-12.13H3982l10.161,10.16,20.793,20.794-22.867,22.867H3932.22l-9.488-9.488a32.312,32.312,0,0,0-22.847-9.463h-20.873a38.087,38.087,0,0,0-26.93,11.154l-16.151,16.152a56.692,56.692,0,0,0,0,80.173l6.047,6.046a73.085,73.085,0,0,0,51.681,21.408h21.63v40.2a44.478,44.478,0,0,0,13.027,31.448l9.209,9.209v46.733a32.609,32.609,0,0,0,32.61,32.609,54.688,54.688,0,0,0,47.19-27.048l.634-1.083a54.694,54.694,0,0,0,7.5-27.641v-77.138l31.333-31.333a20.767,20.767,0,0,0,0-29.369l-55.057-55.056,10.584-10.584,32.972,32.97a31.988,31.988,0,0,0,45.238,0l11.408-11.408-41.439-41.441,9.122-9.121,10.308,10.31a34,34,0,0,0,24.037,9.956h10l23.7,23.576a15.263,15.263,0,0,0,21.558-.028l40.084-40.084,46.689,46.689a16.587,16.587,0,0,0,11.73,4.859,18.4,18.4,0,0,0,18.4-18.4v-16.979l20.783-20.784a29.113,29.113,0,0,0,8.527-20.587v-12.2h22.03A34.653,34.653,0,0,0,4351.968,3544l2.556-2.555,23.588-23.588a41.732,41.732,0,0,0,12.221-29.506v-25.166h42.786l23.923-23.924Z" transform="translate(119.653 0)"/><path class="d" d="M4274.815,3651.8a25.03,25.03,0,0,0-17.7-7.332H4226.3a25.035,25.035,0,0,0-17.7,7.332l-16.639,16.64a35.667,35.667,0,0,0-10.394,23.241h0a30.646,30.646,0,0,0,30.868,32.635h33.819l10.523,10.523a36.539,36.539,0,0,0,25.837,10.7H4306.9V3706.3a54.112,54.112,0,0,0-15.849-38.266Z" transform="translate(243.979 95.402)"/><path class="e" d="M4135.423,3599.47l30.511,30.511a17.177,17.177,0,0,0,24.29,0l-30.511-30.511A17.174,17.174,0,0,0,4135.423,3599.47Z" transform="translate(228.155 78.231)"/><path class="e" d="M4199.923,3627.719v3.5h26.364A18.716,18.716,0,0,0,4245,3612.5V3609h-26.364A18.716,18.716,0,0,0,4199.923,3627.719Z" transform="translate(250.295 83.231)"/><path class="d" d="M3983.469,3681.683v28.885h10.909a13.885,13.885,0,0,0,13.885-13.885V3667.8h-10.908A13.885,13.885,0,0,0,3983.469,3681.683Z" transform="translate(175.997 103.412)"/><path class="e" d="M4198.422,3594.013V3570.38H4189.5a11.36,11.36,0,0,0-11.36,11.36v23.633h8.924A11.36,11.36,0,0,0,4198.422,3594.013Z" transform="translate(242.818 69.972)"/><path class="f" d="M4256.637,3511.6l30.509-30.511a17.174,17.174,0,0,0-24.289,0l-30.51,30.511A17.177,17.177,0,0,0,4256.637,3511.6Z" transform="translate(261.426 37.597)"/><path class="g" d="M3809.907,3373.089h-62.339a20.411,20.411,0,0,0-17.78,10.387l-1.884,3.344c-4.1,7.141-6.091,15.928-.031,22.024l20.852,20.967v11.29a34.369,34.369,0,0,0,10.066,24.3l12.623,12.623,58.849-58.849v-25.73A20.356,20.356,0,0,0,3809.907,3373.089Z" transform="translate(86.946 2.251)"/><path class="h" d="M3847.795,3449.33v-11.045h-10.343a6.372,6.372,0,0,0-6.371,6.371V3455h11.044A5.669,5.669,0,0,0,3847.795,3449.33Z" transform="translate(123.688 24.629)"/><path class="h" d="M3865.578,3447.983v-26.317h-.889a15.824,15.824,0,0,0-15.825,15.825V3464.7A16.714,16.714,0,0,0,3865.578,3447.983Z" transform="translate(129.792 18.925)"/></g></svg>