<?xml version="1.0" encoding="UTF-8"?> <svg xmlns="http://www.w3.org/2000/svg" xmlns:xlink="http://www.w3.org/1999/xlink" viewBox="0 0 563 595.42"><defs><style>.cls-1{fill:#ccc;}.cls-2{fill:gray;}.cls-3{fill:#13263d;}.cls-4{fill:#fcfcfc;}.cls-12,.cls-4{opacity:0.75;isolation:isolate;}.cls-5{fill:#fff;}.cls-6{fill:#ebeff0;}.cls-7{fill:#c8cbcc;}.cls-8{fill:#e6e6e6;}.cls-9{fill:#b3b3b3;}.cls-10{fill:#666;}.cls-11{fill:#00b16a;}.cls-12{fill:url(#linear-gradient);}</style><linearGradient id="linear-gradient" x1="389.13" y1="284.78" x2="389.13" y2="181.84" gradientTransform="matrix(1, 0, 0, -1, 0, 398.53)" gradientUnits="userSpaceOnUse"><stop offset="0" stop-color="#9b509a"></stop><stop offset="1" stop-color="#6bffed"></stop></linearGradient></defs><title>SoBold_Laptop</title><g id="Layer_2" data-name="Layer 2"><g id="Layer_1-2" data-name="Layer 1"><path class="cls-1" d="M552.71,451.49l-12.08,10.28-327.38-189-201,116.07L0,387.14v12H0c-.14,1.93.93,3.8,3.3,5.17L331.06,593.49c4.94,2.86,13.56,2.5,19.27-.8L558.86,472.3l1.44-.72a1.63,1.63,0,0,1-.31,0c-1.66,0-3-2.79-3-6.23s1.35-6.23,3-6.23,3,2.79,3,6.23v-7.95Z"></path><path class="cls-1" d="M552.48,189,227.92,1.63C222.11-1.72,217.4.27,217.4,6.08V257.9L563,457.43V205.61C563,199.8,558.29,192.37,552.48,189Z"></path><path class="cls-2" d="M516.35,492.26l16.32-9.43v-3l-16.32,9.42ZM554,467.48a2.89,2.89,0,0,0-1.29,2.26c0,.84.58,1.18,1.29.77a2.87,2.87,0,0,0,1.29-2.26C555.3,467.42,554.72,467.07,554,467.48Zm-19.4,13.21.6.7,15-8.69.68-1.43v-2l-16.28,9.42Z"></path><path class="cls-3" d="M558.87,459.52,213.26,260V8.17c0-5.81,4.71-7.81,10.52-4.45L548.34,191.11c5.82,3.35,10.53,10.78,10.53,16.59Z"></path><polygon class="cls-4" points="545.73 440.61 225.85 255.92 225.85 18.06 545.73 202.74 545.73 440.61"></polygon><path class="cls-5" d="M213.26,260,558.87,459.52,350.33,579.92c-5.7,3.29-14.33,3.65-19.27.8L3.34,391.51c-4.94-2.82-4.34-7.82,1.38-11.13Z"></path><path class="cls-3" d="M185,317.88l10.5,6.06a5.34,5.34,0,0,0,4.8,0L210.6,318c1.31-.75,1.29-2,0-2.77l-10.55-6a5.28,5.28,0,0,0-4.8,0l-10.3,5.94C183.59,315.86,183.61,317.1,185,317.88ZM382.58,510.69l-10.5-6a5.28,5.28,0,0,0-4.8,0l-2,1.13c-1.31.76-1.29,2,.05,2.77l10.5,6.06a5.28,5.28,0,0,0,4.8,0l1.95-1.13C383.94,512.74,383.92,511.5,382.58,510.69Zm-36.76-21.23-10.49-6.06a5.3,5.3,0,0,0-4.81,0l-1.95,1.13c-1.32.76-1.3,2,0,2.77l10.5,6.06a5.34,5.34,0,0,0,4.8,0l2-1.13c1.31-.71,1.29-2-.05-2.73Zm18.38,10.62L353.71,494a5.3,5.3,0,0,0-4.81,0l-1.9,1.14c-1.32.76-1.3,2,0,2.77L357.5,504a5.34,5.34,0,0,0,4.8,0l2-1.13c1.26-.73,1.24-2-.1-2.74Zm9.92-5.73-10.49-6.06a5.28,5.28,0,0,0-4.8,0l-2.6,1.5c-1.32.76-1.3,2,0,2.77l10.5,6.06a5.28,5.28,0,0,0,4.8,0l2.6-1.5c1.35-.72,1.33-2,0-2.73Zm-170-165.43,10.5,6.06a5.34,5.34,0,0,0,4.8,0l10.3-6c1.31-.76,1.29-2-.05-2.77l-10.49-6.06a5.28,5.28,0,0,0-4.8,0l-10.3,5.95c-1.29.8-1.27,2,.07,2.81Zm6.07,22L220.5,345c1.31-.76,1.29-2-.05-2.78l-10.45-6a5.3,5.3,0,0,0-4.81,0l-10.3,5.95c-1.31.75-1.29,2,.05,2.77l10.49,6.06a5.32,5.32,0,0,0,4.79,0Zm-28.09,7.31,10.49,6.06a5.28,5.28,0,0,0,4.8,0l10.31-6c1.31-.76,1.29-2,0-2.77l-10.49-6.06a5.36,5.36,0,0,0-4.81,0l-10.3,6c-1.33.73-1.31,2,0,2.74Zm34,16.9,10.3-5.95c1.31-.76,1.29-2,0-2.77l-10.5-6.06a5.34,5.34,0,0,0-4.8,0l-10.3,6c-1.32.76-1.3,2,0,2.77l10.5,6.06a5.32,5.32,0,0,0,4.85,0Zm18.72,10.81L245.13,380c1.31-.76,1.29-2,0-2.77l-10.5-6.06a5.34,5.34,0,0,0-4.8,0l-10.3,6c-1.31.76-1.29,2,.05,2.77L230,386a5.32,5.32,0,0,0,4.85,0Zm3.48,4.75,10.5,6.06a5.34,5.34,0,0,0,4.8,0l10.3-5.95c1.31-.75,1.29-2,0-2.77L253.41,382a5.28,5.28,0,0,0-4.8,0l-10.3,5.94C236.94,388.69,237,389.91,238.3,390.69Zm34,16.89,10.3-5.95c1.32-.75,1.3-2,0-2.77l-10.5-6.06a5.28,5.28,0,0,0-4.8,0L257,398.69c-1.31.76-1.29,2,0,2.78l10.49,6.06a5.31,5.31,0,0,0,4.83.05Zm18.82,10.87,10.3-5.95c1.32-.76,1.3-2,0-2.77l-10.52-6a5.28,5.28,0,0,0-4.8,0l-10.3,5.95c-1.32.76-1.3,2,0,2.77l10.5,6.06a5.36,5.36,0,0,0,4.84,0Zm19.1,11,10.3-5.94c1.31-.76,1.29-2,0-2.78l-10.52-6a5.28,5.28,0,0,0-4.8,0l-10.3,5.94c-1.32.76-1.3,2,0,2.78l10.5,6.06a5.36,5.36,0,0,0,4.84,0Zm4,5.05,10.49,6.06a5.34,5.34,0,0,0,4.8,0l10.32-5.87c1.31-.76,1.29-2-.05-2.77l-10.49-6.06a5.3,5.3,0,0,0-4.81,0l-10.3,5.95c-1.31.7-1.29,1.94.05,2.71Zm34,16.9,10.3-6c1.31-.76,1.29-2,0-2.77L348,436.69a5.28,5.28,0,0,0-4.8,0l-10.3,5.95c-1.32.76-1.3,2,0,2.77l10.5,6.06a5.35,5.35,0,0,0,4.85-.05Zm3.89,5,10.5,6.06a5.34,5.34,0,0,0,4.8,0l10.3-5.95c1.32-.76,1.3-2,0-2.77l-10.51-6.05a5.28,5.28,0,0,0-4.8,0l-10.3,6c-1.32.71-1.3,2,0,2.72Zm18.73,10.81,10.49,6.06a5.28,5.28,0,0,0,4.8,0l10.31-5.95c1.31-.76,1.29-2-.05-2.77l-10.49-6.06a5.3,5.3,0,0,0-4.81,0l-10.3,5.95c-1.28.77-1.26,2,.08,2.78Zm61,17.83L405.2,469.69a5.28,5.28,0,0,0-4.8,0l-10.3,5.95c-1.32.76-1.3,2,0,2.77l26.66,15.39a5.34,5.34,0,0,0,4.8,0l10.3-5.95c1.35-.79,1.33-2,0-2.8ZM166.57,328.49l19.28,11.13a5.34,5.34,0,0,0,4.8,0L201,333.69c1.32-.76,1.3-2,0-2.78l-19.37-11.12a5.28,5.28,0,0,0-4.8,0l-10.3,5.9C165.21,326.47,165.23,327.69,166.57,328.49Zm-18,10.39L173.08,353a5.34,5.34,0,0,0,4.8,0l10.3-5.95c1.32-.76,1.3-2,0-2.77l-24.55-14.12a5.28,5.28,0,0,0-4.8,0l-10.3,5.95C147.21,336.87,147.23,338.11,148.57,338.88Zm23.61,34.52,10.5,6.06a5.34,5.34,0,0,0,4.8,0l10.3-5.95c1.31-.76,1.29-2,0-2.77l-10.54-6.05a5.28,5.28,0,0,0-4.8,0l-10.3,5.95c-1.32.75-1.3,2,0,2.76Zm19.28,11.13L202,390.59a5.36,5.36,0,0,0,4.81,0l10.3-5.95c1.31-.76,1.29-2-.05-2.77l-10.49-6.06a5.28,5.28,0,0,0-4.8,0l-10.31,5.95C190.1,382.52,190.12,383.76,191.46,384.53Zm29.68,17.16a5.34,5.34,0,0,0,4.8,0l10.3-5.95c1.31-.75,1.29-2,0-2.77l-10.5-6.06a5.28,5.28,0,0,0-4.8,0l-10.3,5.94c-1.32.76-1.3,2,0,2.78Zm8.69,5,10.49,6.06a5.34,5.34,0,0,0,4.8,0l10.3-5.95c1.32-.76,1.3-2,0-2.77L244.92,398a5.28,5.28,0,0,0-4.8,0l-10.3,6C228.47,404.69,228.49,405.91,229.83,406.69ZM249,417.76l10.49,6.06a5.36,5.36,0,0,0,4.81,0l10.3-5.94c1.31-.76,1.29-2-.05-2.78L264.06,409a5.3,5.3,0,0,0-4.81,0L249,415C247.65,415.74,247.67,417,249,417.76Zm19.18,11.07,10.5,6.06a5.28,5.28,0,0,0,4.8,0l10.3-6c1.31-.76,1.29-2,0-2.77l-10.5-6.06a5.28,5.28,0,0,0-4.8,0L268.18,426c-1.35.81-1.33,2.05,0,2.82ZM302.66,446l10.3-5.94c1.32-.76,1.3-2,0-2.78l-10.5-6.06a5.28,5.28,0,0,0-4.8,0l-10.3,6c-1.31.75-1.29,2,0,2.77l10.5,6.06a5.36,5.36,0,0,0,4.81,0Zm3.89,5L317,457.05a5.3,5.3,0,0,0,4.81,0l10.3-5.95c1.31-.76,1.29-2,0-2.77l-10.49-6.06a5.36,5.36,0,0,0-4.81,0l-10.3,6c-1.3.75-1.28,2,.06,2.76ZM341,468.14l10.3-5.94c1.31-.76,1.29-2,0-2.78l-10.5-6.05a5.28,5.28,0,0,0-4.8,0l-10.3,6c-1.32.76-1.3,2,0,2.77l10.5,6.06A5.34,5.34,0,0,0,341,468.14Zm19.18,11.08,10.3-6c1.32-.76,1.3-2,0-2.77L360,464.44a5.34,5.34,0,0,0-4.8,0l-10.3,5.95c-1.31.76-1.29,2,0,2.77l10.5,6.06a5.32,5.32,0,0,0,4.82,0Zm-23.69-6.53-10.49-6a5.34,5.34,0,0,0-4.8,0l-11,6.37c-1.32.76-1.3,2,0,2.78l10.5,6.06a5.34,5.34,0,0,0,4.8,0l11-6.37C337.85,474.69,337.83,473.48,336.49,472.69Zm-164.59-95-10.5-6.06a5.28,5.28,0,0,0-4.8,0l-11,6.37c-1.31.76-1.29,2,.05,2.77l10.5,6.06a5.34,5.34,0,0,0,4.8,0l11-6.38C173.26,379.69,173.24,378.45,171.9,377.69Zm-18.76-10.83-10.49-6.06a5.3,5.3,0,0,0-4.81,0l-11,6.37c-1.32.76-1.3,2,0,2.77l10.5,6.06a5.34,5.34,0,0,0,4.8,0l11-6.37c1.36-.76,1.34-2,0-2.78Zm-19-11-7.51-4.33a5.28,5.28,0,0,0-4.8,0l-11,6.37c-1.31.76-1.29,2,0,2.78l7.5,4.33a5.36,5.36,0,0,0,4.81,0l11-6.37c1.36-.74,1.34-1.95,0-2.76Zm65.3,37.7-19.37-11.18a5.34,5.34,0,0,0-4.8,0l-11,6.38c-1.31.75-1.29,2,0,2.77l19.33,11.16a5.34,5.34,0,0,0,4.8,0l11-6.37c1.35-.72,1.33-2,0-2.74Zm118.12,68.2L297.16,450a5.28,5.28,0,0,0-4.8,0l-11,6.37c-1.32.76-1.3,2,0,2.77l20.4,11.78a5.34,5.34,0,0,0,4.8,0l11-6.37c1.36-.73,1.34-2,0-2.75ZM288.48,445l-80.75-46.62a5.3,5.3,0,0,0-4.81,0l-11,6.37c-1.32.76-1.29,2,0,2.78l80.75,46.62a5.36,5.36,0,0,0,4.81,0l11-6.37C289.84,447,289.82,445.76,288.48,445Zm125.28,50.5-35.63-20.57a5.28,5.28,0,0,0-4.8,0L363,480.84c-1.31.76-1.29,2,.05,2.77l35.64,20.58a5.34,5.34,0,0,0,4.8,0l10.3-5.95C415.12,497.51,415.1,496.26,413.76,495.49ZM130.48,349.33l33.1,19.11a5.36,5.36,0,0,0,4.81,0l10.3-5.94c1.31-.76,1.29-2-.05-2.78l-33.1-19.11a5.28,5.28,0,0,0-4.8,0l-10.3,5.94C129.12,347.31,129.14,348.55,130.48,349.33Zm83.59,6.58L224.56,362a5.36,5.36,0,0,0,4.81,0l10.3-5.94c1.31-.76,1.29-2,0-2.78l-10.49-6.06a5.3,5.3,0,0,0-4.81,0L214,353.14c-1.29.75-1.27,2,.07,2.77Zm19.14,11L243.7,373a5.36,5.36,0,0,0,4.81,0l10.3-5.94c1.31-.76,1.29-2-.05-2.78l-10.49-6.05a5.3,5.3,0,0,0-4.81,0l-10.3,5.95c-1.31.8-1.29,2,.05,2.81Zm19.14,11L262.84,384a5.36,5.36,0,0,0,4.81,0l10.3-6c1.31-.76,1.29-2-.05-2.77l-10.49-6.06a5.28,5.28,0,0,0-4.8,0l-10.31,5.95c-1.3.86-1.3,2.1,0,2.87ZM271.49,389,282,395.12a5.36,5.36,0,0,0,4.81,0l10.3-5.95c1.31-.76,1.29-2,0-2.77l-10.49-6.06a5.28,5.28,0,0,0-4.8,0l-10.31,6c-1.38.71-1.36,2,0,2.72Zm29.64,17.11a5.34,5.34,0,0,0,4.8,0l10.3-5.95c1.31-.76,1.29-2-.05-2.77l-10.49-6.06a5.28,5.28,0,0,0-4.8,0l-10.3,6c-1.32.76-1.3,2,0,2.77Zm19.14,11a5.28,5.28,0,0,0,4.8,0l10.3-5.95c1.31-.76,1.29-2-.05-2.77l-10.49-6.06a5.28,5.28,0,0,0-4.8,0l-10.3,6c-1.32.76-1.3,2,0,2.77Zm23.94,11.08,10.3-5.95c1.31-.76,1.29-2,0-2.77l-10.51-6a5.34,5.34,0,0,0-4.8,0l-10.3,6c-1.32.76-1.3,2,0,2.77l10.5,6.06a5.3,5.3,0,0,0,4.81,0Zm14.34,11a5.28,5.28,0,0,0,4.8,0l10.3-6c1.31-.76,1.29-2,0-2.77l-10.5-6.06a5.34,5.34,0,0,0-4.8,0L348,430.49c-1.32.76-1.3,2,0,2.77Zm23.94,11.08,10.3-5.95c1.32-.76,1.3-2,0-2.77l-10.5-6.06a5.28,5.28,0,0,0-4.8,0l-10.3,5.94c-1.32.76-1.3,2,0,2.78l10.5,6.06a5.34,5.34,0,0,0,4.8.12Zm19.14,11.05,10.3-5.95c1.32-.75,1.3-2,0-2.77l-10.54-5.92a5.28,5.28,0,0,0-4.8,0l-10.3,5.94c-1.32.76-1.3,2,0,2.78l10.5,6.06a5.33,5.33,0,0,0,4.84,0Zm14.1-3.75-10.3,6.11c-1.31.76-1.29,2,0,2.78l10.5,6.06a5.34,5.34,0,0,0,4.8,0l10.3-5.94c1.32-.76,1.3-2,0-2.78l-10.5-6.12a5.28,5.28,0,0,0-4.8,0Zm34.13,17.11-10.5-6.06a5.28,5.28,0,0,0-4.8,0l-10.3,5.95c-1.32.75-1.3,2,0,2.77l10.5,6.06a5.34,5.34,0,0,0,4.8,0l10.3-5.94C451.22,476.69,451.2,475.43,449.86,474.69ZM223.35,340.05l10.5,6.06a5.34,5.34,0,0,0,4.8,0L249,340.19c1.31-.76,1.29-2,0-2.78l-10.5-6.06a5.28,5.28,0,0,0-4.8,0l-10.3,5.94C222,338,222,339.27,223.35,340.05Zm19.2,11.08,10.5,6.06a5.34,5.34,0,0,0,4.8,0l10.3-5.95c1.31-.76,1.29-2,0-2.77l-10.5-6.06a5.28,5.28,0,0,0-4.8,0l-10.3,5.95c-1.36.76-1.34,2,0,2.77Zm19.2,11.09,10.5,6.06a5.34,5.34,0,0,0,4.8,0l10.3-5.94c1.31-.76,1.29-2,0-2.78l-10.5-6.06a5.28,5.28,0,0,0-4.8,0l-10.3,5.95c-1.36.75-1.34,2,0,2.77ZM281,373.3l10.5,6.06a5.28,5.28,0,0,0,4.8,0l10.3-5.95c1.31-.76,1.29-2,0-2.77l-10.6-6a5.28,5.28,0,0,0-4.8,0l-10.3,5.95C279.59,371.29,279.61,372.53,281,373.3Zm19.2,11.09,10.5,6.06a5.34,5.34,0,0,0,4.8,0l10.3-5.94c1.31-.76,1.29-2,0-2.78l-10.59-6a5.28,5.28,0,0,0-4.8,0l-10.3,5.95c-1.32.73-1.3,2,0,2.75Zm19.2,11.08,10.5,6.06a5.28,5.28,0,0,0,4.8,0l10.3-5.95c1.31-.76,1.29-2,0-2.77l-10.5-6.06a5.28,5.28,0,0,0-4.8,0l-10.39,5.94c-1.31.77-1.31,2,0,2.78Zm19.2,11.09,10.5,6.06a5.34,5.34,0,0,0,4.8,0l10.3-5.94c1.31-.76,1.29-2,0-2.78l-10.5-6.06a5.28,5.28,0,0,0-4.8,0l-10.3,6c-1.41.7-1.39,2-.05,2.72Zm19.15,11.13,10.5,6.06a5.28,5.28,0,0,0,4.8,0l10.3-6c1.31-.76,1.29-2,0-2.77l-10.5-6.06a5.34,5.34,0,0,0-4.8,0l-10.3,5.95C356.39,415.63,356.41,416.87,357.75,417.69Zm19.25,11,10.5,6.06a5.34,5.34,0,0,0,4.8,0l10.3-5.94c1.32-.76,1.3-2,0-2.78L392,420a5.28,5.28,0,0,0-4.8,0l-10.3,6C375.59,426.69,375.61,428,377,428.69Zm19.2,11.08,10.5,6.06a5.28,5.28,0,0,0,4.8,0l10.3-5.95c1.32-.76,1.3-2,0-2.77l-10.5-6.06a5.34,5.34,0,0,0-4.8,0l-10.3,6c-1.41.75-1.39,2-.05,2.76Zm19.2,11.09,10.5,6.06a5.34,5.34,0,0,0,4.8,0L441,451c1.32-.76,1.3-2,0-2.78l-10.5-6.05a5.28,5.28,0,0,0-4.8,0l-10.3,5.95c-1.4.8-1.4,2,0,2.81ZM468.29,464,448.4,452.59a5.3,5.3,0,0,0-4.81,0l-10.3,6c-1.31.76-1.29,2,0,2.77l19.84,11.46a5.34,5.34,0,0,0,4.8,0l10.3-5.94c1.36-.77,1.34-2,0-2.79ZM203.42,307.37l10.88,6.32a5.34,5.34,0,0,0,4.8,0l4.28-2.47c1.32-.76,1.3-2,0-2.77l-10.88-6.28a5.34,5.34,0,0,0-4.8,0l-4.28,2.48C202.06,305.36,202.08,306.6,203.42,307.37Zm19.12,11,10.87,6.32a5.28,5.28,0,0,0,4.8,0l4.29-2.47c1.31-.76,1.29-2-.05-2.78l-10.87-6.27a5.28,5.28,0,0,0-4.8,0l-4.29,2.47c-1.31.75-1.29,2,0,2.77Zm19.17,11.06,10.87,6.28a5.34,5.34,0,0,0,4.8,0l4.29-2.48c1.31-.75,1.29-2-.05-2.77l-10.87-6.28a5.28,5.28,0,0,0-4.8,0l-4.29,2.51c-1.31.77-1.29,2,.05,2.78Zm19.88,11.48,10.87,6.28a5.36,5.36,0,0,0,4.81,0l4.28-2.48c1.31-.76,1.29-2-.05-2.77l-10.87-6.25a5.28,5.28,0,0,0-4.8,0l-4.29,2.47c-1.31.78-1.29,2,0,2.79Zm19.72,11.39,10.87,6.28a5.36,5.36,0,0,0,4.81,0l4.28-2.47c1.31-.76,1.29-2,0-2.77l-10.88-6.28a5.28,5.28,0,0,0-4.8,0l-4.28,2.48c-1.31.78-1.31,2,0,2.8Zm19.35,11.17,10.87,6.28a5.36,5.36,0,0,0,4.81,0l4.28-2.47c1.31-.76,1.29-2-.05-2.77l-10.87-6.22a5.34,5.34,0,0,0-4.8,0l-4.28,2.48c-1.32.73-1.3,2,0,2.74Zm19.19,11.08,10.87,6.28a5.34,5.34,0,0,0,4.8,0l4.29-2.47c1.31-.76,1.29-2-.05-2.77l-10.87-6.28a5.28,5.28,0,0,0-4.8,0l-4.29,2.47c-1.31.79-1.29,2,.05,2.81Zm19.22,11.14L349.94,392a5.34,5.34,0,0,0,4.8,0L359,389.5c1.31-.76,1.29-2,0-2.78l-10.87-6.28a5.28,5.28,0,0,0-4.8,0L339,382.91C337.71,383.69,337.73,384.91,339.07,385.69Zm19.32,11.16,10.87,6.28a5.34,5.34,0,0,0,4.8,0l4.28-2.47c1.32-.76,1.3-2,0-2.77l-10.87-6.28a5.3,5.3,0,0,0-4.81,0l-4.28,2.48c-1.38.73-1.33,2,0,2.75Zm19.68,11.36,10.87,6.28a5.36,5.36,0,0,0,4.81,0L398,412c1.31-.75,1.29-2,0-2.77L387.15,403a5.28,5.28,0,0,0-4.8,0L378,405.43c-1.29.76-1.27,2,.07,2.77ZM398,419.69,408.87,426a5.28,5.28,0,0,0,4.8,0L418,423.5c1.32-.76,1.3-2,0-2.78L407,414.48a5.3,5.3,0,0,0-4.81,0L397.91,417C396.62,417.69,396.64,418.92,398,419.69Zm19.55,11.4,10.88,6.28a5.28,5.28,0,0,0,4.8,0l4.28-2.47c1.32-.76,1.3-2,0-2.78l-10.88-6.28a5.28,5.28,0,0,0-4.8,0l-4.28,2.47c-1.38.77-1.36,2,0,2.78Zm19.75,11.3,12.9,7.45a5.34,5.34,0,0,0,4.8,0l4.29-2.47c1.31-.76,1.29-2,0-2.77l-12.9-7.45a5.28,5.28,0,0,0-4.8,0l-4.28,2.48c-1.39.74-1.37,2,0,2.76Zm43.48,14.66-12.9-7.45a5.28,5.28,0,0,0-4.8,0l-4.29,2.47c-1.31.76-1.29,2,0,2.77l12.9,7.45a5.34,5.34,0,0,0,4.8,0l4.28-2.48c1.3-.74,1.28-2-.06-2.76Z"></path><polygon class="cls-6" points="185.46 276.04 531.07 475.57 558.87 459.52 213.26 259.98 185.46 276.04"></polygon><path class="cls-5" d="M505.2,445.56a13.92,13.92,0,0,1-12.57-.06c-3.5-2-3.55-5.28-.11-7.26a13.86,13.86,0,0,1,12.57.07C508.59,440.33,508.64,443.58,505.2,445.56Z"></path><polygon class="cls-7" points="251.2 294.24 239.48 287.48 241.06 286.56 252.78 293.33 251.2 294.24"></polygon><polygon class="cls-7" points="247.2 296.55 235.48 289.78 237.07 288.87 248.79 295.63 247.2 296.55"></polygon><polygon class="cls-7" points="243.21 298.86 231.49 292.09 233.07 291.17 244.79 297.94 243.21 298.86"></polygon><path class="cls-8" d="M232.55,508.43,126.1,447c-2.95-1.7-2.58-4.68.83-6.65l42.29-24.41c3.41-2,8.56-2.18,11.51-.48l106.45,61.46c3,1.7,2.59,4.68-.82,6.65L244.07,508C240.66,509.92,235.51,510.14,232.55,508.43Z"></path><path class="cls-9" d="M126.93,441.6l42.29-24.41c3.41-2,8.56-2.18,11.51-.48l106.45,61.46a3.71,3.71,0,0,1,1.91,2.25c.31-1.31-.31-2.61-1.91-3.53L180.73,415.43c-2.95-1.7-8.1-1.49-11.51.48l-42.29,24.41c-2.17,1.26-3.1,2.92-2.73,4.4A5.27,5.27,0,0,1,126.93,441.6Z"></path><polygon class="cls-5" points="499.01 380.28 279.24 253.39 279.24 68.23 499.01 195.12 499.01 380.28"></polygon><path class="cls-2" d="M498.89,288.35l.48-.82-46.76-27V229.45l46.28,26.72.48-.83-46.76-27V200.92h-.95v26.84L410,203.7V176.31h-1v26.84l-41.67-24.06V151.7h-.95v26.84l-41.63-24.09v-27.4h-1v26.84L279.6,128.45l-.48.83,44.66,25.79v31.08L279.6,160.64l-.48.81,44.66,25.78v31.11L279.6,192.85l-.48.83,44.66,25.77v31.11L279.6,225.05l-.48.83,44.66,25.79v27.39h1V252.24l41.67,24v27.4h.95V276.85l41.67,24v27.4h1V301.45l41.67,24.05v27.4h.95V326.06L499,352.78l.48-.82-46.76-27V293.85L499,320.57l.48-.83-46.76-27V261.63ZM366.41,275.19l-41.67-24.06V220l41.67,24.06Zm0-32.22-41.67-24.05V187.81l41.67,24Zm0-32.21L324.74,186.7V155.59l41.67,24.06Zm42.62,89L367.36,275.7V244.63L409,268.69Zm0-32.22-41.67-24V212.45l41.67,24Zm0-32.21-41.67-24.06V180.2L409,204.26Zm42.63,89-41.67-24V269.24l41.67,24.06Zm0-32.22L410,268.06V237l41.67,24.06Zm0-32.21L410,235.84v-31l41.67,24.06Z"></path><path d="M399.35,114.69h0a4.74,4.74,0,0,1-2.27-3.59v-.8c0-1.25,1-1.68,2.27-1h0a4.68,4.68,0,0,1,2.28,3.59v.8C401.63,115,400.58,115.42,399.35,114.69Z"></path><path class="cls-10" d="M399.35,113.17h0a2,2,0,0,1-1-1.55v-.34c0-.55.44-.73,1-.42h0a2,2,0,0,1,1,1.55v.35C400.34,113.3,399.9,113.49,399.35,113.17Z"></path><path class="cls-11" d="M394.2,110.2h0a2.06,2.06,0,0,1-1-1.55v-.35c0-.54.44-.73,1-.42h0a2,2,0,0,1,1,1.55v.35C395.18,110.32,394.74,110.51,394.2,110.2Z"></path><path class="cls-2" d="M561.08,471.18l-.78.4A1.94,1.94,0,0,0,561.08,471.18Z"></path><path class="cls-2" d="M560,459.15c-1.66,0-3,2.79-3,6.23s1.35,6.23,3,6.23a1.63,1.63,0,0,0,.31,0l.78-.4c1.12-.91,1.92-3.16,1.92-5.8C563,461.94,561.65,459.15,560,459.15Z"></path><polygon class="cls-12" points="499.01 228.3 279.24 101.41 279.24 68.23 499.01 195.12 499.01 228.3"></polygon><path class="cls-5" d="M298.3,96.42c0,2.77-1.91,3.92-4.27,2.56a9.54,9.54,0,0,1-4.26-7.48c0-2.77,1.91-3.91,4.26-2.55A9.47,9.47,0,0,1,298.3,96.42Z"></path><path class="cls-5" d="M311.41,104c0,2.77-1.91,3.91-4.26,2.55a9.52,9.52,0,0,1-4.26-7.47c0-2.77,1.91-3.92,4.26-2.56A9.52,9.52,0,0,1,311.41,104Z"></path><path class="cls-5" d="M325.27,112c0,2.77-1.9,3.91-4.26,2.55a9.52,9.52,0,0,1-4.26-7.47c0-2.77,1.91-3.91,4.26-2.56A9.5,9.5,0,0,1,325.27,112Z"></path></g></g></svg> 