<?xml version="1.0" encoding="UTF-8"?> <!-- Generator: Adobe Illustrator 23.0.4, SVG Export Plug-In . SVG Version: 6.00 Build 0) --> <svg xmlns="http://www.w3.org/2000/svg" xmlns:xlink="http://www.w3.org/1999/xlink" id="Layer_1" x="0px" y="0px" viewBox="0 0 3000 830" style="enable-background:new 0 0 3000 830;" xml:space="preserve"> <style type="text/css"> .st0{fill:#30B7BD;} .st1{opacity:0.5;fill:#EA6EA0;enable-background:new ;} </style> <path class="st0" d="M1819.3,0c-37.9,44.3-76.5,93.5-115.6,148c-16.1,21.1-30.9,42.4-44.6,64.1c-40.9,65.2-70.3,134.6-82.6,207.9 c-1.9,20.4-1.3,41,1.6,61.3c14.5,109.6,113.3,184.6,229.8,213.3c22.4,5.5,45.2,9.3,68.2,11.5c22.6,2.2,45.5,2.7,68.3,1.9 c105.1-5.8,214.6-24.6,321.3-56.7c26.7-8.1,53.1-16.8,79.3-26.6c116.4-45.2,282.4-122.6,359.3-222.5c88.8-111.5,108.9-264,75-402.2 H1819.3z"></path> <path class="st1" d="M2272.7,0H1487c-3.4,37.3-5.2,76.4-2.6,115c1.3,21.9,4.4,43.5,9.1,64.9c27.9,155.1,195.8,230.7,343.8,206 c137-22.7,259.4-67.9,382.6-123.7c50.4-23.3,73.5-80.5,75.7-133.3c1.3-20.8,0.2-41.5-3.4-62C2288.3,44.2,2281.7,21.6,2272.7,0z"></path> </svg> 