<?xml version="1.0" encoding="UTF-8"?> <svg xmlns="http://www.w3.org/2000/svg" viewBox="0 0 1200.33 964.54"><defs><style>.cls-1{fill:#30b7bd;}.cls-2{fill:#ea6ea0;opacity:0.5;isolation:isolate;}</style></defs><title>v01_Both_Blobs</title><g id="Layer_2" data-name="Layer 2"><g id="Layer_1-2" data-name="Layer 1"><path class="cls-1" d="M1117.45,684.4C1047.06,775.78,895.15,846.63,788.63,888q-36,13.29-72.57,24.28a1271.41,1271.41,0,0,1-294,51.94,471.17,471.17,0,0,1-62.53-1.66A428.75,428.75,0,0,1,297.13,952c-106.64-26.26-197-94.92-210.33-195.17a240.75,240.75,0,0,1-1.48-56.14C96.66,633.57,123.52,570.1,161,510.36c12.47-19.92,26.11-39.42,40.75-58.68C898.72-518.22,1407,321.15,1117.45,684.4Z"></path><path class="cls-2" d="M4.92,301.77c-4,38.35-6.47,79.44-3.79,119.73a388.4,388.4,0,0,0,8.29,59.37C35,622.81,188.59,692,324,669.38c125.41-20.83,237.43-62.14,350.15-113.2,46.15-21.33,67.27-73.73,69.32-122a241.38,241.38,0,0,0-3-56.69C730.81,320.32,702.1,263.67,662,225.42A403.78,403.78,0,0,0,601.88,172c-65.53-47.85-145.5-79.51-222.08-95.57a405.3,405.3,0,0,0-69.65-5.75c-70,.31-140.2,18.94-201.66,58.52A271,271,0,0,0,69.61,159C45.87,181,27,207.31,16.52,239,10.22,260.26,7.13,282.67,4.92,301.77Z"></path></g></g></svg> 